<?xml version="1.0" standalone="no"?>
<!DOCTYPE svg PUBLIC "-//W3C//DTD SVG 1.1//EN" "http://www.w3.org/Graphics/SVG/1.1/DTD/svg11.dtd" >
<svg xmlns="http://www.w3.org/2000/svg" xmlns:xlink="http://www.w3.org/1999/xlink" version="1.1">
<metadata>
Created by FontForge 20200427 at Thu Feb 27 23:25:23 2020
 By www
Copyright (c) 2019 by TypeType. Designer Vika Usmanova. All rights reserved.
</metadata>
<defs>
<font id="TTAlientz-Serif" horiz-adv-x="635" >
  <font-face 
    font-family="TT Alientz Serif"
    font-weight="700"
    font-stretch="normal"
    units-per-em="1000"
    panose-1="2 4 0 0 0 0 0 0 6 7"
    ascent="800"
    descent="-200"
    x-height="500"
    cap-height="700"
    bbox="-535 -300 1303 995"
    underline-thickness="50"
    underline-position="-100"
    unicode-range="U+000D-FB03"
  />
<missing-glyph horiz-adv-x="900" 
d="M100 284h45v-139h33v139h50v31h-128v126l19 -61h23l34 106l33 -106h23l54 170h-32l-34 -110l-35 110h-19l-35 -110l-31 103v157h700v-150h-110v-170h110v-91q-13 27 -50 27q-27 0 -43.5 -14.5t-16.5 -34.5q0 -22 14.5 -32.5t39.5 -17.5q17 -5 25.5 -9.5t8.5 -13.5
q0 -21 -28 -21t-28 25h-33q0 -24 17 -39.5t44 -15.5q17 0 30.5 6.5t19.5 13.5v-163h-700v284zM246 229q0 -37 22.5 -61.5t59.5 -24.5t59.5 24.5t22.5 61.5t-23 62t-59 25t-59 -25t-23 -62zM311 380h33v62h24l35 -62h37l-40 67q36 17 36 50q0 22 -16 37.5t-41 15.5h-68v-170z
M585 143q29 0 48 19t19 47v106h-32v-106q0 -15 -9.5 -25t-25.5 -10q-17 0 -26.5 10.5t-9.5 24.5v106h-32v-106q0 -28 19.5 -47t48.5 -19zM277 229q0 25 14 40.5t37 15.5q24 0 37.5 -15.5t13.5 -40.5q0 -23 -14.5 -39t-36.5 -16t-36.5 16t-14.5 39zM580 519v-139h32v139h50
v31h-132v-31h50zM469 550v-170h33v170h-33zM722 411v41h78v-41h-78zM800 519v-36h-78v36h78zM724 267q0 9 7.5 14.5t18.5 5.5q10 0 18 -7t8 -18h24v-38q-17 15 -46 22q-16 5 -23 9t-7 12zM344 519h35q10 0 17 -6.5t7 -16.5q0 -12 -7.5 -17.5t-16.5 -5.5h-35v46z" />
    <glyph glyph-name="f_f" unicode="ff" horiz-adv-x="785" 
d="M10 390v30q49 0 76.5 11.5t27.5 42.5q0 10 -4.5 21.5t-10.5 23.5q-11 23 -17.5 42.5t-6.5 46.5q0 48 32.5 75t98.5 27q51 0 95.5 -13t73.5 -32v-205h-10q-18 63 -37.5 105t-42 67.5t-47 36.5t-51.5 11q-34 0 -53 -18t-19 -50q0 -25 14.5 -58t46 -63t81 -50.5t118.5 -20.5
q72 0 98 14t26 40q0 10 -4.5 21.5t-10.5 23.5q-11 23 -17.5 42.5t-6.5 46.5q0 48 34.5 75t106.5 27q57 0 97.5 -10t61.5 -25v-335h-15q-18 175 -62 255t-118 80q-30 0 -47.5 -16.5t-17.5 -43.5q0 -23 12 -49t35.5 -51.5t57 -50t75.5 -44.5v-25h-110q4 -40 5.5 -84t1.5 -95
q0 -97 10 -133q5 -18 14 -30t26.5 -19.5t45.5 -11.5t70 -7v-15h-318v5q19 11 30.5 27.5t18 44t9 68t2.5 98.5q0 29 -2.5 66.5t-7.5 85.5h-290q4 -40 5.5 -84t1.5 -95q0 -97 10 -133q5 -18 14 -30t26.5 -19.5t45.5 -11.5t70 -7v-15h-318v5q19 11 30.5 27.5t18 44t9 68
t2.5 98.5q0 26 -2.5 62.5t-7.5 84.5h-80z" />
    <glyph glyph-name="fi" unicode="fi" horiz-adv-x="691" 
d="M10 420q49 0 76.5 11.5t27.5 42.5q0 16 -15 46q-11 22 -17.5 40t-6.5 43q0 51 39 79t126 28q45 0 90.5 -6t89 -16t83 -24t72.5 -30v-214h111v-15q-49 -4 -70 -9t-32 -16t-11 -34q0 -13 0.5 -32.5t1.5 -46.5q1 -29 1.5 -51t0.5 -38q0 -51 4.5 -83t12.5 -50.5t18.5 -27
t23.5 -12.5v-5h-200v5q19 11 31 24.5t18.5 34.5t8.5 51t2 75q0 147 -14 205h-297q4 -40 5.5 -84t1.5 -95q0 -97 10 -133q5 -18 14 -30t26.5 -19.5t45.5 -11.5t70 -7v-15h-318v5q19 11 30.5 27.5t18 44t9 68t2.5 98.5q0 26 -2.5 62.5t-7.5 84.5h-80v30zM556 420
q-26 68 -63 116.5t-81 79t-94 45t-101 14.5q-54 0 -78 -18t-24 -52q0 -33 25.5 -65.5t79 -58.5t137 -42.5t199.5 -18.5z" />
    <glyph glyph-name="f_f_i" unicode="ffi" horiz-adv-x="1076" 
d="M10 420q49 0 76.5 11.5t27.5 42.5q0 10 -4.5 21.5t-10.5 23.5q-11 23 -17.5 42.5t-6.5 46.5q0 48 32.5 75t98.5 27q51 0 95.5 -13t73.5 -32v-205h-10q-18 63 -37.5 105t-42 67.5t-46.5 36.5t-51 11q-35 0 -54 -18t-19 -50q0 -25 16 -58.5t51.5 -63t92.5 -50t140 -20.5
q48 0 66 10t18 29q0 12 -5 26.5t-11 29.5q-11 26 -17 45t-6 43q0 51 39 79t126 28q45 0 90.5 -6t89 -16t83 -24t72.5 -30v-214h111v-15q-49 -4 -70 -9t-32 -16t-11 -34q0 -13 0.5 -32.5t1.5 -46.5q1 -29 1.5 -51t0.5 -38q0 -51 4.5 -83t12.5 -50.5t18.5 -27t23.5 -12.5v-5
h-200v5q19 11 31 24.5t18.5 34.5t8.5 51t2 75q0 147 -14 205h-297q4 -40 5.5 -84t1.5 -95q0 -97 10 -133q5 -18 14 -30t26.5 -19.5t45.5 -11.5t70 -7v-15h-318v5q19 11 30.5 27.5t18 44t9 68t2.5 98.5q0 25 -2.5 63t-7.5 89h-290q4 -40 5.5 -84t1.5 -95q0 -97 10 -133
q5 -18 14 -30t26.5 -19.5t45.5 -11.5t70 -7v-15h-318v5q19 11 30.5 27.5t18 44t9 68t2.5 98.5q0 26 -2.5 62.5t-7.5 84.5h-80v30zM500 605q0 -33 25.5 -65.5t79 -58.5t137 -42.5t199.5 -18.5q-26 68 -63 116.5t-81 79t-94 45t-101 14.5q-54 0 -78 -18t-24 -52z" />
    <glyph glyph-name="f_f_j" unicode="ffj" horiz-adv-x="1076" 
d="M10 420q49 0 76.5 11.5t27.5 42.5q0 10 -4.5 21.5t-10.5 23.5q-11 23 -17.5 42.5t-6.5 46.5q0 48 32.5 75t98.5 27q51 0 95.5 -13t73.5 -32v-205h-10q-18 63 -37.5 105t-42 67.5t-46.5 36.5t-51 11q-35 0 -54 -18t-19 -50q0 -25 16 -58.5t51.5 -63t92.5 -50t140 -20.5
q48 0 66 10t18 30q0 16 -7 33.5t-9 21.5q-11 24 -17 44t-6 44q0 51 39 79t126 28q45 0 90.5 -6t89 -16t83 -24t72.5 -30v-214h111v-15q-23 -3 -40 -5.5t-27 -4.5q-21 -5 -33.5 -18.5t-12.5 -40.5q0 -32 3.5 -59.5t11.5 -67.5q6 -28 10 -53.5t7 -52.5t4.5 -57t1.5 -66
q0 -102 -35.5 -146t-109.5 -44q-61 0 -109 15v355h15q6 -78 18.5 -140t29.5 -105.5t37.5 -66.5t44.5 -23q27 0 38.5 28.5t11.5 99.5q0 53 -9 112t-25.5 117.5t-40 113t-52.5 99.5h-240q4 -40 5.5 -84t1.5 -95q0 -45 2 -76t6 -51q8 -39 29 -53.5t69 -20.5v-15h-258v5
q19 11 30.5 27.5t18 44t9 68t2.5 98.5q0 25 -2.5 63t-7.5 89h-290q4 -40 5.5 -84t1.5 -95q0 -97 10 -133q5 -18 14 -30t26.5 -19.5t45.5 -11.5t70 -7v-15h-318v5q19 11 30.5 27.5t18 44t9 68t2.5 98.5q0 26 -2.5 62.5t-7.5 84.5h-80v30zM941 420q-26 68 -63 116.5t-81 79
t-94 45t-101 14.5q-54 0 -78 -18t-24 -52q0 -33 25.5 -65.5t79 -58.5t137 -42.5t199.5 -18.5z" />
    <glyph glyph-name="f_f_t" unicode="fft" horiz-adv-x="1170" 
d="M114 474q0 10 -4.5 21.5t-10.5 23.5q-11 23 -17.5 42.5t-6.5 46.5q0 48 32.5 75t98.5 27q51 0 95.5 -13t73.5 -32v-205h-10q-18 63 -37.5 105t-42 67.5t-46.5 36.5t-51 11q-35 0 -54 -18t-19 -50q0 -25 15.5 -58.5t50 -63t90 -50t134.5 -20.5q49 0 71.5 15t22.5 39
q0 10 -4.5 21.5t-10.5 23.5q-11 23 -17.5 42.5t-6.5 46.5q0 102 151 102q39 0 80 -4t81.5 -11.5t79.5 -17.5t73 -22v-155h170v-30h-170q-1 -65 -9 -127t-19 -126q-6 -33 -10.5 -63t-4.5 -49q0 -40 17 -60t48 -20q35 0 60 22.5t42.5 65.5t28.5 105.5t17 141.5h15v-355
q-46 -15 -89 -15q-58 0 -97.5 10t-63.5 32.5t-34 58.5t-10 89q0 28 3 112q1 18 1.5 29t0.5 16q0 34 -11 43.5t-48 9.5h-192q4 -37 5.5 -80t1.5 -94q0 -97 10 -133q5 -18 14 -30t26.5 -19.5t45.5 -11.5t70 -7v-15h-318v5q19 11 30.5 27.5t18 44t9 68t2.5 98.5q0 29 -2.5 66.5
t-7.5 85.5h-290q4 -40 5.5 -84t1.5 -95q0 -97 10 -133q5 -18 14 -30t26.5 -19.5t45.5 -11.5t70 -7v-15h-318v5q19 11 30.5 27.5t18 44t9 68t2.5 98.5q0 26 -2.5 62.5t-7.5 84.5h-80v30q49 0 76.5 11.5t27.5 42.5zM500 610q0 -45 44 -89q22 -21 51 -39t63 -30.5t71 -19.5
t74 -7q54 0 75.5 16.5t21.5 48.5q0 44 -44 88q-22 22 -52.5 40t-65.5 30.5t-73.5 19.5t-77.5 7q-46 0 -66.5 -16.5t-20.5 -48.5z" />
    <glyph glyph-name="f_j" unicode="fj" horiz-adv-x="691" 
d="M114 474q0 16 -15 46q-11 22 -17.5 40t-6.5 43q0 51 39 79t126 28q45 0 90.5 -6t89 -16t83 -24t72.5 -30v-214h111v-15q-23 -3 -40 -5.5t-27 -4.5q-21 -5 -33.5 -18.5t-12.5 -40.5q0 -32 3.5 -59.5t11.5 -67.5q6 -28 10 -53.5t7 -52.5t4.5 -57t1.5 -66q0 -102 -35.5 -146
t-109.5 -44q-61 0 -109 15v355h15q6 -78 18.5 -140t29.5 -105.5t37.5 -66.5t44.5 -23q27 0 38.5 28.5t11.5 99.5q0 53 -9 112t-25.5 117.5t-40 113t-52.5 99.5h-240q4 -40 5.5 -84t1.5 -95q0 -45 2 -76t6 -51q8 -39 29 -53.5t69 -20.5v-15h-258v5q19 11 30.5 27.5t18 44
t9 68t2.5 98.5q0 26 -2.5 62.5t-7.5 84.5h-80v30q49 0 76.5 11.5t27.5 42.5zM556 420q-26 68 -63 116.5t-81 79t-94 45t-101 14.5q-54 0 -78 -18t-24 -52q0 -33 25.5 -65.5t79 -58.5t137 -42.5t199.5 -18.5z" />
    <glyph glyph-name="f_t" unicode="ft" horiz-adv-x="785" 
d="M114 474q0 10 -4.5 21.5t-10.5 23.5q-11 23 -17.5 42.5t-6.5 46.5q0 102 151 102q39 0 80 -4t81.5 -11.5t79.5 -17.5t73 -22v-155h170v-30h-170q-1 -65 -9 -127t-19 -126q-6 -33 -10.5 -63t-4.5 -49q0 -40 17 -60t48 -20q35 0 60 22.5t42.5 65.5t28.5 105.5t17 141.5h15
v-355q-46 -15 -89 -15q-58 0 -97.5 10t-63.5 32.5t-34 58.5t-10 89l1 86q1 9 1 20.5v25.5q0 26 -2 41.5t-9 23.5t-20 10.5t-35 2.5h-182q4 -37 5.5 -80t1.5 -94q0 -97 10 -133q5 -18 14 -30t26.5 -19.5t45.5 -11.5t70 -7v-15h-318v5q19 11 30.5 27.5t18 44t9 68t2.5 98.5
q0 26 -2.5 62.5t-7.5 84.5h-80v30q49 0 76.5 11.5t27.5 42.5zM159 521q22 -21 51 -39t63 -30.5t71 -19.5t74 -7q54 0 75.5 16.5t21.5 48.5q0 44 -44 88q-22 22 -52.5 40t-65.5 30.5t-73.5 19.5t-77.5 7q-46 0 -66.5 -16.5t-20.5 -48.5q0 -45 44 -89z" />
    <glyph glyph-name=".notdef" horiz-adv-x="900" 
d="M100 284h45v-139h33v139h50v31h-128v126l19 -61h23l34 106l33 -106h23l54 170h-32l-34 -110l-35 110h-19l-35 -110l-31 103v157h700v-150h-110v-170h110v-91q-13 27 -50 27q-27 0 -43.5 -14.5t-16.5 -34.5q0 -22 14.5 -32.5t39.5 -17.5q17 -5 25.5 -9.5t8.5 -13.5
q0 -21 -28 -21t-28 25h-33q0 -24 17 -39.5t44 -15.5q17 0 30.5 6.5t19.5 13.5v-163h-700v284zM246 229q0 -37 22.5 -61.5t59.5 -24.5t59.5 24.5t22.5 61.5t-23 62t-59 25t-59 -25t-23 -62zM311 380h33v62h24l35 -62h37l-40 67q36 17 36 50q0 22 -16 37.5t-41 15.5h-68v-170z
M585 143q29 0 48 19t19 47v106h-32v-106q0 -15 -9.5 -25t-25.5 -10q-17 0 -26.5 10.5t-9.5 24.5v106h-32v-106q0 -28 19.5 -47t48.5 -19zM277 229q0 25 14 40.5t37 15.5q24 0 37.5 -15.5t13.5 -40.5q0 -23 -14.5 -39t-36.5 -16t-36.5 16t-14.5 39zM580 519v-139h32v139h50
v31h-132v-31h50zM469 550v-170h33v170h-33zM722 411v41h78v-41h-78zM800 519v-36h-78v36h78zM724 267q0 9 7.5 14.5t18.5 5.5q10 0 18 -7t8 -18h24v-38q-17 15 -46 22q-16 5 -23 9t-7 12zM344 519h35q10 0 17 -6.5t7 -16.5q0 -12 -7.5 -17.5t-16.5 -5.5h-35v46z" />
    <glyph glyph-name=".null" horiz-adv-x="0" 
 />
    <glyph glyph-name=".null" horiz-adv-x="0" 
 />
    <glyph glyph-name="uni000D" unicode="&#xd;" horiz-adv-x="600" 
 />
    <glyph glyph-name="space" unicode=" " horiz-adv-x="300" 
 />
    <glyph glyph-name="exclam" unicode="!" horiz-adv-x="340" 
d="M270 700v-5q-21 -42 -36 -95t-25.5 -119.5t-17.5 -148.5t-11 -182h-20q-4 100 -11 182t-17.5 148.5t-25.5 119.5t-36 95v5h200zM170 120q28 0 46.5 -18.5t18.5 -46.5t-18.5 -46.5t-46.5 -18.5t-46.5 18.5t-18.5 46.5t18.5 46.5t46.5 18.5z" />
    <glyph glyph-name="quotedbl" unicode="&#x22;" horiz-adv-x="400" 
d="M40 700h150v-5q-23 -48 -41.5 -134t-23.5 -201h-20q-5 115 -23.5 201t-41.5 134v5zM210 700h150v-5q-23 -48 -41.5 -134t-23.5 -201h-20q-5 115 -23.5 201t-41.5 134v5z" />
    <glyph glyph-name="numbersign" unicode="#" horiz-adv-x="725" 
d="M685 490h-110l-40 -280h140v-35h-145l-25 -175h-40l25 175h-305l-25 -175h-40l25 175h-105v35h110l40 280h-140v35h145l25 175h40l-25 -175h305l25 175h40l-25 -175h105v-35zM495 210l40 280h-305l-40 -280h305z" />
    <glyph glyph-name="dollar" unicode="$" horiz-adv-x="765" 
d="M50 96l139 234h15q-28 -62 -28 -116q0 -72 49.5 -119t137.5 -63v288q-87 29 -145 57q-57 26 -95 66t-38 96q0 77 67 123.5t211 47.5v90h35v-91q52 -3 96 -14t79.5 -28t62 -38.5t44.5 -44.5l-137 -234q79 -32 123 -74.5t44 -106.5q0 -83 -66 -131t-209 -48h-22t-15 1v-91
h-35v93q-105 7 -186 34t-127 69zM398 27q17 -1 30 -1.5t22 -0.5q99 0 142.5 30t43.5 80q0 42 -31 73q-32 30 -80.5 52t-126.5 48v-281zM398 401l39 -13q26 -8 50 -16.5t44 -16.5q26 84 26 146q0 76 -39 122t-120 55v-277zM363 414v266h-3q-88 0 -129 -31t-41 -83
q0 -53 45 -87.5t128 -64.5z" />
    <glyph glyph-name="percent" unicode="%" horiz-adv-x="750" 
d="M40 570q0 29 11 54.5t31 44.5t47.5 30t60.5 11t60.5 -11t47.5 -30t31 -44.5t11 -54.5t-11 -54.5t-31 -44.5t-47.5 -30t-60.5 -11t-60.5 11t-47.5 30t-31 44.5t-11 54.5zM560 270q33 0 60.5 -11t47.5 -30t31 -44.5t11 -54.5t-11 -54.5t-31 -44.5t-47.5 -30t-60.5 -11
t-60.5 11t-47.5 30t-31 44.5t-11 54.5t11 54.5t31 44.5t47.5 30t60.5 11zM450 130q0 -46 30.5 -75.5t79.5 -29.5t79.5 29.5t30.5 75.5t-30.5 75.5t-79.5 29.5t-79.5 -29.5t-30.5 -75.5zM80 570q0 -46 30.5 -75.5t79.5 -29.5t79.5 29.5t30.5 75.5t-30.5 75.5t-79.5 29.5
t-79.5 -29.5t-30.5 -75.5zM195 0l320 700h40l-320 -700h-40z" />
    <glyph glyph-name="ampersand" unicode="&#x26;" horiz-adv-x="845" 
d="M45 130q0 39 19 73q9 17 24 35.5t36.5 40t51.5 47t69 58.5q-83 75 -113 114q-32 41 -32 78q0 57 82 91q81 33 303 33h195q-137 -108 -286 -241q-21 -19 -43 -39.5t-45 -43.5q49 -54 111.5 -105.5t121.5 -93.5q70 90 121 223.5t75 303.5h10v-319q-33 -60 -71 -118
t-95 -116q133 -86 266 -141v-10h-235q-25 31 -46 56t-38 45q-133 -111 -281 -111q-100 0 -150 38.5t-50 101.5zM290 30q110 0 209 101q-48 52 -101.5 107t-116.5 113q-64 -68 -90 -117t-26 -94q0 -52 32 -81t93 -29zM200 555q0 -54 76 -145l91 73q80 64 129 107t68 66
q-39 10 -110 10q-72 0 -120.5 -7.5t-78 -22t-42.5 -35t-13 -46.5z" />
    <glyph glyph-name="quotesingle" unicode="'" horiz-adv-x="230" 
d="M40 700h150v-5q-23 -48 -41.5 -134t-23.5 -201h-20q-5 115 -23.5 201t-41.5 134v5z" />
    <glyph glyph-name="parenleft" unicode="(" horiz-adv-x="325" 
d="M90 270q0 75 13.5 143.5t37.5 127.5t56.5 108.5t69.5 85.5h8v-5q-18 -34 -33.5 -82t-27 -106.5t-18 -127t-6.5 -144.5q0 -61 6.5 -123.5t18 -121.5t27 -114t33.5 -101v-5h-8q-36 48 -68.5 104t-56.5 115.5t-38 122t-14 123.5z" />
    <glyph glyph-name="parenright" unicode=")" horiz-adv-x="325" 
d="M50 -190q18 46 33.5 101t27 114t18 121.5t6.5 123.5q0 76 -6.5 144.5t-18 127t-27 106.5t-33.5 82v5h8q37 -36 69.5 -85.5t56.5 -108.5t37.5 -127.5t13.5 -143.5q0 -62 -14 -124t-38 -121.5t-56 -115t-69 -104.5h-8v5z" />
    <glyph glyph-name="asterisk" unicode="*" horiz-adv-x="470" 
d="M40 529l29 19q27 18 45 31t28.5 22.5t15 17t4.5 14.5q0 8 -4.5 15t-15 16.5t-28.5 21.5l-45 30l-29 20l10 17l33 -16q44 -21 65 -29.5t35 -8.5q16 0 23 13q8 12 10.5 37t6.5 80l2 26h20l2 -26q2 -28 3.5 -47.5t3.5 -32.5q3 -25 10.5 -37.5t22.5 -12.5q14 0 35 8.5
t65 29.5l33 16l10 -17l-29 -19q-27 -18 -45 -31t-28.5 -22.5t-15 -16.5t-4.5 -15q0 -14 19.5 -31t73.5 -52l29 -20l-10 -17l-33 16q-44 21 -65 29.5t-35 8.5t-22 -12q-8 -13 -11 -38t-7 -80l-2 -26h-20l-2 26q-2 28 -3.5 47.5t-3.5 32.5q-3 25 -10.5 37.5t-22.5 12.5
q-14 0 -35 -8.5t-65 -29.5l-33 -16z" />
    <glyph glyph-name="plus" unicode="+" horiz-adv-x="470" 
d="M30 345h187v188h35v-187h188v-36h-188v-187h-35v187h-187v35z" />
    <glyph glyph-name="comma" unicode="," horiz-adv-x="190" 
d="M30 60q0 26 17.5 43t42.5 17q32 0 51 -21.5t19 -63.5v-235h-15q-5 46 -12.5 76t-17 50t-22 34.5t-27.5 28.5q-19 18 -27.5 32t-8.5 39z" />
    <glyph glyph-name="hyphen" unicode="-" horiz-adv-x="405" 
d="M40 255v40h345l-25 -40h-320z" />
    <glyph glyph-name="period" unicode="." horiz-adv-x="190" 
d="M30 55q0 28 18.5 46.5t46.5 18.5t46.5 -18.5t18.5 -46.5t-18.5 -46.5t-46.5 -18.5t-46.5 18.5t-18.5 46.5z" />
    <glyph glyph-name="slash" unicode="/" horiz-adv-x="285" 
d="M240 730h45l-240 -860h-45z" />
    <glyph glyph-name="zero" unicode="0" horiz-adv-x="890" 
d="M70 350q0 78 27 144t76.5 114t118.5 75t153 27q87 0 156.5 -25.5t118 -72t74.5 -113t26 -149.5q0 -78 -27 -144t-76.5 -114t-118.5 -75t-153 -27q-87 0 -156.5 25.5t-118 72t-74.5 113.5t-26 149zM175 266q0 -54 16.5 -98t46.5 -74.5t72.5 -47t95.5 -16.5q65 0 121.5 27
t98 78.5t65.5 126.5t24 172q0 54 -16.5 98t-46.5 74.5t-72.5 47t-95.5 16.5q-65 0 -121.5 -27t-98 -78.5t-65.5 -126.5t-24 -172z" />
    <glyph glyph-name="one" unicode="1" horiz-adv-x="530" 
d="M20 0v15q133 8 194 25q32 9 52.5 22.5t32.5 33t17 46.5t5 63q0 274 33 434h-5q-58 -32 -98.5 -58t-65.5 -47q-51 -44 -74 -109q-25 -68 -41 -205h-15v285q22 22 63 50t96 55l221 110l20 -15q-9 -9 -16.5 -33.5t-13 -69.5t-8 -112t-2.5 -160q0 -147 13 -227t32 -98v-5
h-440z" />
    <glyph glyph-name="two" unicode="2" horiz-adv-x="770" 
d="M25 0q68 81 148 150.5t167 131.5q40 30 70.5 54t51.5 43q42 36 68.5 79t26.5 97t-38.5 87t-119.5 33q-58 0 -106 -20t-85 -66t-64.5 -120.5t-45.5 -183.5h-15v355q66 29 152.5 49.5t177.5 20.5q135 0 197 -44.5t62 -120.5q0 -33 -10.5 -62.5t-28.5 -55t-41.5 -47
t-49.5 -39.5q-28 -19 -65.5 -42t-85.5 -50l-62 -36q-60 -35 -105.5 -69t-80.5 -72l5 -5q35 18 84 30.5t103 12.5q33 0 60.5 -4.5t67.5 -13.5q3 0 11.5 -2t19 -4.5t22.5 -4t21 -1.5q33 0 56.5 14.5t39.5 48.5t26 90.5t16 141.5h15v-355q-22 -13 -62.5 -21.5t-94.5 -8.5
q-18 0 -35 1.5t-34.5 4t-36.5 6.5t-43 10q-27 6 -47.5 10.5t-38.5 7t-35 4t-37 1.5q-54 0 -104 -14.5t-87 -35.5z" />
    <glyph glyph-name="three" unicode="3" horiz-adv-x="755" 
d="M200 370h15q-41 -103 -41 -176q0 -85 54 -129.5t168 -44.5q102 0 150.5 38.5t48.5 101.5q0 45 -27.5 78.5t-68 57.5t-86 40.5t-80.5 27.5v5q12 15 26.5 27.5t33 24.5t41.5 25.5t53 29.5q24 13 42.5 24t31.5 19q26 17 43.5 37t17.5 44q0 32 -31.5 45.5t-98.5 13.5
q-83 0 -146.5 -15.5t-110 -53.5t-77.5 -101.5t-51 -158.5h-15v335q42 9 88 17.5t91.5 14.5t90.5 9.5t85 3.5q63 0 106 -7t69.5 -20.5t37.5 -34.5t11 -48q0 -34 -18 -58q-9 -12 -20 -22.5t-26.5 -21t-36 -21.5t-47.5 -26q-26 -14 -48.5 -27t-42.5 -24v-5q64 -13 115.5 -32.5
t87.5 -45t55.5 -57.5t19.5 -70q0 -44 -20 -81.5t-60 -65t-100 -43t-140 -15.5q-55 0 -106 8t-95.5 21.5t-82 31.5t-66.5 39z" />
    <glyph glyph-name="four" unicode="4" horiz-adv-x="760" 
d="M0 206l297 210q51 36 84.5 67t53.5 56.5t28 46t8 36.5q0 15 -8 25.5t-32.5 18t-69 12t-116.5 7.5v15h375v-5q-18 -17 -29 -98q-5 -41 -8 -107t-3 -160v-42t1 -28h36q23 0 37.5 4.5t23 14.5t13 26t7.5 38q6 49 12 187h15v-410h-5q-22 46 -42 62.5t-51 16.5
q-28 0 -42.5 -17.5t-14.5 -56.5q0 -40 11.5 -71t28.5 -49v-5h-425v15q140 8 197 21q29 6 48 17.5t31.5 30.5t18.5 47.5t7 69.5h-487v5zM164 260h323l1 30q4 96 5.5 164t2.5 110h-5q-19 -41 -53 -78q-17 -18 -39.5 -37.5t-54.5 -42.5t-74.5 -52t-99.5 -65q-19 -12 -19 -21
q0 -8 13 -8z" />
    <glyph glyph-name="five" unicode="5" horiz-adv-x="735" 
d="M25 85l150 265h15q-35 -90 -35 -157q0 -82 52.5 -127.5t163.5 -45.5q94 0 141.5 40t47.5 110q0 48 -24 84.5t-63.5 64t-89 47t-101 32.5t-100 20.5t-84.5 10.5v141q0 69 38.5 107t113.5 38q27 0 50 -3t43.5 -8t40.5 -13t42 -19q33 -14 52 -20.5t42 -6.5q26 0 43.5 7.5
t29.5 27.5t20.5 55t16.5 90h15v-245q-16 -13 -41.5 -21.5t-55.5 -8.5q-25 0 -45.5 4.5t-39.5 13t-39 21.5t-44 31q-40 30 -69 45t-66 15q-51 0 -76.5 -29.5t-25.5 -95.5v-86q41 -2 96.5 -8.5t114.5 -19.5t116.5 -33.5t103 -51t73.5 -71.5t28 -95q0 -44 -19.5 -81.5
t-58.5 -65t-97 -43t-135 -15.5q-106 0 -194.5 29t-145.5 71z" />
    <glyph glyph-name="six" unicode="6" horiz-adv-x="775" 
d="M50 350q0 79 27.5 145t79 114t124.5 74.5t164 26.5q85 0 156 -19.5t119 -47.5l-120 -262q58 -25 86.5 -69t28.5 -102q0 -45 -20.5 -85t-61 -70t-100.5 -47.5t-138 -17.5q-76 0 -139.5 25.5t-109.5 72.5t-71 113.5t-25 148.5zM405 30q97 0 146 44.5t49 125.5q0 34 -13 63
t-38 50.5t-61 34t-81 12.5q-78 0 -138.5 -26t-112.5 -77q14 -227 249 -227zM156 316q116 94 274 94q88 0 151 -22q13 65 13 120q0 48 -10 79t-29 49.5t-46 26t-61 7.5q-54 0 -105 -25t-91.5 -71t-66 -111.5t-29.5 -146.5z" />
    <glyph glyph-name="seven" unicode="7" horiz-adv-x="657" 
d="M50 355v315q17 17 51.5 28.5t85.5 11.5q42 0 79.5 -4.5t87.5 -13.5q24 -4 43.5 -7t36.5 -5t33 -3t34 -1q46 0 81 10t55 24l20 -17q-37 -52 -77 -123.5t-74 -148.5t-56 -152.5t-22 -137.5q0 -95 64 -116v-15h-410v15q51 5 89 14t68 26.5t55.5 46.5t50.5 74q24 43 63 123
t94 199q18 38 31.5 67t22.5 49l-5 5q-43 -30 -110 -30q-29 0 -59 4.5t-77 12.5q-29 5 -57.5 9.5t-48.5 4.5q-29 0 -50.5 -11t-37 -40t-26.5 -81t-20 -133h-15z" />
    <glyph glyph-name="eight" unicode="8" horiz-adv-x="780" 
d="M65 155q0 32 13.5 61t38 55t58 49t72.5 42q-75 31 -116 71.5t-41 100.5q0 39 18 71t55 55.5t95 36t137 12.5q75 0 130 -12t90.5 -33t52.5 -50.5t17 -64.5q0 -63 -39.5 -113t-102.5 -82q94 -34 145.5 -74t51.5 -100q0 -45 -20 -81.5t-64.5 -61.5t-114.5 -38.5t-170 -13.5
q-84 0 -142 11.5t-94.5 33t-53 53.5t-16.5 72zM155 190q0 -35 18.5 -64.5t56.5 -50.5t96.5 -33t139.5 -12q94 0 139 29.5t45 74.5t-35 77q-18 16 -38.5 29t-47.5 24.5t-61 23t-79 25.5q-40 13 -66 21t-39 13q-30 -12 -53.5 -29.5t-40.5 -38.5t-26 -43.5t-9 -45.5zM222 492
q18 -17 39.5 -30.5t49.5 -26t64 -25t82 -27.5q14 -4 26.5 -8t23.5 -8q48 25 73 63t25 83q0 32 -16.5 60t-48.5 50t-80 34.5t-110 12.5q-87 0 -126 -25.5t-39 -70.5q0 -48 37 -82z" />
    <glyph glyph-name="nine" unicode="9" horiz-adv-x="790" 
d="M70 57l120 262q-58 25 -86.5 69t-28.5 102q0 45 20.5 85t61 70t100.5 47.5t138 17.5q77 0 140 -25.5t109 -72.5t71 -113.5t25 -148.5q0 -79 -27.5 -145t-79 -114t-124.5 -74.5t-164 -26.5q-85 0 -156 19.5t-119 47.5zM190 500q0 -34 13 -63t38 -50.5t61 -34t81 -12.5
q78 0 138.5 26t112.5 77q-14 227 -249 227q-97 0 -146 -44.5t-49 -125.5zM196 192q0 -48 10 -79t29 -49.5t46 -26t61 -7.5q54 0 105 25t91.5 71t66 111.5t29.5 146.5q-116 -94 -274 -94q-88 0 -151 22q-13 -65 -13 -120z" />
    <glyph glyph-name="colon" unicode=":" horiz-adv-x="230" 
d="M50 445q0 28 18.5 46.5t46.5 18.5t46.5 -18.5t18.5 -46.5t-18.5 -46.5t-46.5 -18.5t-46.5 18.5t-18.5 46.5zM50 55q0 28 18.5 46.5t46.5 18.5t46.5 -18.5t18.5 -46.5t-18.5 -46.5t-46.5 -18.5t-46.5 18.5t-18.5 46.5z" />
    <glyph glyph-name="semicolon" unicode=";" horiz-adv-x="230" 
d="M50 445q0 28 18.5 46.5t46.5 18.5t46.5 -18.5t18.5 -46.5t-18.5 -46.5t-46.5 -18.5t-46.5 18.5t-18.5 46.5zM50 60q0 26 17.5 43t42.5 17q32 0 51 -21.5t19 -63.5v-235h-15q-5 46 -12.5 76t-17 50t-22 34.5t-27.5 28.5q-19 18 -27.5 32t-8.5 39z" />
    <glyph glyph-name="less" unicode="&#x3c;" horiz-adv-x="470" 
d="M35 295v55l390 180v-45l-350 -160v-5l350 -160v-45z" />
    <glyph glyph-name="equal" unicode="=" horiz-adv-x="470" 
d="M435 436v-36h-400v35zM35 220v35l400 1v-36h-400z" />
    <glyph glyph-name="greater" unicode="&#x3e;" horiz-adv-x="470" 
d="M435 350v-55l-390 -180v45l350 160v5l-350 160v45z" />
    <glyph glyph-name="question" unicode="?" horiz-adv-x="705" 
d="M70 640q30 15 66.5 27.5t78 22t86 15t89.5 5.5q129 0 189.5 -44.5t60.5 -120.5q0 -43 -18 -73q-9 -15 -20 -27.5t-25.5 -24t-32.5 -23t-42 -26.5q-34 -20 -63.5 -40.5t-52 -46t-36 -58t-15.5 -76.5h-20q0 42 8 75t23 61.5t37.5 55t51.5 54.5q18 17 34 34t28.5 36t20 40.5
t7.5 48.5q0 58 -39.5 89t-109.5 31q-53 0 -99 -16t-83.5 -56.5t-65 -110.5t-43.5 -177h-15v325zM262 55q0 28 18.5 46.5t46.5 18.5t46.5 -18.5t18.5 -46.5t-18.5 -46.5t-46.5 -18.5t-46.5 18.5t-18.5 46.5z" />
    <glyph glyph-name="at" unicode="@" horiz-adv-x="886" 
d="M455 610q86 0 155 -25.5t118.5 -71t76 -108t26.5 -135.5q0 -96 -38 -139.5t-113 -43.5h-174v15q22 2 32 8.5t10 27.5l-1 58h-3q-21 -49 -68 -82.5t-117 -33.5q-46 0 -71.5 24.5t-25.5 67.5q0 48 38.5 74.5t108.5 44.5q74 18 104.5 38.5t30.5 55.5q0 21 -17 34t-52 13
q-66 0 -117.5 -42.5t-85.5 -142.5h-10v162q94 55 207 55q75 0 112.5 -32.5t38.5 -101.5l3 -139q1 -38 19.5 -53.5t57.5 -15.5q42 0 66.5 35t24.5 113q0 68 -23.5 124t-67 96t-105.5 62.5t-140 22.5t-142 -25t-110.5 -68.5t-72 -103t-25.5 -128.5t25.5 -128.5t72 -103
t110.5 -68.5t142 -25q144 0 230 73h5v-41q-100 -67 -235 -67q-87 0 -159 27.5t-123.5 75.5t-79.5 114t-28 143t28 143t79.5 114t123.5 75.5t159 27.5zM405 132q26 0 50.5 15.5t44.5 40t32 56t12 64.5v2q-25 -19 -122 -54q-34 -12 -50 -31.5t-16 -42.5q0 -22 14 -36t35 -14z
" />
    <glyph glyph-name="A" unicode="A" horiz-adv-x="770" 
d="M-20 5q13 11 35 42.5t50 83.5l182 339q24 45 36.5 81t12.5 58q0 20 -7 33.5t-26.5 22.5t-54 13.5t-88.5 6.5v15h346v-5q-11 -8 -11 -30q0 -23 16 -66.5t41 -98t56 -114t61.5 -115t57 -101t42.5 -71.5q46 -75 81 -94v-5h-420v15q43 2 75 4.5t55 5.5q45 6 66.5 19.5
t21.5 38.5q0 19 -12 48t-37 74h-234q-95 0 -145 -16t-70 -55q-14 -31 -14 -50q0 -29 30 -46t99 -23v-15h-245v5zM186 227q5 0 39 6.5t105 6.5h120q37 0 52 8t15 28q0 11 -8 28.5t-26 52.5q-2 5 -9.5 17.5t-18.5 34.5l-17 34l-46 90t-49 89h-5q-4 -57 -23.5 -102t-45.5 -95
l-78 -147q-16 -31 -16 -42q0 -9 11 -9z" />
    <glyph glyph-name="B" unicode="B" horiz-adv-x="825" 
d="M199 705q63 2 110.5 3.5t80.5 1.5q325 0 325 -170q0 -121 -179 -171v-5q120 1 179.5 -42t59.5 -122q0 -43 -20.5 -81t-62 -66.5t-104.5 -45.5t-148 -17q-38 0 -76.5 2.5t-74 12.5t-67 28.5t-57.5 51.5h-5l-50 -100h-20q7 29 11.5 76.5t7.5 113.5q2 66 3.5 126.5
t1.5 118.5q0 121 -13 189.5t-31 85.5v5q31 0 63 1.5t66 3.5zM198 320l3 -82q2 -52 15.5 -93t41.5 -68.5t71.5 -42t105.5 -14.5q112 0 169.5 47t57.5 123q0 70 -45.5 106t-149.5 36q-58 0 -141 -6q-78 -6 -128 -6zM198 500l1 -129q30 -11 91 -11q98 0 159.5 12t96 35t47 55.5
t12.5 73.5q0 67 -53 105.5t-167 38.5q-87 0 -126 -15q-19 -8 -31.5 -20t-19 -31.5t-8.5 -47t-2 -66.5z" />
    <glyph glyph-name="C" unicode="C" horiz-adv-x="893" 
d="M495 710q109 0 187.5 -30t120.5 -81l-170 -292h-15q53 136 53 221q0 78 -41 112.5t-111 34.5q-72 0 -134 -27t-107.5 -76.5t-71.5 -118.5t-26 -154q0 -63 19.5 -114t55.5 -86.5t87.5 -54.5t116.5 -19q60 0 110.5 20.5t91 65.5t70.5 115t49 169h15v-335
q-52 -29 -135 -49.5t-185 -20.5q-94 0 -170 27t-129.5 75t-82 114t-28.5 144t29 144t84.5 114t135.5 75t181 27z" />
    <glyph glyph-name="D" unicode="D" horiz-adv-x="910" 
d="M70 700q24 0 56 1t72 3q102 6 197 6q110 0 194 -26.5t141 -74.5t86 -114t29 -145t-27.5 -145t-79.5 -114t-126 -74.5t-167 -26.5q-66 0 -111.5 7t-77.5 20t-53 30t-38 38h-5l-50 -100h-20q7 29 11.5 76.5t7.5 113.5q2 66 3.5 126.5t1.5 118.5q0 121 -13 189.5t-31 85.5v5
zM201 530l1 -209q0 -89 11 -146.5t36 -90.5t65.5 -46t99.5 -13q67 0 125 26t100.5 74.5t66.5 118.5t24 157q0 129 -80.5 201.5t-233.5 72.5q-103 0 -147 -9q-21 -5 -34.5 -14t-21 -24.5t-10 -39t-2.5 -58.5z" />
    <glyph glyph-name="E" unicode="E" horiz-adv-x="763" 
d="M663 700v-295h-15q-8 58 -17.5 100.5t-20.5 69.5t-27.5 44t-40.5 27.5t-57.5 14.5t-80.5 4q-114 0 -215 -9q10 -26 14 -80t4 -142v-36h5q18 18 50 26t87 8h184l-130 -255h-15q39 107 39 159q0 39 -19 54t-55 15q-38 0 -66 -11.5t-46 -39t-27 -75t-9 -119.5q0 -55 15 -81
q7 -12 20.5 -20.5t36 -14t56 -7.5t81.5 -2q89 0 131 19q21 9 37 26t28 45.5t21 70t17 99.5h15v-295h-593v5q11 6 18.5 31t13 60.5t9 76.5t5.5 78.5t3 67t1 41.5q0 152 -14.5 234.5t-35.5 100.5v5h593z" />
    <glyph glyph-name="F" unicode="F" horiz-adv-x="723" 
d="M653 700v-385h-15q-2 22 -5 52t-9 63.5t-14.5 67.5t-22 63.5t-31.5 52t-43 32.5q-47 19 -139 19q-93 0 -185 -9q10 -26 14 -80t4 -142v-36h5q18 18 50.5 26t87.5 8h183l-130 -255h-15q39 107 39 159q0 39 -19 54t-55 15q-32 0 -59 -12t-47 -37.5t-31 -66.5t-11 -99
q0 -71 21 -106q10 -18 28.5 -30t49 -20.5t73.5 -12.5t103 -6v-15h-410v5q11 6 18.5 31t13 60.5t9 76.5t5.5 78.5t3 67t1 41.5q0 152 -14.5 234.5t-35.5 100.5v5h583z" />
    <glyph glyph-name="G" unicode="G" horiz-adv-x="873" 
d="M65 350q0 78 29 144t84.5 114t135.5 75t181 27q109 0 187.5 -30t120.5 -81l-167 -289h159v-5q-11 -18 -19 -57t-8 -97q0 -71 12 -166h-15l-46 103h-5q-34 -45 -87.5 -71.5t-141.5 -26.5q-97 0 -175 27t-132.5 75t-83.5 114t-29 144zM180 299q0 -63 19.5 -114t55.5 -86.5
t87.5 -54.5t116.5 -19q58 0 100.5 11t70.5 29t41.5 41.5t13.5 49.5q0 42 -25 67q-13 13 -38 24t-65.5 20t-97.5 16t-134 12v15h295q50 138 50 221q0 79 -39.5 111.5t-111.5 32.5t-134 -27t-107.5 -76.5t-71.5 -118.5t-26 -154z" />
    <glyph glyph-name="H" unicode="H" horiz-adv-x="885" 
d="M450 700v-15q-57 -2 -97 -4t-65 -4q-49 -6 -67 -20t-18 -45t3 -69q3 -93 3 -105q0 -25 1 -40t4.5 -23t9.5 -10.5t16 -2.5q5 0 21 4q45 14 106 14h220q29 0 47.5 5.5t30 22t16 47t4.5 80.5q0 79 -27.5 112.5t-84.5 37.5v15h237v-5q-18 -17 -29 -98q-5 -41 -8 -107t-3 -160
q0 -147 13 -227t32 -98v-5h-370v15q58 2 98.5 9.5t63.5 18.5q44 22 58 85q12 62 12 217h-272q-60 0 -99 -8t-61.5 -29t-31 -56.5t-8.5 -91.5q0 -65 13 -94q13 -30 39 -39t78 -12v-15h-265v5q11 6 18.5 31t13 60.5t9 76.5t5.5 78.5t3 67t1 41.5q0 152 -14.5 234.5
t-35.5 100.5v5h380z" />
    <glyph glyph-name="I" unicode="I" horiz-adv-x="412" 
d="M15 0v15q44 2 72.5 5.5t45 13t23 27t6.5 46.5l1 165q1 23 1 58v83v62t-1 47q-1 82 -31.5 121t-109.5 42v15h375v-15q-44 -1 -72.5 -5t-45 -13.5t-23 -27t-6.5 -46.5l-1 -165q-1 -23 -1 -58v-83l1 -109q1 -82 31.5 -121t109.5 -42v-15h-375z" />
    <glyph glyph-name="J" unicode="J" horiz-adv-x="720" 
d="M60 110l190 335h15q-76 -180 -76 -285q0 -72 35 -103.5t102 -31.5q102 0 156.5 68t54.5 215q0 256 16 348q-72 9 -147 9q-107 0 -157 -18q-51 -20 -82 -86q-16 -34 -31.5 -90t-30.5 -136h-15v365h580v-5q-18 -17 -29 -90.5t-11 -214.5q0 -110 -19 -186t-58 -123.5
t-97 -69t-136 -21.5q-40 0 -78 9.5t-71 25.5t-61.5 38t-49.5 47z" />
    <glyph glyph-name="K" unicode="K" horiz-adv-x="808" 
d="M255 360q0 10 3.5 18t13 16.5t26 19.5t42.5 27q43 26 84.5 54t81.5 57q76 54 76 88q0 35 -73 45v15h280v-5q-31 -14 -90.5 -52t-140.5 -99q-35 -26 -73.5 -53.5t-82.5 -56.5q-19 -12 -30.5 -20t-18 -14t-8.5 -11t-2 -11q0 -7 4 -15t13 -18t25 -23.5t40 -33.5
q52 -43 105 -82.5t108 -77.5l170 -123v-5h-416v15q64 2 101 4.5t56 6.5t24 10t5 13t-4 14t-13 16t-25 21l-40 30q-5 5 -20 16.5t-40 30.5q-49 37 -106 88q-22 20 -37 33.5t-23 24t-11.5 19t-3.5 18.5zM70 5q11 7 19 32t13.5 60t9 76t5.5 78t2.5 66.5t0.5 42.5
q0 152 -14.5 234.5t-35.5 100.5v5h375v-15q-54 -2 -93 -4t-62 -6q-48 -7 -67.5 -24.5t-19.5 -57.5v-232.5t1 -182.5q1 -85 31.5 -122.5t102.5 -40.5v-15h-268v5z" />
    <glyph glyph-name="L" unicode="L" horiz-adv-x="778" 
d="M70 0q12 20 21.5 55t16 82t9.5 103.5t3 119.5q0 152 -14.5 234.5t-35.5 100.5v5h405v-15q-63 -2 -107 -4t-70 -6q-54 -7 -74.5 -27t-20.5 -65v-345q1 -67 3 -114t4 -74q84 18 170 18q14 0 32.5 -0.5t42.5 -1.5t41.5 -1.5t28.5 -0.5q45 0 76 15t51.5 53.5t31 104.5
t14.5 168h15v-385q-17 -13 -47 -21.5t-70 -8.5q-18 0 -33.5 1t-32 2.5t-35 4.5t-44.5 7q-41 7 -72 11t-68 4q-73 0 -133 -10t-98 -25z" />
    <glyph glyph-name="M" unicode="M" horiz-adv-x="1080" 
d="M395 700v-15q-74 -9 -104 -25t-30 -41q0 -13 7.5 -28.5t24 -38t44 -53t67.5 -73.5q35 -36 70 -74t71 -80l143 144q40 41 69 70.5t46 48.5q35 38 46 56.5t11 35.5q0 12 -9 21.5t-34 16.5t-70 12t-117 8v15h375v-5q-18 -17 -29 -98q-5 -41 -8 -107t-3 -160q0 -147 13 -227
t32 -98v-5h-440v15q129 7 194 24q32 9 52.5 21t32.5 29t17 41t5 55q0 20 1 67.5t3 123.5q2 61 3 107t2 78h-5q-19 -23 -39 -47t-43 -47l-56 -56t-77 -76q-48 -46 -89 -87l-76 -76h-5q-11 20 -25.5 40.5t-34 44.5t-45 52.5t-58.5 64.5q-34 38 -61 68t-48 56t-38 49t-32 46h-5
q18 -88 18 -277v-76q0 -55 7.5 -95.5t27 -68t54.5 -42.5t90 -19v-15h-280v5q60 47 60 345q0 58 -1.5 103t-5.5 77t-10 56t-15.5 43t-22.5 35t-30 31v5h360z" />
    <glyph glyph-name="N" unicode="N" horiz-adv-x="838" 
d="M20 695v5h325v-15q-69 -6 -93 -17t-24 -31q0 -19 27 -51q14 -16 42 -46t71 -75l312 -323h5l-5 372q-1 29 -3.5 53t-11.5 43t-26.5 33t-48.5 22q-26 6 -69 11t-103 9v15h375v-5q-31 -14 -52 -107.5t-21 -274.5v-333h-5l-153 154q-135 137 -232 239t-157 172l-18 20h-5
q16 -60 16 -172v-159q0 -61 8 -102t30 -66t60.5 -36.5t98.5 -14.5v-15h-285v5q22 40 37.5 122.5t15.5 197.5q0 85 -5.5 144.5t-18.5 102t-34.5 71.5t-52.5 52z" />
    <glyph glyph-name="O" unicode="O" horiz-adv-x="950" 
d="M475 710q95 0 170.5 -27t129 -75t82 -114t28.5 -144t-28.5 -144t-82 -114t-129 -75t-170.5 -27q-94 0 -170 27t-129.5 75t-82 114t-28.5 144t28.5 144t82 114t129.5 75t170 27zM180 299q0 -63 19 -113.5t53.5 -86t83 -55t108.5 -19.5q68 0 127.5 27t103.5 76.5
t69.5 118.5t25.5 154q0 63 -19 113.5t-53.5 86t-83 55t-108.5 19.5q-68 0 -127.5 -27t-103.5 -76.5t-69.5 -118.5t-25.5 -154z" />
    <glyph glyph-name="P" unicode="P" horiz-adv-x="790" 
d="M186 700l12 -89h5q34 46 97 72.5t160 26.5q71 0 124.5 -16t89 -44.5t53.5 -67t18 -82.5q0 -52 -22 -97.5t-63.5 -79.5t-102 -53.5t-137.5 -19.5q-33 0 -64.5 4t-59 12t-49.5 19t-34 25h-5q0 -17 1 -22l1 -58l-1 -101q0 -49 27 -70q25 -22 89 -30q31 -4 82.5 -7.5
t124.5 -6.5v-15h-457v5q20 48 34.5 133.5t14.5 199.5q0 72 -1.5 124t-5.5 86q-3 34 -10 58t-19 40t-30 25.5t-43 13.5v15h171zM417 285q50 0 89 14.5t67 41.5t42.5 65t14.5 85q0 41 -14 75t-40.5 58t-64 37.5t-84.5 13.5q-49 0 -89 -14.5t-67.5 -41t-42.5 -64.5t-15 -85
q0 -84 54 -134.5t150 -50.5z" />
    <glyph glyph-name="Q" unicode="Q" horiz-adv-x="960" 
d="M65 350q0 78 28.5 144t82 114t129.5 75t170 27q95 0 170.5 -27t129 -75t82 -114t28.5 -144q0 -93 -41 -170l76 -55v-320h-15q-19 184 -108 309q-55 -60 -136 -92t-186 -32q-94 0 -170 27t-129.5 75t-82 114t-28.5 144zM180 299q0 -51 12 -93h5q26 51 93 82.5t160 31.5
q154 0 293 -76q27 69 27 157q0 63 -19 113.5t-53.5 86t-83 55t-108.5 19.5q-68 0 -127.5 -27t-103.5 -76.5t-69.5 -118.5t-25.5 -154zM444 25q88 0 161 44t116 125q-111 91 -261 91q-43 0 -78 -12t-59.5 -31.5t-38 -45t-13.5 -53.5q0 -54 42.5 -86t130.5 -32z" />
    <glyph glyph-name="R" unicode="R" horiz-adv-x="873" 
d="M186 700l12 -84h5q29 45 84 69.5t148 24.5q63 0 110 -13t78.5 -35.5t47 -52.5t15.5 -64q0 -35 -14 -68t-42.5 -60t-71.5 -46.5t-101 -27.5v-5q38 -5 64.5 -22.5t45 -43t30.5 -57.5t22 -65q8 -26 14 -44t10 -29q8 -23 23 -40t38 -17q22 0 38 36q8 18 15.5 45.5t16 68
t17 95t17.5 125.5h15v-378q-19 -9 -48 -15.5t-62 -6.5q-60 0 -89 14q-16 7 -27.5 16.5t-23 25t-23.5 38.5t-29 56l-26 52q-15 30 -36 52.5t-46 39.5t-53 30.5t-58 25.5q-38 15 -58.5 26t-31.5 26h-5q3 -52 3 -120l-1 -143q0 -47 23 -70q12 -11 29 -18t43.5 -12t65 -8
t92.5 -6v-15h-387v5q20 48 34.5 133.5t14.5 199.5q0 72 -1.5 124t-5.5 86q-3 34 -10 58t-19 40t-30 25.5t-43 13.5v15h171zM215 510q0 -64 46 -104.5t128 -40.5q42 0 76.5 12t59 34t37.5 52.5t13 66.5q0 64 -46 104.5t-128 40.5q-42 0 -76.5 -12t-59 -34t-37.5 -52.5
t-13 -66.5z" />
    <glyph glyph-name="S" unicode="S" horiz-adv-x="765" 
d="M189 330h15q-29 -67 -29 -116q0 -45 19.5 -80t55.5 -59.5t86.5 -37t113.5 -12.5q99 0 142.5 30t43.5 80q0 44 -34 75q-17 16 -37.5 28.5t-46.5 24t-59.5 23.5t-77.5 27q-49 17 -88 31.5t-68 27.5t-54.5 29.5t-44.5 37.5t-30 45.5t-11 54.5q0 78 68 124.5t214 46.5
q58 0 107 -10.5t88 -27.5t69 -40t49 -48l-137 -234q79 -32 123 -74.5t44 -106.5q0 -83 -66 -131t-209 -48q-64 0 -122 7.5t-107.5 21.5t-89 33.5t-66.5 43.5zM190 566q0 -44 33 -76q16 -16 35.5 -28.5t44.5 -24t57 -22.5t72 -25q36 -12 60.5 -21t38.5 -14q27 86 27 146
q0 85 -49 132t-149 47q-88 0 -129 -31t-41 -83z" />
    <glyph glyph-name="T" unicode="T" horiz-adv-x="788" 
d="M50 700h688v-415h-15q-8 87 -16 149.5t-18 102.5t-22 65t-28.5 39.5t-38.5 19.5t-51 5q-55 0 -108 -13l-1 -131q-1 -40 -1 -88.5v-108.5v-138q0 -64 15 -99q15 -34 60.5 -52t140.5 -21v-15h-522v15q51 2 86.5 4t57.5 6q42 7 56 24.5t14 57.5l1 165q1 23 1 58v83
q0 60 -0.5 120t-5.5 120q-46 13 -104 13q-35 0 -58 -8.5t-38.5 -24.5t-25 -40t-17.5 -56q-10 -40 -18.5 -102.5t-16.5 -149.5h-15v415z" />
    <glyph glyph-name="U" unicode="U" horiz-adv-x="830" 
d="M495 700v-15q-69 -2 -117 -4.5t-76 -6.5q-57 -8 -79 -32t-22 -80v-57t-1 -45l-1 -143q0 -156 59.5 -224t185.5 -68q254 0 254 340q0 100 -9 161q-10 61 -38.5 101t-85.5 58v15h220v-5q-10 -9 -16.5 -30.5t-11 -49t-7 -58.5t-3.5 -60t-1.5 -53.5t-0.5 -37.5
q0 -211 -74 -313.5t-231 -102.5q-87 0 -151 22t-106 70t-62.5 124t-20.5 184q0 138 -14.5 213.5t-35.5 91.5v5h445z" />
    <glyph glyph-name="V" unicode="V" horiz-adv-x="810" 
d="M-10 700h496v-15q-63 -1 -109 -3t-76 -5t-49 -6.5t-29.5 -8.5t-14 -11t-3.5 -15q0 -10 11 -28.5t35 -53.5q33 -48 61.5 -95t50 -95t34.5 -98t16 -106h5l101 149q48 70 80.5 122.5t50.5 88.5q36 72 36 106q0 23 -24 37t-92 22v15h260v-5q-19 -17 -59.5 -76t-109.5 -165
q-26 -38 -46 -69l-267 -400h-6q0 99 -25 200.5t-71 195.5t-111 175t-145 139v5z" />
    <glyph glyph-name="W" unicode="W" horiz-adv-x="1180" 
d="M-10 695v5h886v-15q-61 -1 -106 -3t-74 -5t-47.5 -7t-29 -9t-14 -11t-3.5 -14q0 -10 10.5 -28.5t33.5 -55.5q29 -47 54 -91.5t45 -89.5t35.5 -94t25.5 -105h5l94 155q50 84 80 136t46 83.5t20.5 48.5t4.5 31q0 23 -24 37t-92 22v15h260v-5q-12 -11 -33.5 -40t-53.5 -75
q-32 -47 -64 -95.5t-64 -99.5l-247 -400h-6q0 63 -6 115t-19 100.5t-33 97t-48 103.5q-30 -44 -99.5 -147.5t-178.5 -268.5h-6q0 94 -24.5 198t-70 201.5t-111 179.5t-146.5 131zM257 551q30 -46 56.5 -92.5t47.5 -95t34.5 -100t17.5 -108.5h5q63 97 109.5 167t78.5 116
q-29 53 -57.5 95.5t-64 73t-82.5 47t-115 16.5q-44 0 -59.5 -8t-15.5 -25q0 -11 10 -28.5t35 -57.5z" />
    <glyph glyph-name="X" unicode="X" horiz-adv-x="733" 
d="M416 700v-15q-66 -1 -107 -5.5t-63 -10.5t-29.5 -14t-7.5 -17q0 -23 35 -64q17 -21 51 -58.5t86 -92.5l52 -55h5q-3 17 -3 30q0 39 14 69t42 62l29 33q35 40 48 57t13 30q0 18 -18.5 26t-58.5 10v15h220v-5q-46 -35 -102 -87.5t-108 -112.5q-18 -20 -29 -49t-11 -61
q0 -36 18.5 -75.5t51.5 -76.5q72 -81 128 -139.5t101 -88.5v-5h-446v15q59 2 99.5 5.5t66 10t37 17t11.5 26.5q0 33 -62.5 107t-176.5 195h-5q4 -12 4 -29q0 -33 -22.5 -79t-62.5 -100q-28 -37 -41 -60t-13 -40q0 -46 97 -53v-15h-250v5q20 16 46.5 41.5t54 56t54.5 65
t47.5 69t33.5 66.5t13 59q0 28 -13.5 56t-39.5 61q-29 38 -57.5 71.5t-55.5 62t-50.5 49.5t-41.5 33v5h416z" />
    <glyph glyph-name="Y" unicode="Y" horiz-adv-x="735" 
d="M391 700v-15q-72 -4 -113.5 -7.5t-63 -9t-27 -13t-5.5 -19.5q0 -11 13.5 -31.5t41.5 -56.5q25 -33 47 -63.5t41 -61t36 -61.5t32 -66h5q7 39 32 73.5t70 85.5q28 31 47.5 54t32.5 39q25 30 34 48t9 35q0 22 -27.5 34t-100.5 20v15h270v-5q-10 -9 -23 -21t-30 -31
t-40.5 -45.5t-55.5 -64.5l-99 -115q-92 -104 -92 -202q0 -88 61 -139t175 -62v-15h-546v15q63 3 106.5 10t70.5 20t39 33t12 48q0 38 -18 89t-47.5 107t-68 112.5t-80 107t-83 91t-76.5 62.5v5h421z" />
    <glyph glyph-name="Z" unicode="Z" horiz-adv-x="732" 
d="M50 7q112 128 229.5 267t244.5 293l30 36l-5 5q-37 -19 -106 -19q-21 0 -51.5 4t-70.5 12q-27 5 -53.5 9.5t-45.5 4.5q-29 0 -50.5 -10.5t-37 -40t-26.5 -81t-20 -132.5h-15v315q17 17 51.5 28.5t85.5 11.5q18 0 35 -1t35.5 -3t41.5 -5t53 -8q51 -8 91.5 -12.5t71.5 -4.5
q37 0 69.5 10t54.5 24l20 -17q-13 -15 -19 -23t-7 -9q-15 -18 -60 -72.5t-121 -146.5q-76 -93 -150.5 -181t-148.5 -175l5 -5q16 9 30 15t28 9t30.5 4.5t37.5 1.5q35 0 102 -15q28 -6 57.5 -10.5t52.5 -4.5q29 0 50.5 11t37 41t26.5 83.5t20 138.5h15v-325
q-15 -17 -45 -28.5t-72 -11.5q-43 0 -88.5 6t-105.5 18q-29 5 -51 8.5t-40.5 6t-34 4t-30.5 1.5q-40 0 -74.5 -13t-56.5 -31z" />
    <glyph glyph-name="bracketleft" unicode="[" horiz-adv-x="375" 
d="M355 730v-15q-43 -2 -73.5 -5.5t-50 -17.5t-28 -42.5t-8.5 -79.5v-600q0 -48 7 -76t25 -42.5t49 -19.5t79 -7v-15h-235v920h235z" />
    <glyph glyph-name="backslash" unicode="\" horiz-adv-x="285" 
d="M0 730h45l240 -860h-45z" />
    <glyph glyph-name="bracketright" unicode="]" horiz-adv-x="375" 
d="M255 730v-920h-235v15q44 2 74.5 5.5t49.5 17t27.5 42t8.5 80.5v600q0 48 -7 76t-25 42.5t-49 19.5t-79 7v15h235z" />
    <glyph glyph-name="asciicircum" unicode="^" horiz-adv-x="435" 
d="M205 776h25l160 -276h-40l-131 226h-3l-131 -226h-40z" />
    <glyph glyph-name="underscore" unicode="_" horiz-adv-x="450" 
d="M-20 -105v35h510l-20 -35h-490z" />
    <glyph glyph-name="grave" unicode="`" horiz-adv-x="385" 
d="M235 940q10 -29 39.5 -72.5t80.5 -97.5l-10 -10q-38 34 -79 62t-81.5 49.5t-80 36t-74.5 22.5v10h205z" />
    <glyph glyph-name="a" unicode="a" 
d="M65 114q0 63 52 100t148 61q51 12 88 25.5t61 29t35 35t11 44.5q0 29 -27.5 50t-78.5 21q-44 0 -88 -15t-81.5 -47.5t-66.5 -82.5t-43 -119h-10v214q61 36 127.5 58t153.5 22q100 0 151 -49.5t53 -145.5l4 -175q1 -61 13 -94.5t28 -40.5v-5h-240v15q33 2 54.5 5t34 9
t18 15.5t5.5 24.5l-1 41q-1 16 -1.5 28.5t-0.5 20.5v20t1 16h-5q-16 -43 -41.5 -80.5t-59 -65t-74 -43.5t-88.5 -16q-63 0 -97.5 33t-34.5 91zM260 60q45 0 82 27t63.5 66.5t40.5 86t14 85.5v4q-16 -19 -60.5 -44t-117.5 -52q-57 -20 -79.5 -46.5t-22.5 -58.5
q0 -31 21 -49.5t59 -18.5z" />
    <glyph glyph-name="b" unicode="b" horiz-adv-x="665" 
d="M367 700v-15q-45 -3 -76 -6t-50 -5q-37 -5 -55 -16.5t-18 -36.5q0 -16 1 -30t2 -25q2 -20 3.5 -40.5t1.5 -41.5q0 -22 -1.5 -44.5t-5.5 -47.5h5q30 55 83 86.5t128 31.5q48 0 91 -19t75 -51.5t50.5 -76t18.5 -93.5q0 -62 -21 -113.5t-59 -88.5t-91.5 -57.5t-118.5 -20.5
q-59 0 -119 33q-61 33 -88 112h-5l-23 -155h-20q7 79 10.5 148.5t3.5 131.5v200q0 106 -14.5 163.5t-34.5 71.5v5h327zM318 20q38 0 74 20t64.5 57t46 90t17.5 118q0 87 -37 131t-101 44q-37 0 -73.5 -20t-65 -57t-46 -90t-17.5 -118q0 -85 37.5 -130t100.5 -45z" />
    <glyph glyph-name="c" unicode="c" 
d="M340 510q81 0 140 -31t85 -80l-150 -202h-15q46 120 46 190q0 93 -84 93q-41 0 -80 -20t-69.5 -58.5t-49 -93t-18.5 -123.5q0 -79 43.5 -122t119.5 -43q79 0 145 68t102 197h10v-225q-27 -29 -85 -49.5t-145 -20.5q-64 0 -117.5 20t-92 55.5t-59.5 83t-21 101.5
q0 55 21 102.5t60 82.5t93.5 55t120.5 20z" />
    <glyph glyph-name="d" unicode="d" horiz-adv-x="665" 
d="M335 510q43 0 81.5 -14.5t63.5 -37.5h5q0 36 6 90q6 48 6 73t-18 37q-9 6 -21.5 9.5t-33 6.5t-51 5.5t-75.5 5.5v15h327v-5q-20 -14 -34.5 -71.5t-14.5 -163.5v-200q0 -62 3.5 -131.5t10.5 -148.5h-20l-50 155h-5q-30 -66 -88.5 -105.5t-146.5 -39.5q-48 0 -91 19
t-75 51.5t-50.5 76t-18.5 93.5q0 62 21 113.5t59 88.5t91.5 57.5t118.5 20.5zM283 20q38 0 74 20t64.5 57t46 90t17.5 118q0 85 -37.5 130t-100.5 45q-37 0 -73.5 -20t-65 -57t-46 -90t-17.5 -118q0 -87 37 -131t101 -44z" />
    <glyph glyph-name="e" unicode="e" horiz-adv-x="640" 
d="M340 510q66 0 121.5 -28t88.5 -82l14 -27l-403 -270q19 -40 56 -61.5t91 -21.5q81 0 146.5 73.5t100.5 221.5h10v-255q-27 -29 -85 -49.5t-145 -20.5q-64 0 -117.5 20t-92 55.5t-59.5 83t-21 101.5q0 55 21 102.5t60 82.5t93.5 55t120.5 20zM151 133l50 34
q109 72 169.5 133t60.5 115q0 30 -20.5 47.5t-58.5 17.5t-75 -20.5t-66.5 -58.5t-47.5 -92.5t-18 -123.5q0 -28 6 -52z" />
    <glyph glyph-name="f" unicode="f" horiz-adv-x="400" 
d="M10 390v30q49 0 76.5 11.5t27.5 42.5q0 10 -4.5 21.5t-10.5 23.5q-11 23 -17.5 42.5t-6.5 46.5q0 48 34.5 75t106.5 27q57 0 97.5 -10t61.5 -25v-335h-15q-18 175 -62 255t-118 80q-30 0 -47.5 -16.5t-17.5 -43.5q0 -32 18.5 -62t45.5 -55.5t58.5 -45.5t57.5 -32v-25
h-110q4 -40 5.5 -84t1.5 -95q0 -97 10 -133q5 -18 14 -30t26.5 -19.5t45.5 -11.5t70 -7v-15h-318v5q19 11 30.5 27.5t18 44t9 68t2.5 98.5q0 26 -2.5 62.5t-7.5 84.5h-80z" />
    <glyph glyph-name="g" unicode="g" horiz-adv-x="520" 
d="M0 -150v264h10q15 -89 50 -147t81.5 -92t100 -47.5t103.5 -13.5q90 0 90 56q0 33 -23 54t-71 47q-46 27 -68.5 47t-22.5 51q0 26 17.5 45t57.5 44v5q-30 -13 -90 -13q-87 0 -136 48t-49 132q0 38 14.5 70.5t41.5 57t65 38.5t84 14q57 0 95.5 -21t69.5 -54h5
q-23 52 -52.5 85t-66.5 53.5t-81.5 31t-98.5 16.5v10h204q60 -42 95 -113t35 -158q0 -36 -8 -64.5t-22.5 -53t-36 -46t-48.5 -43.5t-38.5 -35t-11.5 -28q0 -19 22 -30t68 -23q23 -7 42.5 -13t34.5 -12q30 -12 51.5 -35t21.5 -58q0 -57 -52.5 -93t-161.5 -36
q-100 0 -180.5 16t-140.5 44zM224 174q29 0 56 17t47.5 45.5t32.5 66t12 77.5q0 51 -24 77t-67 26q-29 0 -56 -17t-47.5 -45.5t-32.5 -66t-12 -77.5q0 -51 24 -77t67 -26z" />
    <glyph glyph-name="h" unicode="h" horiz-adv-x="665" 
d="M40 695v5h330v-15q-46 -3 -77.5 -6t-50.5 -5q-38 -5 -56 -16.5t-18 -36.5q0 -22 1.5 -46t3.5 -50q2 -45 3.5 -76.5t1.5 -48.5q0 -21 -1.5 -51t-3.5 -69h5q17 38 42 78.5t57.5 74.5t72.5 55.5t86 21.5q70 0 103.5 -41.5t35.5 -138.5l4 -190q1 -61 13 -94.5t28 -40.5v-5
h-275v15q69 6 100 31q16 12 26.5 32t17 52.5t9 79t2.5 110.5q0 45 -4.5 75t-14.5 48t-25 25.5t-36 7.5q-52 0 -111 -57q-27 -27 -52.5 -62.5t-44.5 -75t-30.5 -81t-11.5 -80.5q0 -32 5 -52.5t18 -32t35.5 -16t56.5 -4.5v-15h-245v5q23 13 37 105q7 46 10 125.5t3 194.5
q0 121 -14.5 186.5t-35.5 78.5z" />
    <glyph glyph-name="i" unicode="i" horiz-adv-x="305" 
d="M50 0v5q26 14 39 45q6 15 10 37t6.5 54t3.5 76t1 103q0 73 -15 117t-37 58v5h87q0 15 -6 27.5t-19 31.5q-14 21 -22 37.5t-8 38.5q0 26 19.5 43t55.5 17q29 0 47 -16.5t18 -41.5q0 -20 -8 -34t-23 -30q-12 -13 -17.5 -21.5t-5.5 -19.5q0 -9 4 -15t16.5 -9.5t37 -5.5
t66.5 -2v-15q-49 -4 -70 -9t-32 -16t-11 -34l1 -75q3 -67 3 -173q0 -51 4.5 -83t12.5 -50.5t18.5 -27t23.5 -12.5v-5h-200z" />
    <glyph glyph-name="j" unicode="j" horiz-adv-x="334" 
d="M15 160q6 -78 18.5 -140t29.5 -105.5t38 -66.5t45 -23q27 0 38 28.5t11 99.5q0 56 -10.5 131.5t-29 152.5t-44.5 146t-57 112v5h91q0 15 -6 27.5t-19 31.5q-14 21 -22 37.5t-8 38.5q0 26 19.5 43t55.5 17q29 0 47 -16.5t18 -41.5q0 -20 -8 -33.5t-24 -30.5
q-11 -12 -16.5 -20.5t-5.5 -17.5t4 -15.5t17 -11t37.5 -6.5t64.5 -2h30v-15q-23 -3 -40 -5.5t-27 -4.5q-21 -5 -33.5 -18.5t-12.5 -40.5q0 -48 15 -159q6 -39 10 -73.5t7 -67.5t4.5 -66.5t1.5 -69.5q0 -102 -35.5 -146t-109.5 -44q-61 0 -109 15v355h15z" />
    <glyph glyph-name="k" unicode="k" horiz-adv-x="618" 
d="M40 5q25 15 39 50q13 36 17 113q2 40 3 100t1 142q0 128 -15 198.5t-37 86.5v5h330v-15q-93 -4 -131 -9q-37 -5 -52 -15.5t-15 -34.5q0 -5 0.5 -16t1.5 -29q8 -77 9 -238l1 -165q0 -52 4.5 -83.5t15 -49t26.5 -23t40 -7.5v-15h-238v5zM294 337q19 11 34 21.5t28 18.5
q59 41 59 64q0 40 -136 44v15h330v-5q-69 -32 -132 -72.5t-126 -85.5q-15 -10 -24 -17t-14 -11.5t-6.5 -8.5t-1.5 -9q0 -11 8.5 -22t35.5 -40q69 -73 138 -128.5t141 -95.5v-5h-326v15q60 4 80.5 11.5t20.5 22.5q0 8 -12.5 22.5t-42.5 44.5t-53 55t-40 45q-28 34 -28 55
q0 16 15 29.5t52 36.5z" />
    <glyph glyph-name="l" unicode="l" horiz-adv-x="365" 
d="M-15 700h267v-5q-31 -54 -55.5 -124.5t-41.5 -143.5t-26 -142t-9 -120q0 -79 16 -109.5t45 -30.5q92 0 119 335h15v-350q-18 -8 -46 -14t-59 -6q-78 0 -114.5 42.5t-36.5 147.5q0 39 2 74t5.5 69.5t8.5 69.5t11 74q7 42 10.5 70t3.5 44q0 29 -5 47.5t-18 30t-35 17
t-57 9.5v15z" />
    <glyph glyph-name="m" unicode="m" horiz-adv-x="1000" 
d="M50 500h240v-15q-64 -4 -88 -14t-24 -39q0 -13 1 -29.5t2 -25.5q2 -21 3 -39t1 -33h5q15 31 37.5 67t51.5 66.5t63.5 51t73.5 20.5q63 0 95.5 -42t33.5 -138v-25h6q16 30 39.5 66t53 67t64 51.5t73.5 20.5q63 0 95 -42t34 -138l4 -190q1 -61 13 -94.5t28 -40.5v-5h-275
v15q69 6 100 31q16 12 26.5 32t17 52.5t9 79t2.5 110.5q0 87 -17 121.5t-51 34.5q-40 0 -93 -53q-26 -26 -49.5 -59.5t-41 -70.5t-28 -76t-10.5 -77q0 -37 5 -60t17.5 -36t35 -19t57.5 -10v-15h-345v15q69 6 100 31q16 12 26.5 32t17 52.5t9 79t2.5 110.5q0 88 -17.5 122
t-52.5 34q-43 0 -96 -56q-22 -24 -44 -56.5t-40 -69t-29 -74t-11 -70.5q0 -43 5 -69.5t17.5 -41t35 -19.5t57.5 -5v-15h-245v5q50 29 50 315q0 72 -14.5 116t-35.5 59v5z" />
    <glyph glyph-name="n" unicode="n" horiz-adv-x="675" 
d="M100 320q0 72 -14.5 116t-35.5 59v5h250v-15q-36 -2 -59.5 -5t-37.5 -9t-19.5 -15t-5.5 -24q0 -7 0.5 -18.5t1.5 -28.5q5 -52 3 -105h5q17 38 42 78.5t57.5 74.5t72.5 55.5t86 21.5q70 0 103.5 -41.5t35.5 -138.5l4 -190q1 -61 13 -94.5t28 -40.5v-5h-275v15q69 6 100 31
q16 12 26.5 32t17 52.5t9 79t2.5 110.5q0 45 -4.5 75t-14.5 48t-25 25.5t-36 7.5q-52 0 -111 -57q-27 -27 -52.5 -62.5t-44.5 -75t-30.5 -81t-11.5 -80.5q0 -32 5 -52.5t18 -32t35.5 -16t56.5 -4.5v-15h-245v5q50 29 50 315z" />
    <glyph glyph-name="o" unicode="o" horiz-adv-x="670" 
d="M335 510q65 0 118 -20t91.5 -55.5t59.5 -83t21 -101.5t-21 -101.5t-59.5 -83t-91.5 -55.5t-118 -20q-64 0 -117.5 20t-92 55.5t-59.5 83t-21 101.5t21 101.5t59.5 83t92 55.5t117.5 20zM145 190q0 -81 44 -125.5t119 -44.5q41 0 80 20t69.5 57.5t49 91.5t18.5 121
q0 81 -44 125.5t-119 44.5q-41 0 -80 -20t-69.5 -57.5t-49 -91.5t-18.5 -121z" />
    <glyph glyph-name="p" unicode="p" horiz-adv-x="665" 
d="M40 -200v5q20 14 34.5 71.5t14.5 163.5v200q0 62 -3.5 131.5t-10.5 148.5h20l50 -155h5q30 66 88.5 105.5t146.5 39.5q48 0 91 -19t75 -51.5t50.5 -76t18.5 -93.5q0 -62 -21 -113.5t-59 -88.5t-91.5 -57.5t-118.5 -20.5q-43 0 -81.5 14.5t-63.5 37.5h-5q0 -36 -6 -90
q-6 -48 -6 -73t18 -37q9 -6 21.5 -9.5t33 -6.5t51 -5.5t75.5 -5.5v-15h-327zM180 195q0 -85 37.5 -130t100.5 -45q38 0 74 20t64.5 57t46 90t17.5 118q0 87 -37 131t-101 44q-37 0 -73.5 -20t-65 -57t-46 -90t-17.5 -118z" />
    <glyph glyph-name="q" unicode="q" horiz-adv-x="665" 
d="M335 510q59 0 120 -33q60 -33 87 -112h5l23 155h20q-7 -79 -10.5 -148.5t-3.5 -131.5v-200q0 -106 14.5 -163.5t34.5 -71.5v-5h-327v15q45 3 76 6t50 5q37 5 55 16.5t18 36.5q0 16 -1 30t-2 25q-2 20 -3.5 40.5t-1.5 41.5q0 22 1.5 44.5t5.5 47.5h-5q-30 -55 -83 -86.5
t-128 -31.5q-48 0 -91 19t-75 51.5t-50.5 76t-18.5 93.5q0 62 21 113.5t59 88.5t91.5 57.5t118.5 20.5zM145 195q0 -87 37 -131t101 -44q38 0 74 20t64.5 57t46 90t17.5 118q0 85 -37.5 130t-100.5 45q-37 0 -73.5 -20t-65 -57t-46 -90t-17.5 -118z" />
    <glyph glyph-name="r" unicode="r" horiz-adv-x="520" 
d="M100 320q0 72 -14.5 116t-35.5 59v5h250v-15q-36 -2 -59.5 -5t-37.5 -9t-19.5 -15t-5.5 -24q0 -7 0.5 -18.5t1.5 -27.5q4 -55 3 -107h5q14 33 36 73t51 75t64.5 59t76.5 24q33 0 49 -10v-330h-15q-7 75 -13.5 123.5t-15.5 76.5t-21.5 39t-30.5 11q-44 0 -87 -46
q-22 -23 -41 -53t-32.5 -64t-21 -69.5t-7.5 -70.5q0 -43 14 -63q7 -9 18 -15.5t29.5 -10.5t46 -7t67.5 -6v-15h-305v5q50 29 50 315z" />
    <glyph glyph-name="s" unicode="s" horiz-adv-x="560" 
d="M150 231h15q-20 -42 -20 -80q0 -31 14 -56.5t39 -43t60 -27t77 -9.5q73 0 104 20t31 57q0 29 -22 48q-22 20 -56.5 34t-93.5 32q-38 12 -68 23t-53 21q-46 20 -79 54t-33 85q0 54 46.5 87.5t140.5 33.5q76 0 141 -20.5t107 -62.5l-106 -155q61 -24 96 -59.5t35 -93.5
q0 -60 -47.5 -94.5t-147.5 -34.5q-180 0 -290 80zM177 365q22 -22 54.5 -36t87.5 -31l62 -21q27 50 27 91q0 54 -42.5 85.5t-115.5 31.5q-48 0 -71.5 -18t-23.5 -47q0 -33 22 -55z" />
    <glyph glyph-name="t" unicode="t" horiz-adv-x="440" 
d="M15 500q43 8 71.5 20t46.5 33.5t28 54.5t14 82h15q2 -28 3.5 -75.5t1.5 -114.5h170v-30h-170q-1 -65 -8.5 -123.5t-19.5 -127.5q-6 -34 -10.5 -64.5t-4.5 -49.5q0 -40 17 -60t48 -20q35 0 60 22.5t42.5 65.5t28.5 105.5t17 141.5h15v-355q-46 -15 -89 -15q-58 0 -97.5 10
t-63.5 32.5t-34 58.5t-10 89q0 14 3 119q1 28 1.5 46.5t0.5 28.5q0 58 -12 84.5t-47 26.5h-17v15z" />
    <glyph glyph-name="u" unicode="u" horiz-adv-x="660" 
d="M40 495v5h275v-15q-69 -6 -100 -30q-16 -12 -26.5 -32.5t-17 -53t-9 -78.5t-2.5 -111q0 -45 4.5 -75t14.5 -48t25 -25.5t36 -7.5q50 0 107 57q27 27 51 62.5t42.5 75t29 81t10.5 80.5q0 32 -5 52.5t-18 32t-35 16t-57 4.5v15h245v-5q-50 -29 -50 -315q0 -72 14.5 -116
t35.5 -59v-5h-250v15q36 2 59.5 5t37.5 9t19.5 15t5.5 24q0 8 -0.5 19t-1.5 26q-4 51 -3 102h-5q-16 -37 -40 -77t-55 -73t-69.5 -54t-83.5 -21q-70 0 -103.5 41.5t-35.5 138.5l-4 190q-1 61 -13 94.5t-28 40.5z" />
    <glyph glyph-name="v" unicode="v" horiz-adv-x="575" 
d="M-30 500h346v-15q-42 -4 -70.5 -8t-45 -9.5t-23.5 -13t-7 -18.5q0 -9 5.5 -18.5t19.5 -26.5q50 -61 68.5 -124.5t18.5 -143.5h5l90 121q50 68 70 107.5t20 68.5q0 27 -18.5 42t-68.5 23v15h230v-5q-18 -17 -36 -39.5t-40 -51.5q-2 -2 -10 -12.5t-22 -30.5l-284 -376h-6
l1 38q0 148 -60 267.5t-183 204.5v5z" />
    <glyph glyph-name="w" unicode="w" horiz-adv-x="865" 
d="M-30 495v5h646v-15q-42 -4 -70 -8.5t-45 -10t-24 -12.5t-7 -18q0 -9 6.5 -19.5t19.5 -27.5q25 -32 43 -64q17 -31 30 -80.5t12 -115.5h5l84 115q24 33 41 59t27 47t14.5 38t4.5 32q0 27 -18.5 42t-68.5 23v15h230v-5q-11 -11 -21.5 -22t-19.5 -22t-25.5 -33.5
t-41.5 -56.5l-274 -376h-6l1 33q0 166 -62 276l-233 -309h-6q5 168 -53 293.5t-189 216.5zM196 386q13 -18 24 -34.5t20 -32.5q18 -32 31 -81t11 -115h5q61 82 95.5 129.5t50.5 73.5q-42 73 -90 116t-111 43q-39 0 -53 -9t-14 -30q0 -12 7.5 -25.5t23.5 -34.5z" />
    <glyph glyph-name="x" unicode="x" horiz-adv-x="569" 
d="M0 0v5q66 77 138 168q51 65 51 111q0 24 -20.5 56.5t-49 63.5t-59 56t-49.5 35v5h306v-15q-60 -4 -80.5 -11.5t-20.5 -22.5q0 -18 39 -77q38 -61 90 -113h5q0 18 9 44.5t28 54.5q23 34 33.5 54.5t10.5 33.5q0 18 -19 25t-67 12v15h200v-5q-24 -19 -52.5 -48.5t-53 -63.5
t-41.5 -70t-17 -68q0 -43 27 -76q12 -16 33 -40t45 -49t47.5 -45.5t40.5 -29.5v-5h-306v15q62 4 85 12.5t23 28.5q0 29 -38.5 86t-107.5 129h-5q0 -11 -11.5 -36t-36.5 -62q-30 -45 -44 -72t-14 -44q0 -23 23 -30.5t78 -11.5v-15h-220z" />
    <glyph glyph-name="y" unicode="y" horiz-adv-x="590" 
d="M-30 500h346v-15q-40 -4 -65 -8t-38.5 -9.5t-18 -13t-4.5 -18.5q0 -10 10.5 -23.5t35.5 -40.5q27 -29 50.5 -56.5t43 -57t34.5 -62.5t26 -74h5l42 122q14 40 23 69t14.5 50t7.5 36.5t2 28.5q0 24 -22.5 36.5t-81.5 20.5v15h230v-5q-18 -13 -33 -28t-30 -38t-30.5 -58.5
t-34.5 -89.5l-98 -278q-21 -58 -42 -97t-44 -62.5t-48.5 -33.5t-54.5 -10t-55.5 9.5t-44.5 22.5v343h15q8 -92 18 -149.5t24.5 -89.5t35 -43.5t49.5 -11.5q21 0 39.5 9.5t32 27t21 41.5t7.5 53q0 63 -54 156q-27 45 -62.5 91.5t-76 89.5t-85 80.5t-89.5 65.5v5z" />
    <glyph glyph-name="z" unicode="z" horiz-adv-x="587" 
d="M45 7q54 54 110.5 114t117.5 127q42 48 83 91t75 75l-5 5q-22 -7 -55 -7q-36 0 -90 9q-10 1 -34 4t-40 3q-25 0 -44 -11.5t-34 -38.5t-26 -72t-20 -111h-15v295q17 8 47 14t70 6t71.5 -5t74.5 -14q32 -8 54 -11.5t46 -3.5q30 0 55 8.5t41 20.5l10 -12q-38 -41 -77 -82.5
t-78 -86.5q-52 -57 -108 -117.5t-116 -120.5l5 -5q29 12 67 12q32 0 87 -12q7 -1 29 -5t38 -4q25 0 44 11.5t34 38.5t26 72t20 111h15v-295q-17 -8 -47 -14t-70 -6q-36 0 -59.5 4t-53.5 12q-16 5 -30.5 8t-29.5 5.5t-32.5 3.5t-39.5 1q-30 0 -58 -8.5t-48 -20.5z" />
    <glyph glyph-name="braceleft" unicode="{" horiz-adv-x="500" 
d="M20 260v20q60 0 92.5 32.5t32.5 92.5v175q0 78 38.5 114t126.5 36q55 0 110 -15v-270h-15q-10 78 -25.5 126t-35 74.5t-42 35.5t-47.5 9q-65 0 -65 -70q0 -32 8.5 -62t24.5 -74q14 -38 20.5 -62t6.5 -47q0 -88 -111 -102v-6q111 -14 111 -102q0 -23 -6.5 -47t-20.5 -62
q-16 -44 -24.5 -74t-8.5 -62q0 -70 65 -70q25 0 47.5 9t42 35.5t35 74.5t25.5 126h15v-270q-55 -15 -110 -15q-88 0 -126.5 36t-38.5 114v175q0 60 -32.5 92.5t-92.5 32.5z" />
    <glyph glyph-name="bar" unicode="|" horiz-adv-x="280" 
d="M120 730h40v-860h-40v860z" />
    <glyph glyph-name="braceright" unicode="}" horiz-adv-x="500" 
d="M190 730q88 0 126.5 -36t38.5 -114v-175q0 -60 32.5 -92.5t92.5 -32.5v-20q-60 0 -92.5 -32.5t-32.5 -92.5v-175q0 -78 -38.5 -114t-126.5 -36q-54 0 -110 15v270h15q10 -78 25.5 -126t35 -74.5t42 -35.5t47.5 -9q65 0 65 70q0 32 -8.5 62t-24.5 74q-14 38 -20.5 62
t-6.5 47q0 88 111 102v6q-111 14 -111 102q0 23 6.5 47t20.5 62q16 44 24.5 74t8.5 62q0 70 -65 70q-25 0 -47.5 -9t-42 -35.5t-35 -74.5t-25.5 -126h-15v270q56 15 110 15z" />
    <glyph glyph-name="asciitilde" unicode="~" horiz-adv-x="490" 
d="M35 277v43q0 54 27 81.5t78 27.5q45 0 71 -18t52 -53q20 -29 38.5 -43.5t48.5 -14.5t47.5 19.5t17.5 55.5v42h40v-42q0 -54 -27 -82t-78 -28q-23 0 -40 4.5t-31 13.5t-26 22t-25 31q-22 30 -39.5 44t-48.5 14q-30 0 -47.5 -19.5t-17.5 -54.5v-43h-40z" />
    <glyph glyph-name="uni00A0" unicode="&#xa0;" horiz-adv-x="300" 
 />
    <glyph glyph-name="exclamdown" unicode="&#xa1;" horiz-adv-x="300" 
d="M140 350h20q4 -100 11 -182t17.5 -148.5t25.5 -119.5t36 -95v-5h-200v5q21 42 36 95t25.5 119.5t17.5 148.5t11 182zM150 510q28 0 46.5 -18.5t18.5 -46.5t-18.5 -46.5t-46.5 -18.5t-46.5 18.5t-18.5 46.5t18.5 46.5t46.5 18.5z" />
    <glyph glyph-name="cent" unicode="&#xa2;" 
d="M45 350q0 50 18 94t51 78.5t80 57t104 28.5v92h35v-90h7q81 0 140 -31t85 -80l-150 -202h-15q46 120 46 190q0 93 -84 93q-14 0 -29 -3v-455q72 10 130.5 77.5t91.5 185.5h10v-225q-27 -29 -85 -49.5t-145 -20.5h-2v-90h-35v92q-57 5 -103.5 27.5t-80 57t-51.5 79
t-18 94.5zM145 285q0 -76 40.5 -119t112.5 -46v447q-33 -13 -61 -38.5t-48.5 -61.5t-32 -82t-11.5 -100z" />
    <glyph glyph-name="sterling" unicode="&#xa3;" horiz-adv-x="685" 
d="M40 317h119q-5 25 -11.5 54t-16.5 62q-13 46 -19.5 75.5t-6.5 59.5q0 70 42.5 106t138.5 36q45 0 89 -7.5t85.5 -20t78 -30t66.5 -37.5v-335h-15q-9 89 -35.5 162t-68 124.5t-96 80t-120.5 28.5q-63 0 -89 -22.5t-26 -67.5q0 -30 12 -63.5t37 -85.5q2 -4 7.5 -16.5
t13 -29t15.5 -36t14 -37.5h226l-20 -35h-195q12 -51 12 -96q0 -48 -9.5 -83t-22.5 -53q85 -13 187 -21.5t223 -13.5v-15h-585v5q16 9 29 18t23 18q20 18 34 54.5t14 97.5q0 49 -6 89h-124v35z" />
    <glyph glyph-name="currency" unicode="&#xa4;" horiz-adv-x="600" 
d="M81 512l29 29l76 -72q46 31 114 31t114 -31l76 72l29 -29l-73 -70q44 -50 44 -117t-44 -117l73 -70l-29 -29l-76 72q-46 -31 -114 -31t-114 31l-76 -72l-29 29l73 70q-44 50 -44 117t44 117zM149 325q0 -30 11 -56t31 -44.5t48 -29t61 -10.5t61 10.5t48 29t31 44.5t11 56
t-11 56t-31 44.5t-48 29t-61 10.5t-61 -10.5t-48 -29t-31 -44.5t-11 -56z" />
    <glyph glyph-name="yen" unicode="&#xa5;" horiz-adv-x="795" 
d="M0 695v5h421v-15q-72 -4 -113.5 -7.5t-63 -9t-27 -13t-5.5 -19.5q0 -11 13.5 -31.5t41.5 -56.5q25 -33 47 -63.5t41 -61t36 -61.5t32 -66h5q7 39 32 73.5t70 85.5q28 31 47.5 54t32.5 39q25 30 34 48t9 35q0 22 -27.5 34t-100.5 20v15h270v-5q-10 -9 -23 -21t-30 -31
t-40.5 -45.5t-55.5 -64.5l-99 -115q-57 -66 -77 -122h200l-20 -35h-190q-5 -28 -5 -45q0 -21 5 -46h210l-20 -35h-178q24 -51 79.5 -81.5t139.5 -38.5v-15h-546v15q63 3 106.5 10t70.5 20t39 33t12 48v9h-223v35h218q-9 45 -30 91h-188v35h171q-28 57 -69.5 119t-86.5 117
t-88.5 98.5t-76.5 64.5z" />
    <glyph glyph-name="brokenbar" unicode="&#xa6;" horiz-adv-x="280" 
d="M120 -130v370h40v-370h-40zM120 730h40v-360h-40v360z" />
    <glyph glyph-name="section" unicode="&#xa7;" horiz-adv-x="725" 
d="M60 335q0 89 112 108v5q-48 29 -70 60t-22 76q0 57 47.5 91.5t144.5 34.5q41 0 86.5 -6t91.5 -17t89.5 -26t80.5 -34v-230h-10q-12 67 -44.5 119.5t-78.5 89t-102 55.5t-115 19q-54 0 -79.5 -20t-25.5 -52q0 -35 30 -61q15 -13 32.5 -23.5t40.5 -20.5t52 -20.5t67 -22.5
q88 -29 145 -54q27 -12 51.5 -27.5t42.5 -35t28.5 -43t10.5 -50.5q0 -90 -111 -108v-5q46 -29 68.5 -60t22.5 -76q0 -57 -47.5 -91.5t-144.5 -34.5q-41 0 -86.5 6t-91.5 17t-89.5 26t-80.5 34v230h10q12 -67 44.5 -119.5t78.5 -89t102 -55.5t115 -19q54 0 79.5 20t25.5 52
q0 35 -29 61q-15 13 -33 23.5t-41 20.5t-52 20.5t-67 22.5q-88 29 -145 54q-27 12 -51.5 27.5t-42.5 35t-28.5 43t-10.5 50.5zM115 360q0 -25 21 -47.5t70 -44.5q29 -13 71 -30t87 -32.5t88 -26t74 -10.5q40 0 62 15t22 40t-21 47.5t-70 44.5q-28 13 -70.5 30t-87.5 32.5
t-88 26t-74 10.5q-40 0 -62 -15t-22 -40z" />
    <glyph glyph-name="dieresis" unicode="&#xa8;" horiz-adv-x="420" 
d="M10 838q0 25 16.5 42.5t38.5 17.5q16 0 26.5 -6t24.5 -18q16 -15 31.5 -23t42.5 -8q18 0 30.5 7t27.5 21q15 13 27.5 20t29.5 7q28 0 46.5 -19.5t18.5 -50.5q0 -25 -16.5 -42.5t-38.5 -17.5q-16 0 -26.5 6t-24.5 18q-16 15 -31.5 23t-42.5 8q-18 0 -30.5 -7t-27.5 -21
q-15 -13 -27.5 -20t-29.5 -7q-28 0 -46.5 19.5t-18.5 50.5z" />
    <glyph glyph-name="copyright" unicode="&#xa9;" horiz-adv-x="940" 
d="M470 710q87 0 159 -27.5t123.5 -75.5t79.5 -114t28 -143t-28 -143t-79.5 -114t-123.5 -75.5t-159 -27.5t-159 27.5t-123.5 75.5t-79.5 114t-28 143t28 143t79.5 114t123.5 75.5t159 27.5zM470 25q78 0 142 25t110.5 68.5t72 103t25.5 128.5t-25.5 128.5t-72 103
t-110.5 68.5t-142 25t-142 -25t-110.5 -68.5t-72 -103t-25.5 -128.5t25.5 -128.5t72 -103t110.5 -68.5t142 -25zM245 350q0 45 16.5 83.5t46 66.5t71 44t91.5 16q125 0 195 -77v-128h-5q-17 170 -185 170q-91 0 -141 -47t-50 -128t50 -128t141 -47q168 0 185 170h5v-128
q-70 -77 -195 -77q-50 0 -91.5 16t-71 44t-46 66.5t-16.5 83.5z" />
    <glyph glyph-name="ordfeminine" unicode="&#xaa;" horiz-adv-x="380" 
d="M40 461q0 42 34 69.5t92 42.5q33 9 54 16t33 15t17 17t5 21q0 19 -14.5 30.5t-43.5 11.5q-109 0 -167 -154h-10v130q38 22 80.5 36t96.5 14q63 0 95.5 -31t33.5 -91l2 -110q0 -39 8 -59.5t19 -23.5v-5h-132v10q19 5 27.5 21.5t9.5 60.5h-3q-21 -42 -59 -69.5t-89 -27.5
q-43 0 -66 20.5t-23 55.5zM119 477q0 -43 48 -43q18 0 37 11t35 30.5t26 46t10 58.5v2q-22 -12 -76 -30q-80 -26 -80 -75z" />
    <glyph glyph-name="guillemotleft" unicode="&#xab;" horiz-adv-x="495" 
d="M425 470v-30l-75 -50q-40 -27 -66 -46.5t-41.5 -35t-21.5 -28t-6 -25.5t6 -25.5t21.5 -28t41.5 -35t66 -46.5l75 -50v-30l-380 210v10zM298 255q0 16 20.5 35t74.5 53l32 20v-8q-8 -18 -14 -44.5t-6 -55.5t6 -55.5t14 -44.5v-8l-32 20q-54 34 -74.5 53t-20.5 35z" />
    <glyph glyph-name="logicalnot" unicode="&#xac;" horiz-adv-x="470" 
d="M30 345l400 1v-153h-37v117h-363v35z" />
    <glyph glyph-name="uni00AD" unicode="&#xad;" horiz-adv-x="405" 
d="M40 255v40h345l-25 -40h-320z" />
    <glyph glyph-name="registered" unicode="&#xae;" horiz-adv-x="440" 
d="M30 525q0 36 13.5 67t38.5 54t60 36t78 13t78 -13t60 -36t38.5 -54t13.5 -67t-13.5 -67t-38.5 -54t-60 -36t-78 -13t-78 13t-60 36t-38.5 54t-13.5 67zM60 525q0 -31 11.5 -58t32.5 -46t50.5 -30t65.5 -11t65.5 11t50.5 30t32.5 46t11.5 58q0 32 -11.5 58.5t-32.5 45.5
t-50.5 30t-65.5 11t-65.5 -11t-50.5 -30t-32.5 -45.5t-11.5 -58.5zM155 610h83q29 0 44.5 -12.5t15.5 -32.5t-15.5 -32.5t-44.5 -12.5h-10v-2l72 -65v-1h-40l-75 68v-68h-30v158zM185 585v-40h53q28 0 28 20t-28 20h-53z" />
    <glyph glyph-name="macron" unicode="&#xaf;" horiz-adv-x="430" 
d="M400 837v-35h-370v35h370z" />
    <glyph glyph-name="degree" unicode="&#xb0;" horiz-adv-x="380" 
d="M190 765q30 0 56 -10t44.5 -27.5t29 -41.5t10.5 -51t-10.5 -51t-29 -41.5t-44.5 -27.5t-56 -10t-56 10t-44.5 27.5t-29 41.5t-10.5 51t10.5 51t29 41.5t44.5 27.5t56 10zM90 635q0 -42 27.5 -68.5t72.5 -26.5t72.5 26.5t27.5 68.5t-27.5 68.5t-72.5 26.5t-72.5 -26.5
t-27.5 -68.5z" />
    <glyph glyph-name="plusminus" unicode="&#xb1;" horiz-adv-x="470" 
d="M35 310v35h182v188h35v-187h183v-36h-183v-164h183v-36h-400v35h182v165h-182z" />
    <glyph glyph-name="twosuperior" unicode="&#xb2;" horiz-adv-x="345" 
d="M30 455l110 105q27 26 45.5 44t29.5 29q20 21 30 39t10 40q0 23 -17.5 38t-49.5 15q-94 0 -148 -85h-5v56q25 26 65 45t89 19q51 0 78.5 -24t27.5 -61q0 -19 -5.5 -35.5t-17.5 -33.5t-31 -36.5t-46 -45.5l-79 -74v-5h199l-20 -35h-265v5z" />
    <glyph glyph-name="threesuperior" unicode="&#xb3;" horiz-adv-x="345" 
d="M35 555q23 -39 57 -57t83 -18q51 0 75.5 19t24.5 49t-26.5 49t-83.5 19q-49 0 -73 -10l-3 8l137 141v5h-196v35h280v-5l-140 -142q72 0 108.5 -27.5t36.5 -72.5q0 -46 -36 -74.5t-106 -28.5q-48 0 -85 15t-58 36v59h5z" />
    <glyph glyph-name="acute" unicode="&#xb4;" horiz-adv-x="385" 
d="M30 770q51 54 80.5 97.5t39.5 72.5h205v-10q-35 -8 -74.5 -22.5t-80 -36t-81.5 -49.5t-79 -62z" />
    <glyph glyph-name="uni00B5" unicode="&#xb5;" horiz-adv-x="674" 
d="M50 -200v5q20 14 34.5 71.5t14.5 163.5q0 37 -0.5 82.5t-1.5 100.5q-1 48 -1.5 82.5t-0.5 54.5q0 61 -12 94.5t-29 40.5v5h275v-15q-69 -6 -100 -30q-16 -12 -26.5 -32.5t-17 -53t-9 -78.5t-2.5 -111q0 -79 20 -112t60 -33q50 0 107 54q28 26 52 60.5t42 72.5t28.5 78.5
t10.5 79.5q0 32 -5 52.5t-18 32t-35 16t-57 4.5v15h245v-5q-50 -29 -50 -315q0 -72 14.5 -116t35.5 -59v-5h-250v15q36 2 59.5 5t37.5 9t19.5 15t5.5 24q0 8 -0.5 19t-1.5 26q-4 51 -3 102h-5q-16 -37 -40 -77t-55 -73t-69.5 -54t-83.5 -21q-38 0 -58 23h-5l2 -114
q0 -35 19 -51q9 -8 21.5 -13t33 -8.5t51 -6t75.5 -5.5v-15h-327z" />
    <glyph glyph-name="paragraph" unicode="&#xb6;" horiz-adv-x="575" 
d="M25 530q0 36 13.5 67t38.5 54t60 36t78 13h310l-20 -35h-70v-795h-41v795h-139v-795h-40v490q-43 0 -78 13t-60 36t-38.5 54t-13.5 67z" />
    <glyph glyph-name="periodcentered" unicode="&#xb7;" horiz-adv-x="300" 
d="M85 275q0 28 18.5 46.5t46.5 18.5t46.5 -18.5t18.5 -46.5t-18.5 -46.5t-46.5 -18.5t-46.5 18.5t-18.5 46.5z" />
    <glyph glyph-name="cedilla" unicode="&#xb8;" horiz-adv-x="285" 
d="M40 -41q15 -75 49 -111t83 -36q33 0 33 26q0 19 -25 35t-89 34l54 98v3h35v-3l-26 -49q54 -19 77.5 -41t23.5 -54q0 -34 -26 -55t-74 -21q-37 0 -69.5 9.5t-55.5 24.5v140h10z" />
    <glyph glyph-name="onesuperior" unicode="&#xb9;" horiz-adv-x="260" 
d="M35 485h85v235h-60v5l88 75h10v-315h97l-20 -35h-200v35z" />
    <glyph glyph-name="ordmasculine" unicode="&#xba;" horiz-adv-x="410" 
d="M205 710q40 0 73 -12.5t57 -34.5t37 -51.5t13 -63.5t-13 -64t-37 -52t-57 -34.5t-73 -12.5t-73 12.5t-57 34.5t-37 51.5t-13 63.5q0 35 13 64.5t37 51.5t57 34.5t73 12.5zM105 510q0 -51 22.5 -76t62.5 -25q51 0 83 44t32 132q0 51 -22.5 76t-62.5 25q-51 0 -83 -44
t-32 -132z" />
    <glyph glyph-name="guillemotright" unicode="&#xbb;" horiz-adv-x="495" 
d="M70 440v30l380 -210v-10l-380 -210v30l75 50q40 27 66 46.5t41.5 35t21.5 28t6 25.5t-6 25.5t-21.5 28t-41.5 35t-66 46.5zM70 155q8 18 14 44.5t6 55.5t-6 55.5t-14 44.5v8l32 -20q54 -34 74.5 -53t20.5 -35t-20.5 -35t-74.5 -53l-32 -20v8z" />
    <glyph glyph-name="onequarter" unicode="&#xbc;" horiz-adv-x="720" 
d="M35 395h85v235h-60v5l88 75h10v-315h97l-20 -35h-200v35zM585 700l-420 -700h-40l420 700h40zM360 75l190 275h44l-164 -240h150v110h38v-110h67l-20 -35h-47v-75h-38v75h-220z" />
    <glyph glyph-name="onehalf" unicode="&#xbd;" horiz-adv-x="730" 
d="M35 395h85v235h-60v5l88 75h10v-315h97l-20 -35h-200v35zM585 700l-420 -700h-40l420 700h40zM410 5l110 105q27 26 45.5 44t29.5 29q20 21 30 39t10 40q0 23 -17.5 38t-49.5 15q-94 0 -148 -85h-5v56q25 26 65 45t89 19q51 0 78.5 -24t27.5 -61q0 -19 -5.5 -35.5
t-17.5 -33.5t-31 -36.5t-46 -45.5l-79 -74v-5h199l-20 -35h-265v5z" />
    <glyph glyph-name="threequarters" unicode="&#xbe;" horiz-adv-x="800" 
d="M665 700l-420 -700h-40l420 700h40zM440 75l190 275h44l-164 -240h150v110h38v-110h67l-20 -35h-47v-75h-38v75h-220zM55 460q23 -39 57 -57t83 -18q51 0 75.5 19t24.5 49t-26.5 49t-83.5 19q-49 0 -73 -10l-3 8l137 141v5h-196v35h280v-5l-140 -142q72 0 108.5 -27.5
t36.5 -72.5q0 -46 -36 -74.5t-106 -28.5q-48 0 -85 15t-58 36v59h5z" />
    <glyph glyph-name="questiondown" unicode="&#xbf;" horiz-adv-x="640" 
d="M49 29q9 15 20 27t25 23.5t32 23t42 26.5q34 20 63.5 40.5t52 46t36.5 58t15 76.5h20q0 -41 -8 -74t-23 -61.5t-37.5 -55t-51.5 -55.5q-18 -17 -34 -34t-28.5 -35.5t-20 -40.5t-7.5 -49q0 -58 39.5 -89t109.5 -31q53 0 99 16t83.5 56.5t65 110.5t43.5 177h15v-325
q-30 -15 -66.5 -27.5t-78 -22t-86 -15t-89.5 -5.5q-129 0 -189.5 44.5t-60.5 120.5q0 43 19 74zM343 510q28 0 46.5 -18.5t18.5 -46.5t-18.5 -46.5t-46.5 -18.5t-46.5 18.5t-18.5 46.5t18.5 46.5t46.5 18.5z" />
    <glyph glyph-name="Agrave" unicode="&#xc0;" horiz-adv-x="770" 
d="M-20 5q13 11 35 42.5t50 83.5l182 339q24 45 36.5 81t12.5 58q0 20 -7 33.5t-26.5 22.5t-54 13.5t-88.5 6.5v15h346v-5q-11 -8 -11 -30q0 -23 16 -66.5t41 -98t56 -114t61.5 -115t57 -101t42.5 -71.5q46 -75 81 -94v-5h-420v15q43 2 75 4.5t55 5.5q45 6 66.5 19.5
t21.5 38.5q0 19 -12 48t-37 74h-234q-95 0 -145 -16t-70 -55q-14 -31 -14 -50q0 -29 30 -46t99 -23v-15h-245v5zM186 227q5 0 39 6.5t105 6.5h120q37 0 52 8t15 28q0 11 -8 28.5t-26 52.5q-2 5 -9.5 17.5t-18.5 34.5l-17 34l-46 90t-49 89h-5q-4 -57 -23.5 -102t-45.5 -95
l-78 -147q-16 -31 -16 -42q0 -9 11 -9zM260 940q10 -29 39.5 -72.5t80.5 -97.5l-10 -10q-38 34 -79 62t-81.5 49.5t-80 36t-74.5 22.5v10h205z" />
    <glyph glyph-name="Aacute" unicode="&#xc1;" horiz-adv-x="770" 
d="M-20 5q13 11 35 42.5t50 83.5l182 339q24 45 36.5 81t12.5 58q0 20 -7 33.5t-26.5 22.5t-54 13.5t-88.5 6.5v15h346v-5q-11 -8 -11 -30q0 -23 16 -66.5t41 -98t56 -114t61.5 -115t57 -101t42.5 -71.5q46 -75 81 -94v-5h-420v15q43 2 75 4.5t55 5.5q45 6 66.5 19.5
t21.5 38.5q0 19 -12 48t-37 74h-234q-95 0 -145 -16t-70 -55q-14 -31 -14 -50q0 -29 30 -46t99 -23v-15h-245v5zM186 227q5 0 39 6.5t105 6.5h120q37 0 52 8t15 28q0 11 -8 28.5t-26 52.5q-2 5 -9.5 17.5t-18.5 34.5l-17 34l-46 90t-49 89h-5q-4 -57 -23.5 -102t-45.5 -95
l-78 -147q-16 -31 -16 -42q0 -9 11 -9zM300 770q51 54 80.5 97.5t39.5 72.5h205v-10q-35 -8 -74.5 -22.5t-80 -36t-81.5 -49.5t-79 -62z" />
    <glyph glyph-name="Acircumflex" unicode="&#xc2;" horiz-adv-x="770" 
d="M-20 5q13 11 35 42.5t50 83.5l182 339q24 45 36.5 81t12.5 58q0 20 -7 33.5t-26.5 22.5t-54 13.5t-88.5 6.5v15h346v-5q-11 -8 -11 -30q0 -23 16 -66.5t41 -98t56 -114t61.5 -115t57 -101t42.5 -71.5q46 -75 81 -94v-5h-420v15q43 2 75 4.5t55 5.5q45 6 66.5 19.5
t21.5 38.5q0 19 -12 48t-37 74h-234q-95 0 -145 -16t-70 -55q-14 -31 -14 -50q0 -29 30 -46t99 -23v-15h-245v5zM186 227q5 0 39 6.5t105 6.5h120q37 0 52 8t15 28q0 11 -8 28.5t-26 52.5q-2 5 -9.5 17.5t-18.5 34.5l-17 34l-46 90t-49 89h-5q-4 -57 -23.5 -102t-45.5 -95
l-78 -147q-16 -31 -16 -42q0 -9 11 -9zM140 770q51 37 99 79t96 91h20q48 -49 96 -91t99 -79l-10 -10q-57 33 -108 54.5t-87 30.5q-36 -9 -87 -30.5t-108 -54.5z" />
    <glyph glyph-name="Atilde" unicode="&#xc3;" horiz-adv-x="770" 
d="M-20 5q13 11 35 42.5t50 83.5l182 339q24 45 36.5 81t12.5 58q0 20 -7 33.5t-26.5 22.5t-54 13.5t-88.5 6.5v15h346v-5q-11 -8 -11 -30q0 -23 16 -66.5t41 -98t56 -114t61.5 -115t57 -101t42.5 -71.5q46 -75 81 -94v-5h-420v15q43 2 75 4.5t55 5.5q45 6 66.5 19.5
t21.5 38.5q0 19 -12 48t-37 74h-234q-95 0 -145 -16t-70 -55q-14 -31 -14 -50q0 -29 30 -46t99 -23v-15h-245v5zM186 227q5 0 39 6.5t105 6.5h120q37 0 52 8t15 28q0 11 -8 28.5t-26 52.5q-2 5 -9.5 17.5t-18.5 34.5l-17 34l-46 90t-49 89h-5q-4 -57 -23.5 -102t-45.5 -95
l-78 -147q-16 -31 -16 -42q0 -9 11 -9zM175 915q12 8 32.5 13.5t47.5 5.5q33 0 55.5 -6.5t38.5 -18t27.5 -27t21.5 -32.5q13 -22 22.5 -31.5t25.5 -9.5q11 0 19 5.5t14 20t11 40t10 64.5h15v-145q-12 -8 -32.5 -13.5t-47.5 -5.5q-33 0 -55.5 6.5t-38.5 18t-27.5 27
t-21.5 32.5q-13 22 -23 31.5t-25 9.5q-11 0 -19 -5.5t-14 -20t-11 -40t-10 -64.5h-15v145z" />
    <glyph glyph-name="Adieresis" unicode="&#xc4;" horiz-adv-x="770" 
d="M-20 5q13 11 35 42.5t50 83.5l182 339q24 45 36.5 81t12.5 58q0 20 -7 33.5t-26.5 22.5t-54 13.5t-88.5 6.5v15h346v-5q-11 -8 -11 -30q0 -23 16 -66.5t41 -98t56 -114t61.5 -115t57 -101t42.5 -71.5q46 -75 81 -94v-5h-420v15q43 2 75 4.5t55 5.5q45 6 66.5 19.5
t21.5 38.5q0 19 -12 48t-37 74h-234q-95 0 -145 -16t-70 -55q-14 -31 -14 -50q0 -29 30 -46t99 -23v-15h-245v5zM186 227q5 0 39 6.5t105 6.5h120q37 0 52 8t15 28q0 11 -8 28.5t-26 52.5q-2 5 -9.5 17.5t-18.5 34.5l-17 34l-46 90t-49 89h-5q-4 -57 -23.5 -102t-45.5 -95
l-78 -147q-16 -31 -16 -42q0 -9 11 -9zM165 838q0 25 16.5 42.5t38.5 17.5q16 0 26.5 -6t24.5 -18q16 -15 31.5 -23t42.5 -8q18 0 30.5 7t27.5 21q15 13 27.5 20t29.5 7q28 0 46.5 -19.5t18.5 -50.5q0 -25 -16.5 -42.5t-38.5 -17.5q-16 0 -26.5 6t-24.5 18q-16 15 -31.5 23
t-42.5 8q-18 0 -30.5 -7t-27.5 -21q-15 -13 -27.5 -20t-29.5 -7q-28 0 -46.5 19.5t-18.5 50.5z" />
    <glyph glyph-name="Aring" unicode="&#xc5;" horiz-adv-x="770" 
d="M-20 5q13 11 35 42.5t50 83.5l182 339q24 45 36.5 81t12.5 58q0 20 -7 33.5t-26.5 22.5t-54 13.5t-88.5 6.5v15h346v-5q-11 -8 -11 -30q0 -23 16 -66.5t41 -98t56 -114t61.5 -115t57 -101t42.5 -71.5q46 -75 81 -94v-5h-420v15q43 2 75 4.5t55 5.5q45 6 66.5 19.5
t21.5 38.5q0 19 -12 48t-37 74h-234q-95 0 -145 -16t-70 -55q-14 -31 -14 -50q0 -29 30 -46t99 -23v-15h-245v5zM186 227q5 0 39 6.5t105 6.5h120q37 0 52 8t15 28q0 11 -8 28.5t-26 52.5q-2 5 -9.5 17.5t-18.5 34.5l-17 34l-46 90t-49 89h-5q-4 -57 -23.5 -102t-45.5 -95
l-78 -147q-16 -31 -16 -42q0 -9 11 -9zM350 975q27 0 49 -8.5t37.5 -22.5t24.5 -33.5t9 -42.5q0 -22 -9 -42t-25 -34.5t-38 -23t-48 -8.5q-27 0 -49 8.5t-37.5 22.5t-24.5 34t-9 42q0 23 9 42.5t25 34t38 23t48 8.5zM282 826q0 -19 11 -30.5t31 -11.5q18 0 34.5 11.5
t30 29.5t21.5 40t8 44q0 20 -11.5 31t-30.5 11q-18 0 -34.5 -11.5t-30 -29.5t-21.5 -40t-8 -44z" />
    <glyph glyph-name="AE" unicode="&#xc6;" horiz-adv-x="1183" 
d="M55 131l182 339q48 90 48 139q0 20 -7 34t-26 23t-53 13.5t-89 5.5v15h973v-295h-15q-8 64 -17.5 108.5t-20.5 70.5q-22 51 -72 66q-51 15 -174 15q-116 0 -209.5 -2t-166.5 -6q21 -25 59 -95t96 -185h5q28 55 161 55h224l-130 -255h-15q40 108 40 155q0 42 -27 57.5
t-88 15.5q-57 0 -90.5 -22.5t-33.5 -62.5q0 -33 25 -76l67 -115q17 -29 32.5 -47.5t33.5 -29t41 -14t56 -3.5q73 0 110 19q19 9 33 26.5t25 46t20 70t16 98.5h15v-295h-703v15q43 2 75 4.5t55 5.5q45 6 66.5 19.5t21.5 38.5q0 19 -12 48t-37 74h-234q-95 0 -145 -16t-70 -55
q-14 -31 -14 -50q0 -29 30 -46t99 -23v-15h-245v5q13 11 35 42.5t50 83.5zM165 236q0 -9 11 -9q5 0 39 6.5t105 6.5h120q37 0 52 7.5t15 24.5q0 12 -5.5 28.5t-17.5 41.5t-30.5 60t-45.5 83l-75 137h-5q-4 -57 -23.5 -102t-45.5 -95l-78 -147q-16 -31 -16 -42z" />
    <glyph glyph-name="Ccedilla" unicode="&#xc7;" horiz-adv-x="893" 
d="M495 710q109 0 187.5 -30t120.5 -81l-170 -292h-15q53 136 53 221q0 78 -41 112.5t-111 34.5q-72 0 -134 -27t-107.5 -76.5t-71.5 -118.5t-26 -154q0 -63 19.5 -114t55.5 -86.5t87.5 -54.5t116.5 -19q60 0 110.5 20.5t91 65.5t70.5 115t49 169h15v-335
q-52 -29 -135 -49.5t-185 -20.5h-10l-21 -39q54 -19 77.5 -41t23.5 -54q0 -34 -26 -55t-74 -21q-37 0 -69.5 9.5t-55.5 24.5v140h10q15 -75 49 -111t83 -36q33 0 33 26q0 19 -25 35t-89 34l49 90q-84 6 -152 35.5t-115 77t-72.5 110.5t-25.5 135q0 78 29 144t84.5 114
t135.5 75t181 27z" />
    <glyph glyph-name="Egrave" unicode="&#xc8;" horiz-adv-x="763" 
d="M663 700v-295h-15q-8 58 -17.5 100.5t-20.5 69.5t-27.5 44t-40.5 27.5t-57.5 14.5t-80.5 4q-114 0 -215 -9q10 -26 14 -80t4 -142v-36h5q18 18 50 26t87 8h184l-130 -255h-15q39 107 39 159q0 39 -19 54t-55 15q-38 0 -66 -11.5t-46 -39t-27 -75t-9 -119.5q0 -55 15 -81
q7 -12 20.5 -20.5t36 -14t56 -7.5t81.5 -2q89 0 131 19q21 9 37 26t28 45.5t21 70t17 99.5h15v-295h-593v5q11 6 18.5 31t13 60.5t9 76.5t5.5 78.5t3 67t1 41.5q0 152 -14.5 234.5t-35.5 100.5v5h593zM385 940q10 -29 39.5 -72.5t80.5 -97.5l-10 -10q-38 34 -79 62
t-81.5 49.5t-80 36t-74.5 22.5v10h205z" />
    <glyph glyph-name="Eacute" unicode="&#xc9;" horiz-adv-x="763" 
d="M663 700v-295h-15q-8 58 -17.5 100.5t-20.5 69.5t-27.5 44t-40.5 27.5t-57.5 14.5t-80.5 4q-114 0 -215 -9q10 -26 14 -80t4 -142v-36h5q18 18 50 26t87 8h184l-130 -255h-15q39 107 39 159q0 39 -19 54t-55 15q-38 0 -66 -11.5t-46 -39t-27 -75t-9 -119.5q0 -55 15 -81
q7 -12 20.5 -20.5t36 -14t56 -7.5t81.5 -2q89 0 131 19q21 9 37 26t28 45.5t21 70t17 99.5h15v-295h-593v5q11 6 18.5 31t13 60.5t9 76.5t5.5 78.5t3 67t1 41.5q0 152 -14.5 234.5t-35.5 100.5v5h593zM255 770q51 54 80.5 97.5t39.5 72.5h205v-10q-35 -8 -74.5 -22.5
t-80 -36t-81.5 -49.5t-79 -62z" />
    <glyph glyph-name="Ecircumflex" unicode="&#xca;" horiz-adv-x="763" 
d="M663 700v-295h-15q-8 58 -17.5 100.5t-20.5 69.5t-27.5 44t-40.5 27.5t-57.5 14.5t-80.5 4q-114 0 -215 -9q10 -26 14 -80t4 -142v-36h5q18 18 50 26t87 8h184l-130 -255h-15q39 107 39 159q0 39 -19 54t-55 15q-38 0 -66 -11.5t-46 -39t-27 -75t-9 -119.5q0 -55 15 -81
q7 -12 20.5 -20.5t36 -14t56 -7.5t81.5 -2q89 0 131 19q21 9 37 26t28 45.5t21 70t17 99.5h15v-295h-593v5q11 6 18.5 31t13 60.5t9 76.5t5.5 78.5t3 67t1 41.5q0 152 -14.5 234.5t-35.5 100.5v5h593zM175 770q51 37 99 79t96 91h20q48 -49 96 -91t99 -79l-10 -10
q-57 33 -108 54.5t-87 30.5q-36 -9 -87 -30.5t-108 -54.5z" />
    <glyph glyph-name="Edieresis" unicode="&#xcb;" horiz-adv-x="763" 
d="M663 700v-295h-15q-8 58 -17.5 100.5t-20.5 69.5t-27.5 44t-40.5 27.5t-57.5 14.5t-80.5 4q-114 0 -215 -9q10 -26 14 -80t4 -142v-36h5q18 18 50 26t87 8h184l-130 -255h-15q39 107 39 159q0 39 -19 54t-55 15q-38 0 -66 -11.5t-46 -39t-27 -75t-9 -119.5q0 -55 15 -81
q7 -12 20.5 -20.5t36 -14t56 -7.5t81.5 -2q89 0 131 19q21 9 37 26t28 45.5t21 70t17 99.5h15v-295h-593v5q11 6 18.5 31t13 60.5t9 76.5t5.5 78.5t3 67t1 41.5q0 152 -14.5 234.5t-35.5 100.5v5h593zM200 838q0 25 16.5 42.5t38.5 17.5q16 0 26.5 -6t24.5 -18
q16 -15 31.5 -23t42.5 -8q18 0 30.5 7t27.5 21q15 13 27.5 20t29.5 7q28 0 46.5 -19.5t18.5 -50.5q0 -25 -16.5 -42.5t-38.5 -17.5q-16 0 -26.5 6t-24.5 18q-16 15 -31.5 23t-42.5 8q-18 0 -30.5 -7t-27.5 -21q-15 -13 -27.5 -20t-29.5 -7q-28 0 -46.5 19.5t-18.5 50.5z" />
    <glyph glyph-name="Igrave" unicode="&#xcc;" horiz-adv-x="412" 
d="M15 0v15q44 2 72.5 5.5t45 13t23 27t6.5 46.5l1 165q1 23 1 58v83v62t-1 47q-1 82 -31.5 121t-109.5 42v15h375v-15q-44 -1 -72.5 -5t-45 -13.5t-23 -27t-6.5 -46.5l-1 -165q-1 -23 -1 -58v-83l1 -109q1 -82 31.5 -121t109.5 -42v-15h-375zM155 940q10 -29 39.5 -72.5
t80.5 -97.5l-10 -10q-38 34 -79 62t-81.5 49.5t-80 36t-74.5 22.5v10h205z" />
    <glyph glyph-name="Iacute" unicode="&#xcd;" horiz-adv-x="412" 
d="M15 0v15q44 2 72.5 5.5t45 13t23 27t6.5 46.5l1 165q1 23 1 58v83v62t-1 47q-1 82 -31.5 121t-109.5 42v15h375v-15q-44 -1 -72.5 -5t-45 -13.5t-23 -27t-6.5 -46.5l-1 -165q-1 -23 -1 -58v-83l1 -109q1 -82 31.5 -121t109.5 -42v-15h-375zM135 770q51 54 80.5 97.5
t39.5 72.5h205v-10q-35 -8 -74.5 -22.5t-80 -36t-81.5 -49.5t-79 -62z" />
    <glyph glyph-name="Icircumflex" unicode="&#xce;" horiz-adv-x="412" 
d="M15 0v15q44 2 72.5 5.5t45 13t23 27t6.5 46.5l1 165q1 23 1 58v83v62t-1 47q-1 82 -31.5 121t-109.5 42v15h375v-15q-44 -1 -72.5 -5t-45 -13.5t-23 -27t-6.5 -46.5l-1 -165q-1 -23 -1 -58v-83l1 -109q1 -82 31.5 -121t109.5 -42v-15h-375zM0 770q51 37 99 79t96 91h20
q48 -49 96 -91t99 -79l-10 -10q-57 33 -108 54.5t-87 30.5q-36 -9 -87 -30.5t-108 -54.5z" />
    <glyph glyph-name="Idieresis" unicode="&#xcf;" horiz-adv-x="412" 
d="M15 0v15q44 2 72.5 5.5t45 13t23 27t6.5 46.5l1 165q1 23 1 58v83v62t-1 47q-1 82 -31.5 121t-109.5 42v15h375v-15q-44 -1 -72.5 -5t-45 -13.5t-23 -27t-6.5 -46.5l-1 -165q-1 -23 -1 -58v-83l1 -109q1 -82 31.5 -121t109.5 -42v-15h-375zM25 838q0 25 16.5 42.5
t38.5 17.5q16 0 26.5 -6t24.5 -18q16 -15 31.5 -23t42.5 -8q18 0 30.5 7t27.5 21q15 13 27.5 20t29.5 7q28 0 46.5 -19.5t18.5 -50.5q0 -25 -16.5 -42.5t-38.5 -17.5q-16 0 -26.5 6t-24.5 18q-16 15 -31.5 23t-42.5 8q-18 0 -30.5 -7t-27.5 -21q-15 -13 -27.5 -20t-29.5 -7
q-28 0 -46.5 19.5t-18.5 50.5z" />
    <glyph glyph-name="Eth" unicode="&#xd0;" horiz-adv-x="940" 
d="M-20 363v15q48 4 79 17t49 34t25.5 50t7.5 66q0 54 -12 92.5t-29 57.5v5q24 0 56 1t72 3q102 6 197 6q110 0 194 -26.5t141 -74.5t86 -114t29 -145t-27.5 -145t-79.5 -114t-126 -74.5t-167 -26.5q-66 0 -111.5 7t-77.5 20t-53 30t-38 38h-5l-50 -100h-20q18 95 18 189
q0 80 -8 117q-4 18 -14 30t-27 20.5t-43.5 13.5t-65.5 8zM233 255q0 -123 50.5 -176.5t161.5 -53.5q67 0 124.5 26t100 74.5t66.5 118t24 156.5q0 129 -80 202t-234 73q-105 0 -147 -9q-21 -4 -34.5 -12.5t-21 -22.5t-10 -36t-2.5 -55t4 -57t15 -41t31.5 -27.5t54.5 -16.5
q33 -7 90.5 -11.5t141.5 -8.5v-15q-28 -1 -55.5 -4t-50.5 -5.5t-39 -5t-21 -2.5q-75 -12 -116 -12q-25 0 -57 3q2 -17 3 -37.5t1 -44.5z" />
    <glyph glyph-name="Ntilde" unicode="&#xd1;" horiz-adv-x="838" 
d="M20 695v5h325v-15q-69 -6 -93 -17t-24 -31q0 -19 27 -51q14 -16 42 -46t71 -75l312 -323h5l-5 372q-1 29 -3.5 53t-11.5 43t-26.5 33t-48.5 22q-26 6 -69 11t-103 9v15h375v-5q-31 -14 -52 -107.5t-21 -274.5v-333h-5l-153 154q-135 137 -232 239t-157 172l-18 20h-5
q16 -60 16 -172v-159q0 -61 8 -102t30 -66t60.5 -36.5t98.5 -14.5v-15h-285v5q22 40 37.5 122.5t15.5 197.5q0 85 -5.5 144.5t-18.5 102t-34.5 71.5t-52.5 52zM250 915q12 8 32.5 13.5t47.5 5.5q33 0 55.5 -6.5t38.5 -18t27.5 -27t21.5 -32.5q13 -22 22.5 -31.5t25.5 -9.5
q11 0 19 5.5t14 20t11 40t10 64.5h15v-145q-12 -8 -32.5 -13.5t-47.5 -5.5q-33 0 -55.5 6.5t-38.5 18t-27.5 27t-21.5 32.5q-13 22 -23 31.5t-25 9.5q-11 0 -19 -5.5t-14 -20t-11 -40t-10 -64.5h-15v145z" />
    <glyph glyph-name="Ograve" unicode="&#xd2;" horiz-adv-x="950" 
d="M475 710q95 0 170.5 -27t129 -75t82 -114t28.5 -144t-28.5 -144t-82 -114t-129 -75t-170.5 -27q-94 0 -170 27t-129.5 75t-82 114t-28.5 144t28.5 144t82 114t129.5 75t170 27zM180 299q0 -63 19 -113.5t53.5 -86t83 -55t108.5 -19.5q68 0 127.5 27t103.5 76.5
t69.5 118.5t25.5 154q0 63 -19 113.5t-53.5 86t-83 55t-108.5 19.5q-68 0 -127.5 -27t-103.5 -76.5t-69.5 -118.5t-25.5 -154zM460 940q10 -29 39.5 -72.5t80.5 -97.5l-10 -10q-38 34 -79 62t-81.5 49.5t-80 36t-74.5 22.5v10h205z" />
    <glyph glyph-name="Oacute" unicode="&#xd3;" horiz-adv-x="950" 
d="M475 710q95 0 170.5 -27t129 -75t82 -114t28.5 -144t-28.5 -144t-82 -114t-129 -75t-170.5 -27q-94 0 -170 27t-129.5 75t-82 114t-28.5 144t28.5 144t82 114t129.5 75t170 27zM180 299q0 -63 19 -113.5t53.5 -86t83 -55t108.5 -19.5q68 0 127.5 27t103.5 76.5
t69.5 118.5t25.5 154q0 63 -19 113.5t-53.5 86t-83 55t-108.5 19.5q-68 0 -127.5 -27t-103.5 -76.5t-69.5 -118.5t-25.5 -154zM370 770q51 54 80.5 97.5t39.5 72.5h205v-10q-35 -8 -74.5 -22.5t-80 -36t-81.5 -49.5t-79 -62z" />
    <glyph glyph-name="Ocircumflex" unicode="&#xd4;" horiz-adv-x="950" 
d="M475 710q95 0 170.5 -27t129 -75t82 -114t28.5 -144t-28.5 -144t-82 -114t-129 -75t-170.5 -27q-94 0 -170 27t-129.5 75t-82 114t-28.5 144t28.5 144t82 114t129.5 75t170 27zM180 299q0 -63 19 -113.5t53.5 -86t83 -55t108.5 -19.5q68 0 127.5 27t103.5 76.5
t69.5 118.5t25.5 154q0 63 -19 113.5t-53.5 86t-83 55t-108.5 19.5q-68 0 -127.5 -27t-103.5 -76.5t-69.5 -118.5t-25.5 -154zM270 770q51 37 99 79t96 91h20q48 -49 96 -91t99 -79l-10 -10q-57 33 -108 54.5t-87 30.5q-36 -9 -87 -30.5t-108 -54.5z" />
    <glyph glyph-name="Otilde" unicode="&#xd5;" horiz-adv-x="950" 
d="M475 710q95 0 170.5 -27t129 -75t82 -114t28.5 -144t-28.5 -144t-82 -114t-129 -75t-170.5 -27q-94 0 -170 27t-129.5 75t-82 114t-28.5 144t28.5 144t82 114t129.5 75t170 27zM180 299q0 -63 19 -113.5t53.5 -86t83 -55t108.5 -19.5q68 0 127.5 27t103.5 76.5
t69.5 118.5t25.5 154q0 63 -19 113.5t-53.5 86t-83 55t-108.5 19.5q-68 0 -127.5 -27t-103.5 -76.5t-69.5 -118.5t-25.5 -154zM305 915q12 8 32.5 13.5t47.5 5.5q33 0 55.5 -6.5t38.5 -18t27.5 -27t21.5 -32.5q13 -22 22.5 -31.5t25.5 -9.5q11 0 19 5.5t14 20t11 40t10 64.5
h15v-145q-12 -8 -32.5 -13.5t-47.5 -5.5q-33 0 -55.5 6.5t-38.5 18t-27.5 27t-21.5 32.5q-13 22 -23 31.5t-25 9.5q-11 0 -19 -5.5t-14 -20t-11 -40t-10 -64.5h-15v145z" />
    <glyph glyph-name="Odieresis" unicode="&#xd6;" horiz-adv-x="950" 
d="M475 710q95 0 170.5 -27t129 -75t82 -114t28.5 -144t-28.5 -144t-82 -114t-129 -75t-170.5 -27q-94 0 -170 27t-129.5 75t-82 114t-28.5 144t28.5 144t82 114t129.5 75t170 27zM180 299q0 -63 19 -113.5t53.5 -86t83 -55t108.5 -19.5q68 0 127.5 27t103.5 76.5
t69.5 118.5t25.5 154q0 63 -19 113.5t-53.5 86t-83 55t-108.5 19.5q-68 0 -127.5 -27t-103.5 -76.5t-69.5 -118.5t-25.5 -154zM295 838q0 25 16.5 42.5t38.5 17.5q16 0 26.5 -6t24.5 -18q16 -15 31.5 -23t42.5 -8q18 0 30.5 7t27.5 21q15 13 27.5 20t29.5 7q28 0 46.5 -19.5
t18.5 -50.5q0 -25 -16.5 -42.5t-38.5 -17.5q-16 0 -26.5 6t-24.5 18q-16 15 -31.5 23t-42.5 8q-18 0 -30.5 -7t-27.5 -21q-15 -13 -27.5 -20t-29.5 -7q-28 0 -46.5 19.5t-18.5 50.5z" />
    <glyph glyph-name="multiply" unicode="&#xd7;" horiz-adv-x="464" 
d="M60 182l146 146l-146 146l25 25l146 -146l147 147l25 -25l-146 -146l147 -147l-26 -26l-147 147l-146 -146z" />
    <glyph glyph-name="Oslash" unicode="&#xd8;" horiz-adv-x="950" 
d="M475 710q81 0 149.5 -20t120.5 -58q27 28 45 53t31 51.5t22 56.5t17 67h10v-272h-5q-20 10 -48 10q-9 0 -27 -5q48 -48 71.5 -109.5t23.5 -133.5q0 -78 -28.5 -144t-82 -114t-129 -75t-170.5 -27q-84 0 -153 21.5t-123 61.5q-28 -29 -46.5 -54.5t-32 -52t-22.5 -57
t-18 -69.5h-10v272h5q20 -10 48 -10q13 0 34 8q-45 48 -68.5 109t-23.5 131q0 78 28.5 144t82 114t129.5 75t170 27zM240 112q35 -42 86.5 -64.5t117.5 -22.5q68 0 127.5 27t103.5 76.5t69.5 118.5t25.5 154q0 90 -39 157q-26 -20 -62 -52.5t-73 -66.5l-228 -209
q-35 -32 -67 -61t-61 -57zM216 148q39 30 128 113l362 332q-35 40 -86 61t-114 21q-68 0 -127.5 -27t-103.5 -76.5t-69.5 -118.5t-25.5 -154q0 -86 36 -151z" />
    <glyph glyph-name="Ugrave" unicode="&#xd9;" horiz-adv-x="830" 
d="M495 700v-15q-69 -2 -117 -4.5t-76 -6.5q-57 -8 -79 -32t-22 -80v-57t-1 -45l-1 -143q0 -156 59.5 -224t185.5 -68q254 0 254 340q0 100 -9 161q-10 61 -38.5 101t-85.5 58v15h220v-5q-10 -9 -16.5 -30.5t-11 -49t-7 -58.5t-3.5 -60t-1.5 -53.5t-0.5 -37.5
q0 -211 -74 -313.5t-231 -102.5q-87 0 -151 22t-106 70t-62.5 124t-20.5 184q0 138 -14.5 213.5t-35.5 91.5v5h445zM415 940q10 -29 39.5 -72.5t80.5 -97.5l-10 -10q-38 34 -79 62t-81.5 49.5t-80 36t-74.5 22.5v10h205z" />
    <glyph glyph-name="Uacute" unicode="&#xda;" horiz-adv-x="830" 
d="M495 700v-15q-69 -2 -117 -4.5t-76 -6.5q-57 -8 -79 -32t-22 -80v-57t-1 -45l-1 -143q0 -156 59.5 -224t185.5 -68q254 0 254 340q0 100 -9 161q-10 61 -38.5 101t-85.5 58v15h220v-5q-10 -9 -16.5 -30.5t-11 -49t-7 -58.5t-3.5 -60t-1.5 -53.5t-0.5 -37.5
q0 -211 -74 -313.5t-231 -102.5q-87 0 -151 22t-106 70t-62.5 124t-20.5 184q0 138 -14.5 213.5t-35.5 91.5v5h445zM325 770q51 54 80.5 97.5t39.5 72.5h205v-10q-35 -8 -74.5 -22.5t-80 -36t-81.5 -49.5t-79 -62z" />
    <glyph glyph-name="Ucircumflex" unicode="&#xdb;" horiz-adv-x="830" 
d="M495 700v-15q-69 -2 -117 -4.5t-76 -6.5q-57 -8 -79 -32t-22 -80v-57t-1 -45l-1 -143q0 -156 59.5 -224t185.5 -68q254 0 254 340q0 100 -9 161q-10 61 -38.5 101t-85.5 58v15h220v-5q-10 -9 -16.5 -30.5t-11 -49t-7 -58.5t-3.5 -60t-1.5 -53.5t-0.5 -37.5
q0 -211 -74 -313.5t-231 -102.5q-87 0 -151 22t-106 70t-62.5 124t-20.5 184q0 138 -14.5 213.5t-35.5 91.5v5h445zM225 770q51 37 99 79t96 91h20q48 -49 96 -91t99 -79l-10 -10q-57 33 -108 54.5t-87 30.5q-36 -9 -87 -30.5t-108 -54.5z" />
    <glyph glyph-name="Udieresis" unicode="&#xdc;" horiz-adv-x="830" 
d="M495 700v-15q-69 -2 -117 -4.5t-76 -6.5q-57 -8 -79 -32t-22 -80v-57t-1 -45l-1 -143q0 -156 59.5 -224t185.5 -68q254 0 254 340q0 100 -9 161q-10 61 -38.5 101t-85.5 58v15h220v-5q-10 -9 -16.5 -30.5t-11 -49t-7 -58.5t-3.5 -60t-1.5 -53.5t-0.5 -37.5
q0 -211 -74 -313.5t-231 -102.5q-87 0 -151 22t-106 70t-62.5 124t-20.5 184q0 138 -14.5 213.5t-35.5 91.5v5h445zM250 838q0 25 16.5 42.5t38.5 17.5q16 0 26.5 -6t24.5 -18q16 -15 31.5 -23t42.5 -8q18 0 30.5 7t27.5 21q15 13 27.5 20t29.5 7q28 0 46.5 -19.5
t18.5 -50.5q0 -25 -16.5 -42.5t-38.5 -17.5q-16 0 -26.5 6t-24.5 18q-16 15 -31.5 23t-42.5 8q-18 0 -30.5 -7t-27.5 -21q-15 -13 -27.5 -20t-29.5 -7q-28 0 -46.5 19.5t-18.5 50.5z" />
    <glyph glyph-name="Yacute" unicode="&#xdd;" horiz-adv-x="735" 
d="M391 700v-15q-72 -4 -113.5 -7.5t-63 -9t-27 -13t-5.5 -19.5q0 -11 13.5 -31.5t41.5 -56.5q25 -33 47 -63.5t41 -61t36 -61.5t32 -66h5q7 39 32 73.5t70 85.5q28 31 47.5 54t32.5 39q25 30 34 48t9 35q0 22 -27.5 34t-100.5 20v15h270v-5q-10 -9 -23 -21t-30 -31
t-40.5 -45.5t-55.5 -64.5l-99 -115q-92 -104 -92 -202q0 -88 61 -139t175 -62v-15h-546v15q63 3 106.5 10t70.5 20t39 33t12 48q0 38 -18 89t-47.5 107t-68 112.5t-80 107t-83 91t-76.5 62.5v5h421zM280 770q51 54 80.5 97.5t39.5 72.5h205v-10q-35 -8 -74.5 -22.5t-80 -36
t-81.5 -49.5t-79 -62z" />
    <glyph glyph-name="Thorn" unicode="&#xde;" horiz-adv-x="860" 
d="M527 700v-15q-82 -2 -138 -5.5t-87 -7.5t-50 -10.5t-30 -18t-15 -29t-4 -43.5l1 -75h5q39 43 108 68.5t174 25.5q82 0 143 -16.5t101 -45.5t60 -67.5t20 -83.5q0 -53 -22 -98t-67 -78t-114 -52t-162 -19q-166 0 -238 66h-5l-2 -67q0 -28 5.5 -46.5t17.5 -29.5t31 -16.5
t46 -8.5q31 -4 86 -7.5t136 -5.5v-15h-457v5q11 6 18.5 31t13 60.5t9 76.5t5.5 78.5t3 67t1 41.5q0 152 -14.5 234.5t-35.5 100.5v5h457zM458 165q57 0 102 15t76 42t47.5 63.5t16.5 79.5q0 41 -16.5 75.5t-48.5 60t-79 40t-108 14.5q-57 0 -102.5 -15t-76.5 -42
t-47.5 -63.5t-16.5 -79.5q0 -40 16.5 -75t49 -60.5t79.5 -40t108 -14.5z" />
    <glyph glyph-name="germandbls" unicode="&#xdf;" horiz-adv-x="645" 
d="M10 420q48 0 74 11t26 38q0 12 -4.5 26.5t-10.5 29.5q-10 28 -15 45t-5 39q0 46 36 73.5t109 27.5q51 0 90.5 -12.5t67 -33.5t42 -48.5t14.5 -57.5q0 -26 -7 -45t-21 -44q-13 -23 -19.5 -40.5t-6.5 -40.5q0 -31 25.5 -54.5t79.5 -56.5q45 -27 74 -49q27 -21 46.5 -51
t19.5 -68q0 -57 -36 -88t-109 -31q-57 0 -108.5 13.5t-81.5 36.5v205h10q12 -60 32 -103.5t45.5 -71.5t55 -41.5t60.5 -13.5q32 0 49.5 16.5t17.5 46.5q0 40 -32 65.5t-97 56.5q-26 13 -46 24t-36 21q-31 20 -52.5 49.5t-21.5 69.5q0 31 13 52t40 50q26 27 39 48.5t13 50.5
q0 46 -43 78t-127 32q-95 0 -95 -65q0 -19 5 -36t17 -44q17 -39 27.5 -75.5t16.5 -73t8.5 -74.5t2.5 -81q0 -91 9 -135q4 -21 9.5 -34.5t13 -21.5t18.5 -12.5t26 -7.5v-15h-228v5q19 11 30.5 27.5t18 44t9 68t2.5 98.5q0 26 -2.5 62.5t-7.5 84.5h-80v30z" />
    <glyph glyph-name="agrave" unicode="&#xe0;" 
d="M65 114q0 63 52 100t148 61q51 12 88 25.5t61 29t35 35t11 44.5q0 29 -27.5 50t-78.5 21q-44 0 -88 -15t-81.5 -47.5t-66.5 -82.5t-43 -119h-10v214q61 36 127.5 58t153.5 22q100 0 151 -49.5t53 -145.5l4 -175q1 -61 13 -94.5t28 -40.5v-5h-240v15q33 2 54.5 5t34 9
t18 15.5t5.5 24.5l-1 41q-1 16 -1.5 28.5t-0.5 20.5v20t1 16h-5q-16 -43 -41.5 -80.5t-59 -65t-74 -43.5t-88.5 -16q-63 0 -97.5 33t-34.5 91zM260 60q45 0 82 27t63.5 66.5t40.5 86t14 85.5v4q-16 -19 -60.5 -44t-117.5 -52q-57 -20 -79.5 -46.5t-22.5 -58.5
q0 -31 21 -49.5t59 -18.5zM285 740q10 -29 39.5 -72.5t80.5 -97.5l-10 -10q-38 34 -79 62t-81.5 49.5t-80 36t-74.5 22.5v10h205z" />
    <glyph glyph-name="aacute" unicode="&#xe1;" 
d="M65 114q0 63 52 100t148 61q51 12 88 25.5t61 29t35 35t11 44.5q0 29 -27.5 50t-78.5 21q-44 0 -88 -15t-81.5 -47.5t-66.5 -82.5t-43 -119h-10v214q61 36 127.5 58t153.5 22q100 0 151 -49.5t53 -145.5l4 -175q1 -61 13 -94.5t28 -40.5v-5h-240v15q33 2 54.5 5t34 9
t18 15.5t5.5 24.5l-1 41q-1 16 -1.5 28.5t-0.5 20.5v20t1 16h-5q-16 -43 -41.5 -80.5t-59 -65t-74 -43.5t-88.5 -16q-63 0 -97.5 33t-34.5 91zM260 60q45 0 82 27t63.5 66.5t40.5 86t14 85.5v4q-16 -19 -60.5 -44t-117.5 -52q-57 -20 -79.5 -46.5t-22.5 -58.5
q0 -31 21 -49.5t59 -18.5zM200 570q51 54 80.5 97.5t39.5 72.5h205v-10q-35 -8 -74.5 -22.5t-80 -36t-81.5 -49.5t-79 -62z" />
    <glyph glyph-name="acircumflex" unicode="&#xe2;" 
d="M65 114q0 63 52 100t148 61q51 12 88 25.5t61 29t35 35t11 44.5q0 29 -27.5 50t-78.5 21q-44 0 -88 -15t-81.5 -47.5t-66.5 -82.5t-43 -119h-10v214q61 36 127.5 58t153.5 22q100 0 151 -49.5t53 -145.5l4 -175q1 -61 13 -94.5t28 -40.5v-5h-240v15q33 2 54.5 5t34 9
t18 15.5t5.5 24.5l-1 41q-1 16 -1.5 28.5t-0.5 20.5v20t1 16h-5q-16 -43 -41.5 -80.5t-59 -65t-74 -43.5t-88.5 -16q-63 0 -97.5 33t-34.5 91zM260 60q45 0 82 27t63.5 66.5t40.5 86t14 85.5v4q-16 -19 -60.5 -44t-117.5 -52q-57 -20 -79.5 -46.5t-22.5 -58.5
q0 -31 21 -49.5t59 -18.5zM100 570q51 37 99 79t96 91h20q48 -49 96 -91t99 -79l-10 -10q-57 33 -108 54.5t-87 30.5q-36 -9 -87 -30.5t-108 -54.5z" />
    <glyph glyph-name="atilde" unicode="&#xe3;" 
d="M65 114q0 63 52 100t148 61q51 12 88 25.5t61 29t35 35t11 44.5q0 29 -27.5 50t-78.5 21q-44 0 -88 -15t-81.5 -47.5t-66.5 -82.5t-43 -119h-10v214q61 36 127.5 58t153.5 22q100 0 151 -49.5t53 -145.5l4 -175q1 -61 13 -94.5t28 -40.5v-5h-240v15q33 2 54.5 5t34 9
t18 15.5t5.5 24.5l-1 41q-1 16 -1.5 28.5t-0.5 20.5v20t1 16h-5q-16 -43 -41.5 -80.5t-59 -65t-74 -43.5t-88.5 -16q-63 0 -97.5 33t-34.5 91zM260 60q45 0 82 27t63.5 66.5t40.5 86t14 85.5v4q-16 -19 -60.5 -44t-117.5 -52q-57 -20 -79.5 -46.5t-22.5 -58.5
q0 -31 21 -49.5t59 -18.5zM135 715q12 8 32.5 13.5t47.5 5.5q33 0 55.5 -6.5t38.5 -18t27.5 -27t21.5 -32.5q13 -22 22.5 -31.5t25.5 -9.5q11 0 19 5.5t14 20t11 40t10 64.5h15v-145q-12 -8 -32.5 -13.5t-47.5 -5.5q-33 0 -55.5 6.5t-38.5 18t-27.5 27t-21.5 32.5
q-13 22 -23 31.5t-25 9.5q-11 0 -19 -5.5t-14 -20t-11 -40t-10 -64.5h-15v145z" />
    <glyph glyph-name="adieresis" unicode="&#xe4;" 
d="M65 114q0 63 52 100t148 61q51 12 88 25.5t61 29t35 35t11 44.5q0 29 -27.5 50t-78.5 21q-44 0 -88 -15t-81.5 -47.5t-66.5 -82.5t-43 -119h-10v214q61 36 127.5 58t153.5 22q100 0 151 -49.5t53 -145.5l4 -175q1 -61 13 -94.5t28 -40.5v-5h-240v15q33 2 54.5 5t34 9
t18 15.5t5.5 24.5l-1 41q-1 16 -1.5 28.5t-0.5 20.5v20t1 16h-5q-16 -43 -41.5 -80.5t-59 -65t-74 -43.5t-88.5 -16q-63 0 -97.5 33t-34.5 91zM260 60q45 0 82 27t63.5 66.5t40.5 86t14 85.5v4q-16 -19 -60.5 -44t-117.5 -52q-57 -20 -79.5 -46.5t-22.5 -58.5
q0 -31 21 -49.5t59 -18.5zM125 638q0 25 16.5 42.5t38.5 17.5q16 0 26.5 -6t24.5 -18q16 -15 31.5 -23t42.5 -8q18 0 30.5 7t27.5 21q15 13 27.5 20t29.5 7q28 0 46.5 -19.5t18.5 -50.5q0 -25 -16.5 -42.5t-38.5 -17.5q-16 0 -26.5 6t-24.5 18q-16 15 -31.5 23t-42.5 8
q-18 0 -30.5 -7t-27.5 -21q-15 -13 -27.5 -20t-29.5 -7q-28 0 -46.5 19.5t-18.5 50.5z" />
    <glyph glyph-name="aring" unicode="&#xe5;" 
d="M65 114q0 63 52 100t148 61q51 12 88 25.5t61 29t35 35t11 44.5q0 29 -27.5 50t-78.5 21q-44 0 -88 -15t-81.5 -47.5t-66.5 -82.5t-43 -119h-10v214q61 36 127.5 58t153.5 22q100 0 151 -49.5t53 -145.5l4 -175q1 -61 13 -94.5t28 -40.5v-5h-240v15q33 2 54.5 5t34 9
t18 15.5t5.5 24.5l-1 41q-1 16 -1.5 28.5t-0.5 20.5v20t1 16h-5q-16 -43 -41.5 -80.5t-59 -65t-74 -43.5t-88.5 -16q-63 0 -97.5 33t-34.5 91zM260 60q45 0 82 27t63.5 66.5t40.5 86t14 85.5v4q-16 -19 -60.5 -44t-117.5 -52q-57 -20 -79.5 -46.5t-22.5 -58.5
q0 -31 21 -49.5t59 -18.5zM310 775q27 0 49 -8.5t37.5 -22.5t24.5 -33.5t9 -42.5q0 -22 -9 -42t-25 -34.5t-38 -23t-48 -8.5q-27 0 -49 8.5t-37.5 22.5t-24.5 34t-9 42q0 23 9 42.5t25 34t38 23t48 8.5zM242 626q0 -19 11 -30.5t31 -11.5q18 0 34.5 11.5t30 29.5t21.5 40
t8 44q0 20 -11.5 31t-30.5 11q-18 0 -34.5 -11.5t-30 -29.5t-21.5 -40t-8 -44z" />
    <glyph glyph-name="ae" unicode="&#xe6;" horiz-adv-x="1048" 
d="M265 275q51 12 88 25.5t61 29t35 35t11 44.5q0 29 -27.5 50t-78.5 21q-44 0 -88 -15t-81.5 -47.5t-66.5 -82.5t-43 -119h-10v214q61 36 127.5 58t153.5 22q134 0 177 -90h5q75 90 220 90q36 0 70 -8.5t63.5 -26t52.5 -43t38 -59.5l-404 -271q18 -42 56 -62t92 -20
q81 0 146.5 73.5t100.5 221.5h10v-255q-27 -29 -85 -49.5t-145 -20.5q-28 0 -57 4.5t-54.5 14t-46.5 22.5t-35 29h-5q2 -25 10 -60h-200v15q33 2 54.5 5t34 9t18 15.5t5.5 24.5l-1 41q-1 16 -1.5 28.5t-0.5 20.5v20t1 16h-5q-16 -43 -41.5 -80.5t-59 -65t-74 -43.5
t-88.5 -16q-63 0 -97.5 33t-34.5 91q0 63 52 100t148 61zM558 133l51 34q109 72 169.5 133t60.5 115q0 30 -20.5 47.5t-58.5 17.5t-75 -21t-66.5 -59.5t-47.5 -93t-18 -121.5q0 -13 1.5 -25.5t3.5 -26.5zM260 60q45 0 82 27t63.5 66.5t40.5 86t14 85.5v4q-16 -19 -60.5 -44
t-117.5 -52q-57 -20 -79.5 -46.5t-22.5 -58.5q0 -31 21 -49.5t59 -18.5z" />
    <glyph glyph-name="ccedilla" unicode="&#xe7;" 
d="M340 510q81 0 140 -31t85 -80l-150 -202h-15q46 120 46 190q0 93 -84 93q-41 0 -80 -20t-69.5 -58.5t-49 -93t-18.5 -123.5q0 -79 43.5 -122t119.5 -43q79 0 145 68t102 197h10v-225q-26 -29 -83 -49.5t-142 -20.5l-21 -39q54 -19 77.5 -41t23.5 -54q0 -34 -26 -55
t-74 -21q-37 0 -69.5 9.5t-55.5 24.5v140h10q15 -75 49 -111t83 -36q33 0 33 26q0 19 -25 35t-89 34l49 89q-58 4 -106 26t-82.5 56.5t-53 80t-18.5 96.5q0 55 21 102.5t60 82.5t93.5 55t120.5 20z" />
    <glyph glyph-name="egrave" unicode="&#xe8;" horiz-adv-x="640" 
d="M340 510q66 0 121.5 -28t88.5 -82l14 -27l-403 -270q19 -40 56 -61.5t91 -21.5q81 0 146.5 73.5t100.5 221.5h10v-255q-27 -29 -85 -49.5t-145 -20.5q-64 0 -117.5 20t-92 55.5t-59.5 83t-21 101.5q0 55 21 102.5t60 82.5t93.5 55t120.5 20zM151 133l50 34
q109 72 169.5 133t60.5 115q0 30 -20.5 47.5t-58.5 17.5t-75 -20.5t-66.5 -58.5t-47.5 -92.5t-18 -123.5q0 -28 6 -52zM295 740q10 -29 39.5 -72.5t80.5 -97.5l-10 -10q-38 34 -79 62t-81.5 49.5t-80 36t-74.5 22.5v10h205z" />
    <glyph glyph-name="eacute" unicode="&#xe9;" horiz-adv-x="640" 
d="M340 510q66 0 121.5 -28t88.5 -82l14 -27l-403 -270q19 -40 56 -61.5t91 -21.5q81 0 146.5 73.5t100.5 221.5h10v-255q-27 -29 -85 -49.5t-145 -20.5q-64 0 -117.5 20t-92 55.5t-59.5 83t-21 101.5q0 55 21 102.5t60 82.5t93.5 55t120.5 20zM151 133l50 34
q109 72 169.5 133t60.5 115q0 30 -20.5 47.5t-58.5 17.5t-75 -20.5t-66.5 -58.5t-47.5 -92.5t-18 -123.5q0 -28 6 -52zM205 570q51 54 80.5 97.5t39.5 72.5h205v-10q-35 -8 -74.5 -22.5t-80 -36t-81.5 -49.5t-79 -62z" />
    <glyph glyph-name="ecircumflex" unicode="&#xea;" horiz-adv-x="640" 
d="M340 510q66 0 121.5 -28t88.5 -82l14 -27l-403 -270q19 -40 56 -61.5t91 -21.5q81 0 146.5 73.5t100.5 221.5h10v-255q-27 -29 -85 -49.5t-145 -20.5q-64 0 -117.5 20t-92 55.5t-59.5 83t-21 101.5q0 55 21 102.5t60 82.5t93.5 55t120.5 20zM151 133l50 34
q109 72 169.5 133t60.5 115q0 30 -20.5 47.5t-58.5 17.5t-75 -20.5t-66.5 -58.5t-47.5 -92.5t-18 -123.5q0 -28 6 -52zM100 570q51 37 99 79t96 91h20q48 -49 96 -91t99 -79l-10 -10q-57 33 -108 54.5t-87 30.5q-36 -9 -87 -30.5t-108 -54.5z" />
    <glyph glyph-name="edieresis" unicode="&#xeb;" horiz-adv-x="640" 
d="M340 510q66 0 121.5 -28t88.5 -82l14 -27l-403 -270q19 -40 56 -61.5t91 -21.5q81 0 146.5 73.5t100.5 221.5h10v-255q-27 -29 -85 -49.5t-145 -20.5q-64 0 -117.5 20t-92 55.5t-59.5 83t-21 101.5q0 55 21 102.5t60 82.5t93.5 55t120.5 20zM151 133l50 34
q109 72 169.5 133t60.5 115q0 30 -20.5 47.5t-58.5 17.5t-75 -20.5t-66.5 -58.5t-47.5 -92.5t-18 -123.5q0 -28 6 -52zM125 638q0 25 16.5 42.5t38.5 17.5q16 0 26.5 -6t24.5 -18q16 -15 31.5 -23t42.5 -8q18 0 30.5 7t27.5 21q15 13 27.5 20t29.5 7q28 0 46.5 -19.5
t18.5 -50.5q0 -25 -16.5 -42.5t-38.5 -17.5q-16 0 -26.5 6t-24.5 18q-16 15 -31.5 23t-42.5 8q-18 0 -30.5 -7t-27.5 -21q-15 -13 -27.5 -20t-29.5 -7q-28 0 -46.5 19.5t-18.5 50.5z" />
    <glyph glyph-name="igrave" unicode="&#xec;" horiz-adv-x="305" 
d="M50 0v5q26 14 39 45q6 15 10 37t6.5 54t3.5 76t1 103q0 73 -15 117t-37 58v5h242v-15q-49 -4 -70 -9t-32 -16t-11 -34l1 -75q3 -67 3 -173q0 -51 4.5 -83t12.5 -50.5t18.5 -27t23.5 -12.5v-5h-200zM85 740q10 -29 39.5 -72.5t80.5 -97.5l-10 -10q-38 34 -79 62
t-81.5 49.5t-80 36t-74.5 22.5v10h205z" />
    <glyph glyph-name="iacute" unicode="&#xed;" horiz-adv-x="305" 
d="M50 0v5q26 14 39 45q6 15 10 37t6.5 54t3.5 76t1 103q0 73 -15 117t-37 58v5h242v-15q-49 -4 -70 -9t-32 -16t-11 -34l1 -75q3 -67 3 -173q0 -51 4.5 -83t12.5 -50.5t18.5 -27t23.5 -12.5v-5h-200zM105 570q51 54 80.5 97.5t39.5 72.5h205v-10q-35 -8 -74.5 -22.5
t-80 -36t-81.5 -49.5t-79 -62z" />
    <glyph glyph-name="icircumflex" unicode="&#xee;" horiz-adv-x="305" 
d="M50 0v5q26 14 39 45q6 15 10 37t6.5 54t3.5 76t1 103q0 73 -15 117t-37 58v5h242v-15q-49 -4 -70 -9t-32 -16t-11 -34l1 -75q3 -67 3 -173q0 -51 4.5 -83t12.5 -50.5t18.5 -27t23.5 -12.5v-5h-200zM-48 570q51 37 99 79t96 91h20q48 -49 96 -91t99 -79l-10 -10
q-57 33 -108 54.5t-87 30.5q-36 -9 -87 -30.5t-108 -54.5z" />
    <glyph glyph-name="idieresis" unicode="&#xef;" horiz-adv-x="305" 
d="M50 0v5q26 14 39 45q6 15 10 37t6.5 54t3.5 76t1 103q0 73 -15 117t-37 58v5h242v-15q-49 -4 -70 -9t-32 -16t-11 -34l1 -75q3 -67 3 -173q0 -51 4.5 -83t12.5 -50.5t18.5 -27t23.5 -12.5v-5h-200zM-23 638q0 25 16.5 42.5t38.5 17.5q16 0 26.5 -6t24.5 -18
q16 -15 31.5 -23t42.5 -8q18 0 30.5 7t27.5 21q15 13 27.5 20t29.5 7q28 0 46.5 -19.5t18.5 -50.5q0 -25 -16.5 -42.5t-38.5 -17.5q-16 0 -26.5 6t-24.5 18q-16 15 -31.5 23t-42.5 8q-18 0 -30.5 -7t-27.5 -21q-15 -13 -27.5 -20t-29.5 -7q-28 0 -46.5 19.5t-18.5 50.5z" />
    <glyph glyph-name="eth" unicode="&#xf0;" horiz-adv-x="670" 
d="M45 240q0 55 20 101t57.5 79t91 51.5t121.5 18.5q119 0 189 -61h5q-2 56 -19 100.5t-42 75.5t-53.5 48t-54.5 17q-27 0 -50 -21q-7 -7 -14 -16.5t-15 -24t-19 -35.5t-27 -53h-20l21 53q14 33 21 52.5t7 30.5q0 14 -12 14q-37 0 -85.5 -58t-96.5 -182h-15l60 248
q34 10 66 17t62 11q23 3 38.5 9t26.5 16.5t20.5 25.5t20.5 35q7 14 10 18h20q-3 -6 -7.5 -16t-8.5 -20.5t-7 -20t-3 -15.5q0 -28 33 -33q239 -36 239 -375q0 -166 -79.5 -253t-220.5 -87q-64 0 -116 18.5t-88.5 51.5t-56 79t-19.5 101zM308 20q41 0 80 20t69.5 56.5t49 88.5
t18.5 115q0 73 -44 116.5t-119 43.5q-41 0 -80 -20t-69.5 -56.5t-49 -88.5t-18.5 -115q0 -73 44 -116.5t119 -43.5z" />
    <glyph glyph-name="ntilde" unicode="&#xf1;" horiz-adv-x="675" 
d="M100 320q0 72 -14.5 116t-35.5 59v5h250v-15q-36 -2 -59.5 -5t-37.5 -9t-19.5 -15t-5.5 -24q0 -7 0.5 -18.5t1.5 -28.5q5 -52 3 -105h5q17 38 42 78.5t57.5 74.5t72.5 55.5t86 21.5q70 0 103.5 -41.5t35.5 -138.5l4 -190q1 -61 13 -94.5t28 -40.5v-5h-275v15q69 6 100 31
q16 12 26.5 32t17 52.5t9 79t2.5 110.5q0 45 -4.5 75t-14.5 48t-25 25.5t-36 7.5q-52 0 -111 -57q-27 -27 -52.5 -62.5t-44.5 -75t-30.5 -81t-11.5 -80.5q0 -32 5 -52.5t18 -32t35.5 -16t56.5 -4.5v-15h-245v5q50 29 50 315zM155 715q12 8 32.5 13.5t47.5 5.5
q33 0 55.5 -6.5t38.5 -18t27.5 -27t21.5 -32.5q13 -22 22.5 -31.5t25.5 -9.5q11 0 19 5.5t14 20t11 40t10 64.5h15v-145q-12 -8 -32.5 -13.5t-47.5 -5.5q-33 0 -55.5 6.5t-38.5 18t-27.5 27t-21.5 32.5q-13 22 -23 31.5t-25 9.5q-11 0 -19 -5.5t-14 -20t-11 -40t-10 -64.5
h-15v145z" />
    <glyph glyph-name="ograve" unicode="&#xf2;" horiz-adv-x="670" 
d="M335 510q65 0 118 -20t91.5 -55.5t59.5 -83t21 -101.5t-21 -101.5t-59.5 -83t-91.5 -55.5t-118 -20q-64 0 -117.5 20t-92 55.5t-59.5 83t-21 101.5t21 101.5t59.5 83t92 55.5t117.5 20zM145 190q0 -81 44 -125.5t119 -44.5q41 0 80 20t69.5 57.5t49 91.5t18.5 121
q0 81 -44 125.5t-119 44.5q-41 0 -80 -20t-69.5 -57.5t-49 -91.5t-18.5 -121zM320 740q10 -29 39.5 -72.5t80.5 -97.5l-10 -10q-38 34 -79 62t-81.5 49.5t-80 36t-74.5 22.5v10h205z" />
    <glyph glyph-name="oacute" unicode="&#xf3;" horiz-adv-x="670" 
d="M335 510q65 0 118 -20t91.5 -55.5t59.5 -83t21 -101.5t-21 -101.5t-59.5 -83t-91.5 -55.5t-118 -20q-64 0 -117.5 20t-92 55.5t-59.5 83t-21 101.5t21 101.5t59.5 83t92 55.5t117.5 20zM145 190q0 -81 44 -125.5t119 -44.5q41 0 80 20t69.5 57.5t49 91.5t18.5 121
q0 81 -44 125.5t-119 44.5q-41 0 -80 -20t-69.5 -57.5t-49 -91.5t-18.5 -121zM210 570q51 54 80.5 97.5t39.5 72.5h205v-10q-35 -8 -74.5 -22.5t-80 -36t-81.5 -49.5t-79 -62z" />
    <glyph glyph-name="ocircumflex" unicode="&#xf4;" horiz-adv-x="670" 
d="M335 510q65 0 118 -20t91.5 -55.5t59.5 -83t21 -101.5t-21 -101.5t-59.5 -83t-91.5 -55.5t-118 -20q-64 0 -117.5 20t-92 55.5t-59.5 83t-21 101.5t21 101.5t59.5 83t92 55.5t117.5 20zM145 190q0 -81 44 -125.5t119 -44.5q41 0 80 20t69.5 57.5t49 91.5t18.5 121
q0 81 -44 125.5t-119 44.5q-41 0 -80 -20t-69.5 -57.5t-49 -91.5t-18.5 -121zM130 570q51 37 99 79t96 91h20q48 -49 96 -91t99 -79l-10 -10q-57 33 -108 54.5t-87 30.5q-36 -9 -87 -30.5t-108 -54.5z" />
    <glyph glyph-name="otilde" unicode="&#xf5;" horiz-adv-x="670" 
d="M335 510q65 0 118 -20t91.5 -55.5t59.5 -83t21 -101.5t-21 -101.5t-59.5 -83t-91.5 -55.5t-118 -20q-64 0 -117.5 20t-92 55.5t-59.5 83t-21 101.5t21 101.5t59.5 83t92 55.5t117.5 20zM145 190q0 -81 44 -125.5t119 -44.5q41 0 80 20t69.5 57.5t49 91.5t18.5 121
q0 81 -44 125.5t-119 44.5q-41 0 -80 -20t-69.5 -57.5t-49 -91.5t-18.5 -121zM165 715q12 8 32.5 13.5t47.5 5.5q33 0 55.5 -6.5t38.5 -18t27.5 -27t21.5 -32.5q13 -22 22.5 -31.5t25.5 -9.5q11 0 19 5.5t14 20t11 40t10 64.5h15v-145q-12 -8 -32.5 -13.5t-47.5 -5.5
q-33 0 -55.5 6.5t-38.5 18t-27.5 27t-21.5 32.5q-13 22 -23 31.5t-25 9.5q-11 0 -19 -5.5t-14 -20t-11 -40t-10 -64.5h-15v145z" />
    <glyph glyph-name="odieresis" unicode="&#xf6;" horiz-adv-x="670" 
d="M335 510q65 0 118 -20t91.5 -55.5t59.5 -83t21 -101.5t-21 -101.5t-59.5 -83t-91.5 -55.5t-118 -20q-64 0 -117.5 20t-92 55.5t-59.5 83t-21 101.5t21 101.5t59.5 83t92 55.5t117.5 20zM145 190q0 -81 44 -125.5t119 -44.5q41 0 80 20t69.5 57.5t49 91.5t18.5 121
q0 81 -44 125.5t-119 44.5q-41 0 -80 -20t-69.5 -57.5t-49 -91.5t-18.5 -121zM155 638q0 25 16.5 42.5t38.5 17.5q16 0 26.5 -6t24.5 -18q16 -15 31.5 -23t42.5 -8q18 0 30.5 7t27.5 21q15 13 27.5 20t29.5 7q28 0 46.5 -19.5t18.5 -50.5q0 -25 -16.5 -42.5t-38.5 -17.5
q-16 0 -26.5 6t-24.5 18q-16 15 -31.5 23t-42.5 8q-18 0 -30.5 -7t-27.5 -21q-15 -13 -27.5 -20t-29.5 -7q-28 0 -46.5 19.5t-18.5 50.5z" />
    <glyph glyph-name="divide" unicode="&#xf7;" horiz-adv-x="470" 
d="M30 311v35h410v-36zM235 555q21 0 35.5 -14.5t14.5 -35.5t-14.5 -35.5t-35.5 -14.5t-35.5 14.5t-14.5 35.5t14.5 35.5t35.5 14.5zM185 151q0 21 14.5 35.5t35.5 14.5t35.5 -14.5t14.5 -35.5t-14.5 -35.5t-35.5 -14.5t-35.5 14.5t-14.5 35.5z" />
    <glyph glyph-name="oslash" unicode="&#xf8;" horiz-adv-x="670" 
d="M45 250q0 54 21 101.5t59.5 83t92 55.5t117.5 20q109 0 186 -56q40 44 58 87q17 42 36 129h10v-232q-38 0 -66 -16q66 -72 66 -172q0 -54 -21 -101.5t-59.5 -83t-91.5 -55.5t-118 -20q-109 0 -186 56q-23 -25 -38 -49.5t-25 -51t-17 -54.5t-14 -61h-10v232q38 0 66 16
q-66 72 -66 172zM308 20q41 0 80 20t69.5 57.5t49 91.5t18.5 121q0 42 -14 78q-19 -16 -31 -27t-19 -17l-228 -214l-55 -53q45 -57 130 -57zM159 112q19 16 31 27t19 17l228 214l55 53q-45 57 -130 57q-41 0 -80 -20t-69.5 -57.5t-49 -91.5t-18.5 -121q0 -42 14 -78z" />
    <glyph glyph-name="ugrave" unicode="&#xf9;" horiz-adv-x="660" 
d="M40 495v5h275v-15q-69 -6 -100 -30q-16 -12 -26.5 -32.5t-17 -53t-9 -78.5t-2.5 -111q0 -45 4.5 -75t14.5 -48t25 -25.5t36 -7.5q50 0 107 57q27 27 51 62.5t42.5 75t29 81t10.5 80.5q0 32 -5 52.5t-18 32t-35 16t-57 4.5v15h245v-5q-50 -29 -50 -315q0 -72 14.5 -116
t35.5 -59v-5h-250v15q36 2 59.5 5t37.5 9t19.5 15t5.5 24q0 8 -0.5 19t-1.5 26q-4 51 -3 102h-5q-16 -37 -40 -77t-55 -73t-69.5 -54t-83.5 -21q-70 0 -103.5 41.5t-35.5 138.5l-4 190q-1 61 -13 94.5t-28 40.5zM295 740q10 -29 39.5 -72.5t80.5 -97.5l-10 -10
q-38 34 -79 62t-81.5 49.5t-80 36t-74.5 22.5v10h205z" />
    <glyph glyph-name="uacute" unicode="&#xfa;" horiz-adv-x="660" 
d="M40 495v5h275v-15q-69 -6 -100 -30q-16 -12 -26.5 -32.5t-17 -53t-9 -78.5t-2.5 -111q0 -45 4.5 -75t14.5 -48t25 -25.5t36 -7.5q50 0 107 57q27 27 51 62.5t42.5 75t29 81t10.5 80.5q0 32 -5 52.5t-18 32t-35 16t-57 4.5v15h245v-5q-50 -29 -50 -315q0 -72 14.5 -116
t35.5 -59v-5h-250v15q36 2 59.5 5t37.5 9t19.5 15t5.5 24q0 8 -0.5 19t-1.5 26q-4 51 -3 102h-5q-16 -37 -40 -77t-55 -73t-69.5 -54t-83.5 -21q-70 0 -103.5 41.5t-35.5 138.5l-4 190q-1 61 -13 94.5t-28 40.5zM245 570q51 54 80.5 97.5t39.5 72.5h205v-10
q-35 -8 -74.5 -22.5t-80 -36t-81.5 -49.5t-79 -62z" />
    <glyph glyph-name="ucircumflex" unicode="&#xfb;" horiz-adv-x="660" 
d="M40 495v5h275v-15q-69 -6 -100 -30q-16 -12 -26.5 -32.5t-17 -53t-9 -78.5t-2.5 -111q0 -45 4.5 -75t14.5 -48t25 -25.5t36 -7.5q50 0 107 57q27 27 51 62.5t42.5 75t29 81t10.5 80.5q0 32 -5 52.5t-18 32t-35 16t-57 4.5v15h245v-5q-50 -29 -50 -315q0 -72 14.5 -116
t35.5 -59v-5h-250v15q36 2 59.5 5t37.5 9t19.5 15t5.5 24q0 8 -0.5 19t-1.5 26q-4 51 -3 102h-5q-16 -37 -40 -77t-55 -73t-69.5 -54t-83.5 -21q-70 0 -103.5 41.5t-35.5 138.5l-4 190q-1 61 -13 94.5t-28 40.5zM120 570q51 37 99 79t96 91h20q48 -49 96 -91t99 -79l-10 -10
q-57 33 -108 54.5t-87 30.5q-36 -9 -87 -30.5t-108 -54.5z" />
    <glyph glyph-name="udieresis" unicode="&#xfc;" horiz-adv-x="660" 
d="M40 495v5h275v-15q-69 -6 -100 -30q-16 -12 -26.5 -32.5t-17 -53t-9 -78.5t-2.5 -111q0 -45 4.5 -75t14.5 -48t25 -25.5t36 -7.5q50 0 107 57q27 27 51 62.5t42.5 75t29 81t10.5 80.5q0 32 -5 52.5t-18 32t-35 16t-57 4.5v15h245v-5q-50 -29 -50 -315q0 -72 14.5 -116
t35.5 -59v-5h-250v15q36 2 59.5 5t37.5 9t19.5 15t5.5 24q0 8 -0.5 19t-1.5 26q-4 51 -3 102h-5q-16 -37 -40 -77t-55 -73t-69.5 -54t-83.5 -21q-70 0 -103.5 41.5t-35.5 138.5l-4 190q-1 61 -13 94.5t-28 40.5zM145 638q0 25 16.5 42.5t38.5 17.5q16 0 26.5 -6t24.5 -18
q16 -15 31.5 -23t42.5 -8q18 0 30.5 7t27.5 21q15 13 27.5 20t29.5 7q28 0 46.5 -19.5t18.5 -50.5q0 -25 -16.5 -42.5t-38.5 -17.5q-16 0 -26.5 6t-24.5 18q-16 15 -31.5 23t-42.5 8q-18 0 -30.5 -7t-27.5 -21q-15 -13 -27.5 -20t-29.5 -7q-28 0 -46.5 19.5t-18.5 50.5z" />
    <glyph glyph-name="yacute" unicode="&#xfd;" horiz-adv-x="590" 
d="M-30 500h346v-15q-40 -4 -65 -8t-38.5 -9.5t-18 -13t-4.5 -18.5q0 -10 10.5 -23.5t35.5 -40.5q27 -29 50.5 -56.5t43 -57t34.5 -62.5t26 -74h5l42 122q14 40 23 69t14.5 50t7.5 36.5t2 28.5q0 24 -22.5 36.5t-81.5 20.5v15h230v-5q-18 -13 -33 -28t-30 -38t-30.5 -58.5
t-34.5 -89.5l-98 -278q-21 -58 -42 -97t-44 -62.5t-48.5 -33.5t-54.5 -10t-55.5 9.5t-44.5 22.5v343h15q8 -92 18 -149.5t24.5 -89.5t35 -43.5t49.5 -11.5q21 0 39.5 9.5t32 27t21 41.5t7.5 53q0 63 -54 156q-27 45 -62.5 91.5t-76 89.5t-85 80.5t-89.5 65.5v5zM200 570
q51 54 80.5 97.5t39.5 72.5h205v-10q-35 -8 -74.5 -22.5t-80 -36t-81.5 -49.5t-79 -62z" />
    <glyph glyph-name="thorn" unicode="&#xfe;" horiz-adv-x="665" 
d="M367 700v-15q-45 -3 -76 -6t-50 -5q-37 -5 -55 -16.5t-18 -36.5q0 -8 1 -22.5t3 -34.5q2 -24 3 -43.5t1 -35.5q0 -44 -6 -79h5q32 46 80.5 75t129.5 29q48 0 91 -19t75 -51.5t50.5 -76t18.5 -93.5q0 -62 -21 -113.5t-59 -88.5t-91.5 -57.5t-118.5 -20.5q-43 0 -81.5 14.5
t-63.5 37.5h-5q0 -36 -6 -90q-6 -48 -6 -73t18 -37q9 -6 21.5 -9.5t33 -6.5t51 -5.5t75.5 -5.5v-15h-327v5q22 16 33 61q10 43 13 135q3 90 3 279q0 194 -14.5 296t-34.5 119v5h327zM180 195q0 -85 37.5 -130t100.5 -45q38 0 74 20t64.5 57t46 90t17.5 118q0 87 -37 131
t-101 44q-37 0 -73.5 -20t-65 -57t-46 -90t-17.5 -118z" />
    <glyph glyph-name="ydieresis" unicode="&#xff;" horiz-adv-x="590" 
d="M-30 500h346v-15q-40 -4 -65 -8t-38.5 -9.5t-18 -13t-4.5 -18.5q0 -10 10.5 -23.5t35.5 -40.5q27 -29 50.5 -56.5t43 -57t34.5 -62.5t26 -74h5l42 122q14 40 23 69t14.5 50t7.5 36.5t2 28.5q0 24 -22.5 36.5t-81.5 20.5v15h230v-5q-18 -13 -33 -28t-30 -38t-30.5 -58.5
t-34.5 -89.5l-98 -278q-21 -58 -42 -97t-44 -62.5t-48.5 -33.5t-54.5 -10t-55.5 9.5t-44.5 22.5v343h15q8 -92 18 -149.5t24.5 -89.5t35 -43.5t49.5 -11.5q21 0 39.5 9.5t32 27t21 41.5t7.5 53q0 63 -54 156q-27 45 -62.5 91.5t-76 89.5t-85 80.5t-89.5 65.5v5zM115 638
q0 25 16.5 42.5t38.5 17.5q16 0 26.5 -6t24.5 -18q16 -15 31.5 -23t42.5 -8q18 0 30.5 7t27.5 21q15 13 27.5 20t29.5 7q28 0 46.5 -19.5t18.5 -50.5q0 -25 -16.5 -42.5t-38.5 -17.5q-16 0 -26.5 6t-24.5 18q-16 15 -31.5 23t-42.5 8q-18 0 -30.5 -7t-27.5 -21
q-15 -13 -27.5 -20t-29.5 -7q-28 0 -46.5 19.5t-18.5 50.5z" />
    <glyph glyph-name="Amacron" unicode="&#x100;" horiz-adv-x="770" 
d="M-20 5q13 11 35 42.5t50 83.5l182 339q24 45 36.5 81t12.5 58q0 20 -7 33.5t-26.5 22.5t-54 13.5t-88.5 6.5v15h346v-5q-11 -8 -11 -30q0 -23 16 -66.5t41 -98t56 -114t61.5 -115t57 -101t42.5 -71.5q46 -75 81 -94v-5h-420v15q43 2 75 4.5t55 5.5q45 6 66.5 19.5
t21.5 38.5q0 19 -12 48t-37 74h-234q-95 0 -145 -16t-70 -55q-14 -31 -14 -50q0 -29 30 -46t99 -23v-15h-245v5zM186 227q5 0 39 6.5t105 6.5h120q37 0 52 8t15 28q0 11 -8 28.5t-26 52.5q-2 5 -9.5 17.5t-18.5 34.5l-17 34l-46 90t-49 89h-5q-4 -57 -23.5 -102t-45.5 -95
l-78 -147q-16 -31 -16 -42q0 -9 11 -9zM530 837v-35h-370v35h370z" />
    <glyph glyph-name="amacron" unicode="&#x101;" 
d="M65 114q0 63 52 100t148 61q51 12 88 25.5t61 29t35 35t11 44.5q0 29 -27.5 50t-78.5 21q-44 0 -88 -15t-81.5 -47.5t-66.5 -82.5t-43 -119h-10v214q61 36 127.5 58t153.5 22q100 0 151 -49.5t53 -145.5l4 -175q1 -61 13 -94.5t28 -40.5v-5h-240v15q33 2 54.5 5t34 9
t18 15.5t5.5 24.5l-1 41q-1 16 -1.5 28.5t-0.5 20.5v20t1 16h-5q-16 -43 -41.5 -80.5t-59 -65t-74 -43.5t-88.5 -16q-63 0 -97.5 33t-34.5 91zM260 60q45 0 82 27t63.5 66.5t40.5 86t14 85.5v4q-16 -19 -60.5 -44t-117.5 -52q-57 -20 -79.5 -46.5t-22.5 -58.5
q0 -31 21 -49.5t59 -18.5zM490 637v-35h-370v35h370z" />
    <glyph glyph-name="Abreve" unicode="&#x102;" horiz-adv-x="770" 
d="M-20 5q13 11 35 42.5t50 83.5l182 339q24 45 36.5 81t12.5 58q0 20 -7 33.5t-26.5 22.5t-54 13.5t-88.5 6.5v15h346v-5q-11 -8 -11 -30q0 -23 16 -66.5t41 -98t56 -114t61.5 -115t57 -101t42.5 -71.5q46 -75 81 -94v-5h-420v15q43 2 75 4.5t55 5.5q45 6 66.5 19.5
t21.5 38.5q0 19 -12 48t-37 74h-234q-95 0 -145 -16t-70 -55q-14 -31 -14 -50q0 -29 30 -46t99 -23v-15h-245v5zM186 227q5 0 39 6.5t105 6.5h120q37 0 52 8t15 28q0 11 -8 28.5t-26 52.5q-2 5 -9.5 17.5t-18.5 34.5l-17 34l-46 90t-49 89h-5q-4 -57 -23.5 -102t-45.5 -95
l-78 -147q-16 -31 -16 -42q0 -9 11 -9zM185 800v180h10q50 -185 150 -185q45 0 84 43t66 142h10v-180q-26 -15 -67.5 -25t-92.5 -10t-92.5 10t-67.5 25z" />
    <glyph glyph-name="abreve" unicode="&#x103;" 
d="M65 114q0 63 52 100t148 61q51 12 88 25.5t61 29t35 35t11 44.5q0 29 -27.5 50t-78.5 21q-44 0 -88 -15t-81.5 -47.5t-66.5 -82.5t-43 -119h-10v214q61 36 127.5 58t153.5 22q100 0 151 -49.5t53 -145.5l4 -175q1 -61 13 -94.5t28 -40.5v-5h-240v15q33 2 54.5 5t34 9
t18 15.5t5.5 24.5l-1 41q-1 16 -1.5 28.5t-0.5 20.5v20t1 16h-5q-16 -43 -41.5 -80.5t-59 -65t-74 -43.5t-88.5 -16q-63 0 -97.5 33t-34.5 91zM260 60q45 0 82 27t63.5 66.5t40.5 86t14 85.5v4q-16 -19 -60.5 -44t-117.5 -52q-57 -20 -79.5 -46.5t-22.5 -58.5
q0 -31 21 -49.5t59 -18.5zM145 600v180h10q50 -185 150 -185q45 0 84 43t66 142h10v-180q-26 -15 -67.5 -25t-92.5 -10t-92.5 10t-67.5 25z" />
    <glyph glyph-name="Aogonek" unicode="&#x104;" horiz-adv-x="770" 
d="M-20 5q13 11 35 42.5t50 83.5l182 339q24 45 36.5 81t12.5 58q0 20 -7 33.5t-26.5 22.5t-54 13.5t-88.5 6.5v15h346v-5q-11 -8 -11 -30q0 -23 16 -66.5t41 -98t56 -114t61.5 -115t57 -101t42.5 -71.5q46 -75 81 -94v-5q-120 -80 -120 -146q0 -31 28 -31q26 0 53.5 34.5
t47.5 117.5h10v-131q-52 -44 -120 -44q-90 0 -90 67q0 38 38 71t113 57v5h-380v15q43 2 75 4.5t55 5.5q45 6 66.5 19.5t21.5 38.5q0 19 -12 48t-37 74h-234q-95 0 -145 -16t-70 -55q-14 -31 -14 -50q0 -29 30 -46t99 -23v-15h-245v5zM175 236q0 -9 11 -9q5 0 39 6.5t105 6.5
h120q37 0 52 8t15 28q0 11 -8 28.5t-26 52.5q-2 5 -9.5 17.5t-18.5 34.5l-17 34l-46 90t-49 89h-5q-4 -57 -23.5 -102t-45.5 -95l-78 -147q-16 -31 -16 -42z" />
    <glyph glyph-name="aogonek" unicode="&#x105;" 
d="M65 216v214q61 36 127.5 58t153.5 22q100 0 151 -49.5t53 -145.5l4 -175q1 -61 13 -94.5t28 -40.5v-5q-120 -80 -120 -146q0 -31 28 -31q26 0 53.5 34.5t47.5 117.5h10v-131q-52 -44 -120 -44q-90 0 -90 67q0 38 38 71t113 57v5h-200v15q33 2 54.5 5t34 9t18 15.5
t5.5 24.5l-1 41q-1 16 -1.5 28.5t-0.5 20.5v20t1 16h-5q-16 -43 -41.5 -80.5t-59 -65t-74 -43.5t-88.5 -16q-63 0 -97.5 33t-34.5 91q0 63 52 100t148 61q51 12 88 25.5t61 29t35 35t11 44.5q0 29 -27.5 50t-78.5 21q-44 0 -88 -15t-81.5 -47.5t-66.5 -82.5t-43 -119h-10z
M260 60q45 0 82 27t63.5 66.5t40.5 86t14 85.5v4q-16 -19 -60.5 -44t-117.5 -52q-57 -20 -79.5 -46.5t-22.5 -58.5q0 -31 21 -49.5t59 -18.5z" />
    <glyph glyph-name="Cacute" unicode="&#x106;" horiz-adv-x="893" 
d="M495 710q109 0 187.5 -30t120.5 -81l-170 -292h-15q53 136 53 221q0 78 -41 112.5t-111 34.5q-72 0 -134 -27t-107.5 -76.5t-71.5 -118.5t-26 -154q0 -63 19.5 -114t55.5 -86.5t87.5 -54.5t116.5 -19q60 0 110.5 20.5t91 65.5t70.5 115t49 169h15v-335
q-52 -29 -135 -49.5t-185 -20.5q-94 0 -170 27t-129.5 75t-82 114t-28.5 144t29 144t84.5 114t135.5 75t181 27zM380 770q51 54 80.5 97.5t39.5 72.5h205v-10q-35 -8 -74.5 -22.5t-80 -36t-81.5 -49.5t-79 -62z" />
    <glyph glyph-name="cacute" unicode="&#x107;" 
d="M340 510q81 0 140 -31t85 -80l-150 -202h-15q46 120 46 190q0 93 -84 93q-41 0 -80 -20t-69.5 -58.5t-49 -93t-18.5 -123.5q0 -79 43.5 -122t119.5 -43q79 0 145 68t102 197h10v-225q-27 -29 -85 -49.5t-145 -20.5q-64 0 -117.5 20t-92 55.5t-59.5 83t-21 101.5
q0 55 21 102.5t60 82.5t93.5 55t120.5 20zM190 570q51 54 80.5 97.5t39.5 72.5h205v-10q-35 -8 -74.5 -22.5t-80 -36t-81.5 -49.5t-79 -62z" />
    <glyph glyph-name="Ccircumflex" unicode="&#x108;" horiz-adv-x="893" 
d="M495 710q109 0 187.5 -30t120.5 -81l-170 -292h-15q53 136 53 221q0 78 -41 112.5t-111 34.5q-72 0 -134 -27t-107.5 -76.5t-71.5 -118.5t-26 -154q0 -63 19.5 -114t55.5 -86.5t87.5 -54.5t116.5 -19q60 0 110.5 20.5t91 65.5t70.5 115t49 169h15v-335
q-52 -29 -135 -49.5t-185 -20.5q-94 0 -170 27t-129.5 75t-82 114t-28.5 144t29 144t84.5 114t135.5 75t181 27zM260 770q51 37 99 79t96 91h20q48 -49 96 -91t99 -79l-10 -10q-57 33 -108 54.5t-87 30.5q-36 -9 -87 -30.5t-108 -54.5z" />
    <glyph glyph-name="ccircumflex" unicode="&#x109;" 
d="M340 510q81 0 140 -31t85 -80l-150 -202h-15q46 120 46 190q0 93 -84 93q-41 0 -80 -20t-69.5 -58.5t-49 -93t-18.5 -123.5q0 -79 43.5 -122t119.5 -43q79 0 145 68t102 197h10v-225q-27 -29 -85 -49.5t-145 -20.5q-64 0 -117.5 20t-92 55.5t-59.5 83t-21 101.5
q0 55 21 102.5t60 82.5t93.5 55t120.5 20zM120 570q51 37 99 79t96 91h20q48 -49 96 -91t99 -79l-10 -10q-57 33 -108 54.5t-87 30.5q-36 -9 -87 -30.5t-108 -54.5z" />
    <glyph glyph-name="Ccaron" unicode="&#x10c;" horiz-adv-x="893" 
d="M495 710q109 0 187.5 -30t120.5 -81l-170 -292h-15q53 136 53 221q0 78 -41 112.5t-111 34.5q-72 0 -134 -27t-107.5 -76.5t-71.5 -118.5t-26 -154q0 -63 19.5 -114t55.5 -86.5t87.5 -54.5t116.5 -19q60 0 110.5 20.5t91 65.5t70.5 115t49 169h15v-335
q-52 -29 -135 -49.5t-185 -20.5q-94 0 -170 27t-129.5 75t-82 114t-28.5 144t29 144t84.5 114t135.5 75t181 27zM260 940l10 10q57 -33 108 -54.5t87 -30.5q36 9 87 30.5t108 54.5l10 -10q-51 -37 -99 -79t-96 -91h-20q-48 49 -96 91t-99 79z" />
    <glyph glyph-name="ccaron" unicode="&#x10d;" 
d="M340 510q81 0 140 -31t85 -80l-150 -202h-15q46 120 46 190q0 93 -84 93q-41 0 -80 -20t-69.5 -58.5t-49 -93t-18.5 -123.5q0 -79 43.5 -122t119.5 -43q79 0 145 68t102 197h10v-225q-27 -29 -85 -49.5t-145 -20.5q-64 0 -117.5 20t-92 55.5t-59.5 83t-21 101.5
q0 55 21 102.5t60 82.5t93.5 55t120.5 20zM120 740l10 10q57 -33 108 -54.5t87 -30.5q36 9 87 30.5t108 54.5l10 -10q-51 -37 -99 -79t-96 -91h-20q-48 49 -96 91t-99 79z" />
    <glyph glyph-name="Dcaron" unicode="&#x10e;" horiz-adv-x="910" 
d="M70 700q24 0 56 1t72 3q102 6 197 6q110 0 194 -26.5t141 -74.5t86 -114t29 -145t-27.5 -145t-79.5 -114t-126 -74.5t-167 -26.5q-66 0 -111.5 7t-77.5 20t-53 30t-38 38h-5l-50 -100h-20q7 29 11.5 76.5t7.5 113.5q2 66 3.5 126.5t1.5 118.5q0 121 -13 189.5t-31 85.5v5
zM201 530l1 -209q0 -89 11 -146.5t36 -90.5t65.5 -46t99.5 -13q67 0 125 26t100.5 74.5t66.5 118.5t24 157q0 129 -80.5 201.5t-233.5 72.5q-103 0 -147 -9q-21 -5 -34.5 -14t-21 -24.5t-10 -39t-2.5 -58.5zM220 940l10 10q57 -33 108 -54.5t87 -30.5q36 9 87 30.5t108 54.5
l10 -10q-51 -37 -99 -79t-96 -91h-20q-48 49 -96 91t-99 79z" />
    <glyph glyph-name="dcaron" unicode="&#x10f;" horiz-adv-x="725" 
d="M335 510q43 0 81.5 -14.5t63.5 -37.5h5q0 36 6 90q6 48 6 73t-18 37q-9 6 -21.5 9.5t-33 6.5t-51 5.5t-75.5 5.5v15h327v-5q-20 -14 -34.5 -71.5t-14.5 -163.5v-200q0 -62 3.5 -131.5t10.5 -148.5h-20l-50 155h-5q-30 -66 -88.5 -105.5t-146.5 -39.5q-48 0 -91 19
t-75 51.5t-50.5 76t-18.5 93.5q0 62 21 113.5t59 88.5t91.5 57.5t118.5 20.5zM145 195q0 -87 37 -131t101 -44q38 0 74 20t64.5 57t46 90t17.5 118q0 85 -37.5 130t-100.5 45q-37 0 -73.5 -20t-65 -57t-46 -90t-17.5 -118zM670 390v230q0 45 17.5 67.5t46.5 22.5
q25 0 40.5 -15.5t15.5 -38.5q0 -20 -7.5 -34.5t-23.5 -34.5q-14 -17 -25.5 -35t-21 -41t-16 -52.5t-11.5 -68.5h-15z" />
    <glyph glyph-name="Dcroat" unicode="&#x110;" horiz-adv-x="940" 
d="M-20 363v15q48 4 79 17t49 34t25.5 50t7.5 66q0 54 -12 92.5t-29 57.5v5q24 0 56 1t72 3q102 6 197 6q110 0 194 -26.5t141 -74.5t86 -114t29 -145t-27.5 -145t-79.5 -114t-126 -74.5t-167 -26.5q-66 0 -111.5 7t-77.5 20t-53 30t-38 38h-5l-50 -100h-20q18 95 18 189
q0 80 -8 117q-4 18 -14 30t-27 20.5t-43.5 13.5t-65.5 8zM233 255q0 -123 50.5 -176.5t161.5 -53.5q67 0 124.5 26t100 74.5t66.5 118t24 156.5q0 129 -80 202t-234 73q-105 0 -147 -9q-21 -4 -34.5 -12.5t-21 -22.5t-10 -36t-2.5 -55t4 -57t15 -41t31.5 -27.5t54.5 -16.5
q33 -7 90.5 -11.5t141.5 -8.5v-15q-28 -1 -55.5 -4t-50.5 -5.5t-39 -5t-21 -2.5q-75 -12 -116 -12q-25 0 -57 3q2 -17 3 -37.5t1 -44.5z" />
    <glyph glyph-name="dcroat" unicode="&#x111;" horiz-adv-x="677" 
d="M325 470q51 0 90.5 -14t64.5 -38h5q0 85 -12 115q-14 29 -58 38q-23 5 -67.5 8.5t-111.5 5.5v15h10q81 0 130.5 3t76.5 8t36 12.5t9 17.5q0 16 -18 23q-9 4 -22 6.5t-34 5t-52 4.5t-76 5v15h330v-5q-16 -17 -27.5 -36.5t-11.5 -37.5q0 -11 7.5 -16t26.5 -5h86v-15
q-54 -6 -78 -19q-27 -14 -40 -51t-13 -115v-140q0 -62 3.5 -131.5t10.5 -148.5h-20l-50 145h-5q-31 -60 -89.5 -97.5t-145.5 -37.5q-52 0 -95.5 17t-74.5 47.5t-48 73t-17 92.5q0 55 19.5 101t56 79t88.5 51.5t116 18.5zM145 185q0 -79 37.5 -122t100.5 -43q41 0 77.5 18
t64.5 51t44 80.5t16 105.5q0 79 -37.5 122t-100.5 43q-41 0 -77.5 -18t-64.5 -51t-44 -80t-16 -106z" />
    <glyph glyph-name="Emacron" unicode="&#x112;" horiz-adv-x="763" 
d="M663 700v-295h-15q-8 58 -17.5 100.5t-20.5 69.5t-27.5 44t-40.5 27.5t-57.5 14.5t-80.5 4q-114 0 -215 -9q10 -26 14 -80t4 -142v-36h5q18 18 50 26t87 8h184l-130 -255h-15q39 107 39 159q0 39 -19 54t-55 15q-38 0 -66 -11.5t-46 -39t-27 -75t-9 -119.5q0 -55 15 -81
q7 -12 20.5 -20.5t36 -14t56 -7.5t81.5 -2q89 0 131 19q21 9 37 26t28 45.5t21 70t17 99.5h15v-295h-593v5q11 6 18.5 31t13 60.5t9 76.5t5.5 78.5t3 67t1 41.5q0 152 -14.5 234.5t-35.5 100.5v5h593zM565 837v-35h-370v35h370z" />
    <glyph glyph-name="emacron" unicode="&#x113;" horiz-adv-x="640" 
d="M340 510q66 0 121.5 -28t88.5 -82l14 -27l-403 -270q19 -40 56 -61.5t91 -21.5q81 0 146.5 73.5t100.5 221.5h10v-255q-27 -29 -85 -49.5t-145 -20.5q-64 0 -117.5 20t-92 55.5t-59.5 83t-21 101.5q0 55 21 102.5t60 82.5t93.5 55t120.5 20zM151 133l50 34
q109 72 169.5 133t60.5 115q0 30 -20.5 47.5t-58.5 17.5t-75 -20.5t-66.5 -58.5t-47.5 -92.5t-18 -123.5q0 -28 6 -52zM490 637v-35h-370v35h370z" />
    <glyph glyph-name="Edotaccent" unicode="&#x116;" horiz-adv-x="763" 
d="M663 700v-295h-15q-8 58 -17.5 100.5t-20.5 69.5t-27.5 44t-40.5 27.5t-57.5 14.5t-80.5 4q-114 0 -215 -9q10 -26 14 -80t4 -142v-36h5q18 18 50 26t87 8h184l-130 -255h-15q39 107 39 159q0 39 -19 54t-55 15q-38 0 -66 -11.5t-46 -39t-27 -75t-9 -119.5q0 -55 15 -81
q7 -12 20.5 -20.5t36 -14t56 -7.5t81.5 -2q89 0 131 19q21 9 37 26t28 45.5t21 70t17 99.5h15v-295h-593v5q11 6 18.5 31t13 60.5t9 76.5t5.5 78.5t3 67t1 41.5q0 152 -14.5 234.5t-35.5 100.5v5h593zM315 838q0 28 19.5 46.5t50.5 18.5q25 0 42.5 -16.5t17.5 -38.5
q0 -17 -6 -32t-15.5 -26.5t-22.5 -18t-26 -6.5q-25 0 -42.5 21t-17.5 52z" />
    <glyph glyph-name="edotaccent" unicode="&#x117;" horiz-adv-x="640" 
d="M340 510q66 0 121.5 -28t88.5 -82l14 -27l-403 -270q19 -40 56 -61.5t91 -21.5q81 0 146.5 73.5t100.5 221.5h10v-255q-27 -29 -85 -49.5t-145 -20.5q-64 0 -117.5 20t-92 55.5t-59.5 83t-21 101.5q0 55 21 102.5t60 82.5t93.5 55t120.5 20zM151 133l50 34
q109 72 169.5 133t60.5 115q0 30 -20.5 47.5t-58.5 17.5t-75 -20.5t-66.5 -58.5t-47.5 -92.5t-18 -123.5q0 -28 6 -52zM240 638q0 28 19.5 46.5t50.5 18.5q25 0 42.5 -16.5t17.5 -38.5q0 -17 -6 -32t-15.5 -26.5t-22.5 -18t-26 -6.5q-25 0 -42.5 21t-17.5 52z" />
    <glyph glyph-name="Eogonek" unicode="&#x118;" horiz-adv-x="763" 
d="M70 0v5q11 6 18.5 31t13 60.5t9 76.5t5.5 78.5t3 67t1 41.5q0 152 -14.5 234.5t-35.5 100.5v5h593v-295h-15q-8 58 -17.5 100.5t-20.5 69.5t-27.5 44t-40.5 27.5t-57.5 14.5t-80.5 4q-114 0 -215 -9q10 -26 14 -80t4 -142v-36h5q18 18 50 26t87 8h184l-130 -255h-15
q39 107 39 159q0 39 -19 54t-55 15q-38 0 -66 -11.5t-46 -39t-27 -75t-9 -119.5q0 -55 15 -81q7 -12 20.5 -20.5t36 -14t56 -7.5t81.5 -2q89 0 131 19q21 9 37 26t28 45.5t21 70t17 99.5h15v-295q-120 -80 -120 -146q0 -31 28 -31q26 0 53.5 34.5t47.5 117.5h10v-131
q-52 -44 -120 -44q-90 0 -90 67q0 38 38 71t113 57v5h-553z" />
    <glyph glyph-name="eogonek" unicode="&#x119;" horiz-adv-x="640" 
d="M340 510q66 0 121.5 -28t88.5 -82l14 -27l-403 -270q19 -40 56 -61.5t91 -21.5q81 0 146.5 73.5t100.5 221.5h10v-255q-18 -20 -55 -38t-91 -26q-114 -78 -114 -142q0 -31 28 -31q26 0 53.5 34.5t47.5 117.5h10v-131q-52 -44 -120 -44q-90 0 -90 67q0 36 35 68.5
t105 55.5q-7 -1 -16.5 -1h-22.5q-64 0 -117.5 20t-92 55.5t-59.5 83t-21 101.5q0 55 21 102.5t60 82.5t93.5 55t120.5 20zM151 133l50 34q109 72 169.5 133t60.5 115q0 30 -20.5 47.5t-58.5 17.5t-75 -20.5t-66.5 -58.5t-47.5 -92.5t-18 -123.5q0 -28 6 -52z" />
    <glyph glyph-name="Ecaron" unicode="&#x11a;" horiz-adv-x="763" 
d="M663 700v-295h-15q-8 58 -17.5 100.5t-20.5 69.5t-27.5 44t-40.5 27.5t-57.5 14.5t-80.5 4q-114 0 -215 -9q10 -26 14 -80t4 -142v-36h5q18 18 50 26t87 8h184l-130 -255h-15q39 107 39 159q0 39 -19 54t-55 15q-38 0 -66 -11.5t-46 -39t-27 -75t-9 -119.5q0 -55 15 -81
q7 -12 20.5 -20.5t36 -14t56 -7.5t81.5 -2q89 0 131 19q21 9 37 26t28 45.5t21 70t17 99.5h15v-295h-593v5q11 6 18.5 31t13 60.5t9 76.5t5.5 78.5t3 67t1 41.5q0 152 -14.5 234.5t-35.5 100.5v5h593zM175 940l10 10q57 -33 108 -54.5t87 -30.5q36 9 87 30.5t108 54.5
l10 -10q-51 -37 -99 -79t-96 -91h-20q-48 49 -96 91t-99 79z" />
    <glyph glyph-name="ecaron" unicode="&#x11b;" horiz-adv-x="640" 
d="M340 510q66 0 121.5 -28t88.5 -82l14 -27l-403 -270q19 -40 56 -61.5t91 -21.5q81 0 146.5 73.5t100.5 221.5h10v-255q-27 -29 -85 -49.5t-145 -20.5q-64 0 -117.5 20t-92 55.5t-59.5 83t-21 101.5q0 55 21 102.5t60 82.5t93.5 55t120.5 20zM151 133l50 34
q109 72 169.5 133t60.5 115q0 30 -20.5 47.5t-58.5 17.5t-75 -20.5t-66.5 -58.5t-47.5 -92.5t-18 -123.5q0 -28 6 -52zM100 740l10 10q57 -33 108 -54.5t87 -30.5q36 9 87 30.5t108 54.5l10 -10q-51 -37 -99 -79t-96 -91h-20q-48 49 -96 91t-99 79z" />
    <glyph glyph-name="Gbreve" unicode="&#x11e;" horiz-adv-x="873" 
d="M65 350q0 78 29 144t84.5 114t135.5 75t181 27q109 0 187.5 -30t120.5 -81l-167 -289h159v-5q-11 -18 -19 -57t-8 -97q0 -71 12 -166h-15l-46 103h-5q-34 -45 -87.5 -71.5t-141.5 -26.5q-97 0 -175 27t-132.5 75t-83.5 114t-29 144zM180 299q0 -63 19.5 -114t55.5 -86.5
t87.5 -54.5t116.5 -19q58 0 100.5 11t70.5 29t41.5 41.5t13.5 49.5q0 42 -25 67q-13 13 -38 24t-65.5 20t-97.5 16t-134 12v15h295q50 138 50 221q0 79 -39.5 111.5t-111.5 32.5t-134 -27t-107.5 -76.5t-71.5 -118.5t-26 -154zM295 800v180h10q50 -185 150 -185q45 0 84 43
t66 142h10v-180q-26 -15 -67.5 -25t-92.5 -10t-92.5 10t-67.5 25z" />
    <glyph glyph-name="gbreve" unicode="&#x11f;" horiz-adv-x="520" 
d="M10 114q15 -89 50 -147t81.5 -92t100 -47.5t103.5 -13.5q90 0 90 56q0 33 -23 54t-71 47q-46 27 -68.5 47t-22.5 51q0 26 17.5 45t57.5 44v5q-30 -13 -90 -13q-42 0 -76.5 12.5t-58.5 35t-37 53.5t-13 69q0 41 15 76t43.5 60.5t69 39.5t92.5 14q90 0 140 -47t50 -123
q0 -33 -8.5 -58.5t-23.5 -47.5t-35.5 -41t-44.5 -39q-28 -22 -40.5 -35.5t-12.5 -28.5q0 -19 22 -30t68 -23q23 -7 42.5 -13t34.5 -12q30 -12 51.5 -35t21.5 -58q0 -57 -52.5 -93t-161.5 -36q-100 0 -180.5 16t-140.5 44v264h10zM133 277q0 -51 24 -77t67 -26q29 0 56 17
t47.5 45.5t32.5 66t12 77.5q0 51 -24 77t-67 26q-29 0 -56 -17t-47.5 -45.5t-32.5 -66t-12 -77.5zM100 780q50 -185 150 -185q45 0 84 43t66 142h10v-180q-26 -15 -67.5 -25t-92.5 -10t-92.5 10t-67.5 25v180h10z" />
    <glyph glyph-name="uni0122" unicode="&#x122;" horiz-adv-x="873" 
d="M65 350q0 78 29 144t84.5 114t135.5 75t181 27q109 0 187.5 -30t120.5 -81l-167 -289h159v-5q-11 -18 -19 -57t-8 -97q0 -71 12 -166h-15l-46 103h-5q-34 -45 -87.5 -71.5t-141.5 -26.5q-97 0 -175 27t-132.5 75t-83.5 114t-29 144zM180 299q0 -63 19.5 -114t55.5 -86.5
t87.5 -54.5t116.5 -19q58 0 100.5 11t70.5 29t41.5 41.5t13.5 49.5q0 42 -25 67q-13 13 -38 24t-65.5 20t-97.5 16t-134 12v15h295q50 138 50 221q0 79 -39.5 111.5t-111.5 32.5t-134 -27t-107.5 -76.5t-71.5 -118.5t-26 -154zM379 -114q0 23 15.5 38.5t40.5 15.5
q28 0 46 -21t18 -59v-160h-15q-3 25 -9 43t-14 32t-19.5 25t-24.5 22q-20 16 -29 28.5t-9 35.5z" />
    <glyph glyph-name="uni0123" unicode="&#x123;" horiz-adv-x="520" 
d="M0 114h10q15 -89 50 -147t81.5 -92t100 -47.5t103.5 -13.5q90 0 90 56q0 33 -23 54t-71 47q-46 27 -68.5 47t-22.5 51q0 26 17.5 45t57.5 44v5q-30 -13 -90 -13q-42 0 -76.5 12.5t-58.5 35t-37 53.5t-13 69q0 41 15 76t43.5 60.5t69 39.5t92.5 14q90 0 140 -47t50 -123
q0 -33 -8.5 -58.5t-23.5 -47.5t-35.5 -41t-44.5 -39q-28 -22 -40.5 -35.5t-12.5 -28.5q0 -19 22 -30t68 -23q23 -7 42.5 -13t34.5 -12q30 -12 51.5 -35t21.5 -58q0 -57 -52.5 -93t-161.5 -36q-100 0 -180.5 16t-140.5 44v264zM133 277q0 -51 24 -77t67 -26q29 0 56 17
t47.5 45.5t32.5 66t12 77.5q0 51 -24 77t-67 26q-29 0 -56 -17t-47.5 -45.5t-32.5 -66t-12 -77.5zM211 805q3 -25 9 -43t14 -32t19.5 -25t24.5 -22q20 -16 29 -28.5t9 -35.5t-15.5 -38.5t-40.5 -15.5q-28 0 -46 21t-18 59v160h15z" />
    <glyph glyph-name="Imacron" unicode="&#x12a;" horiz-adv-x="412" 
d="M15 0v15q44 2 72.5 5.5t45 13t23 27t6.5 46.5l1 165q1 23 1 58v83v62t-1 47q-1 82 -31.5 121t-109.5 42v15h375v-15q-44 -1 -72.5 -5t-45 -13.5t-23 -27t-6.5 -46.5l-1 -165q-1 -23 -1 -58v-83l1 -109q1 -82 31.5 -121t109.5 -42v-15h-375zM390 837v-35h-370v35h370z" />
    <glyph glyph-name="imacron" unicode="&#x12b;" horiz-adv-x="305" 
d="M50 0v5q26 14 39 45q6 15 10 37t6.5 54t3.5 76t1 103q0 73 -15 117t-37 58v5h242v-15q-49 -4 -70 -9t-32 -16t-11 -34l1 -75q3 -67 3 -173q0 -51 4.5 -83t12.5 -50.5t18.5 -27t23.5 -12.5v-5h-200zM342 637v-35h-370v35h370z" />
    <glyph glyph-name="Iogonek" unicode="&#x12e;" horiz-adv-x="412" 
d="M15 0v15q44 2 72.5 5.5t45 13t23 27t6.5 46.5l1 165q1 23 1 58v83v62t-1 47q-1 82 -31.5 121t-109.5 42v15h375v-15q-44 -1 -72.5 -5t-45 -13.5t-23 -27t-6.5 -46.5l-1 -165q-1 -23 -1 -58v-83l1 -109q1 -82 31.5 -121t109.5 -42v-15q-120 -80 -120 -146q0 -31 28 -31
q26 0 53.5 34.5t47.5 117.5h10v-131q-52 -44 -120 -44q-90 0 -90 67q0 38 38 71t113 57v5h-335z" />
    <glyph glyph-name="iogonek" unicode="&#x12f;" horiz-adv-x="305" 
d="M50 0v5q26 14 39 45q6 15 10 37t6.5 54t3.5 76t1 103q0 73 -15 117t-37 58v5h87q0 15 -6 27.5t-19 31.5q-14 21 -22 37.5t-8 38.5q0 26 19.5 43t55.5 17q29 0 47 -16.5t18 -41.5q0 -20 -8 -34t-23 -30q-12 -13 -17.5 -21.5t-5.5 -19.5q0 -9 4 -15t16.5 -9.5t37 -5.5
t66.5 -2v-15q-49 -4 -70 -9t-32 -16t-11 -34l1 -75q3 -67 3 -173q0 -51 4.5 -83t12.5 -50.5t18.5 -27t23.5 -12.5v-5q-120 -80 -120 -146q0 -31 28 -31q26 0 53.5 34.5t47.5 117.5h10v-131q-52 -44 -120 -44q-90 0 -90 67q0 38 38 71t113 57v5h-160z" />
    <glyph glyph-name="Idotaccent" unicode="&#x130;" horiz-adv-x="412" 
d="M15 0v15q44 2 72.5 5.5t45 13t23 27t6.5 46.5l1 165q1 23 1 58v83v62t-1 47q-1 82 -31.5 121t-109.5 42v15h375v-15q-44 -1 -72.5 -5t-45 -13.5t-23 -27t-6.5 -46.5l-1 -165q-1 -23 -1 -58v-83l1 -109q1 -82 31.5 -121t109.5 -42v-15h-375zM140 838q0 28 19.5 46.5
t50.5 18.5q25 0 42.5 -16.5t17.5 -38.5q0 -17 -6 -32t-15.5 -26.5t-22.5 -18t-26 -6.5q-25 0 -42.5 21t-17.5 52z" />
    <glyph glyph-name="dotlessi" unicode="&#x131;" horiz-adv-x="305" 
d="M50 0v5q26 14 39 45q6 15 10 37t6.5 54t3.5 76t1 103q0 73 -15 117t-37 58v5h242v-15q-49 -4 -70 -9t-32 -16t-11 -34l1 -75q3 -67 3 -173q0 -51 4.5 -83t12.5 -50.5t18.5 -27t23.5 -12.5v-5h-200z" />
    <glyph glyph-name="uni0136" unicode="&#x136;" horiz-adv-x="808" 
d="M255 360q0 10 3.5 18t13 16.5t26 19.5t42.5 27q43 26 84.5 54t81.5 57q76 54 76 88q0 35 -73 45v15h280v-5q-31 -14 -90.5 -52t-140.5 -99q-35 -26 -73.5 -53.5t-82.5 -56.5q-19 -12 -30.5 -20t-18 -14t-8.5 -11t-2 -11q0 -7 4 -15t13 -18t25 -23.5t40 -33.5
q52 -43 105 -82.5t108 -77.5l170 -123v-5h-416v15q64 2 101 4.5t56 6.5t24 10t5 13t-4 14t-13 16t-25 21l-40 30q-5 5 -20 16.5t-40 30.5q-49 37 -106 88q-22 20 -37 33.5t-23 24t-11.5 19t-3.5 18.5zM70 5q11 7 19 32t13.5 60t9 76t5.5 78t2.5 66.5t0.5 42.5
q0 152 -14.5 234.5t-35.5 100.5v5h375v-15q-54 -2 -93 -4t-62 -6q-48 -7 -67.5 -24.5t-19.5 -57.5v-232.5t1 -182.5q1 -85 31.5 -122.5t102.5 -40.5v-15h-268v5zM364 -114q0 23 15.5 38.5t40.5 15.5q28 0 46 -21t18 -59v-160h-15q-3 25 -9 43t-14 32t-19.5 25t-24.5 22
q-20 16 -29 28.5t-9 35.5z" />
    <glyph glyph-name="uni0137" unicode="&#x137;" horiz-adv-x="618" 
d="M40 5q25 15 39 50q13 36 17 113q2 40 3 100t1 142q0 128 -15 198.5t-37 86.5v5h330v-15q-93 -4 -131 -9q-37 -5 -52 -15.5t-15 -34.5q0 -5 0.5 -16t1.5 -29q8 -77 9 -238l1 -165q0 -52 4.5 -83.5t15 -49t26.5 -23t40 -7.5v-15h-238v5zM294 337q19 11 34 21.5t28 18.5
q59 41 59 64q0 40 -136 44v15h330v-5q-69 -32 -132 -72.5t-126 -85.5q-15 -10 -24 -17t-14 -11.5t-6.5 -8.5t-1.5 -9q0 -11 8.5 -22t35.5 -40q69 -73 138 -128.5t141 -95.5v-5h-326v15q60 4 80.5 11.5t20.5 22.5q0 8 -12.5 22.5t-42.5 44.5t-53 55t-40 45q-28 34 -28 55
q0 16 15 29.5t52 36.5zM269 -114q0 23 15.5 38.5t40.5 15.5q28 0 46 -21t18 -59v-160h-15q-3 25 -9 43t-14 32t-19.5 25t-24.5 22q-20 16 -29 28.5t-9 35.5z" />
    <glyph glyph-name="Lacute" unicode="&#x139;" horiz-adv-x="778" 
d="M70 0q12 20 21.5 55t16 82t9.5 103.5t3 119.5q0 152 -14.5 234.5t-35.5 100.5v5h405v-15q-63 -2 -107 -4t-70 -6q-54 -7 -74.5 -27t-20.5 -65v-345q1 -67 3 -114t4 -74q84 18 170 18q14 0 32.5 -0.5t42.5 -1.5t41.5 -1.5t28.5 -0.5q45 0 76 15t51.5 53.5t31 104.5
t14.5 168h15v-385q-17 -13 -47 -21.5t-70 -8.5q-18 0 -33.5 1t-32 2.5t-35 4.5t-44.5 7q-41 7 -72 11t-68 4q-73 0 -133 -10t-98 -25zM150 770q51 54 80.5 97.5t39.5 72.5h205v-10q-35 -8 -74.5 -22.5t-80 -36t-81.5 -49.5t-79 -62z" />
    <glyph glyph-name="lacute" unicode="&#x13a;" horiz-adv-x="365" 
d="M-15 700h267v-5q-31 -54 -55.5 -124.5t-41.5 -143.5t-26 -142t-9 -120q0 -79 16 -109.5t45 -30.5q92 0 119 335h15v-350q-18 -8 -46 -14t-59 -6q-78 0 -114.5 42.5t-36.5 147.5q0 39 2 74t5.5 69.5t8.5 69.5t11 74q7 42 10.5 70t3.5 44q0 29 -5 47.5t-18 30t-35 17
t-57 9.5v15zM80 770q51 54 80.5 97.5t39.5 72.5h205v-10q-35 -8 -74.5 -22.5t-80 -36t-81.5 -49.5t-79 -62z" />
    <glyph glyph-name="uni013B" unicode="&#x13b;" horiz-adv-x="778" 
d="M70 0q12 20 21.5 55t16 82t9.5 103.5t3 119.5q0 152 -14.5 234.5t-35.5 100.5v5h405v-15q-63 -2 -107 -4t-70 -6q-54 -7 -74.5 -27t-20.5 -65v-345q1 -67 3 -114t4 -74q84 18 170 18q14 0 32.5 -0.5t42.5 -1.5t41.5 -1.5t28.5 -0.5q45 0 76 15t51.5 53.5t31 104.5
t14.5 168h15v-385q-17 -13 -47 -21.5t-70 -8.5q-18 0 -33.5 1t-32 2.5t-35 4.5t-44.5 7q-41 7 -72 11t-68 4q-73 0 -133 -10t-98 -25zM339 -114q0 23 15.5 38.5t40.5 15.5q28 0 46 -21t18 -59v-160h-15q-3 25 -9 43t-14 32t-19.5 25t-24.5 22q-20 16 -29 28.5t-9 35.5z" />
    <glyph glyph-name="uni013C" unicode="&#x13c;" horiz-adv-x="365" 
d="M-15 700h267v-5q-31 -54 -55.5 -124.5t-41.5 -143.5t-26 -142t-9 -120q0 -79 16 -109.5t45 -30.5q92 0 119 335h15v-350q-18 -8 -46 -14t-59 -6q-78 0 -114.5 42.5t-36.5 147.5q0 39 2 74t5.5 69.5t8.5 69.5t11 74q7 42 10.5 70t3.5 44q0 29 -5 47.5t-18 30t-35 17
t-57 9.5v15zM124 -114q0 23 15.5 38.5t40.5 15.5q28 0 46 -21t18 -59v-160h-15q-3 25 -9 43t-14 32t-19.5 25t-24.5 22q-20 16 -29 28.5t-9 35.5z" />
    <glyph glyph-name="Lcaron" unicode="&#x13d;" horiz-adv-x="778" 
d="M70 0q12 20 21.5 55t16 82t9.5 103.5t3 119.5q0 152 -14.5 234.5t-35.5 100.5v5h295v-15q-33 -2 -57.5 -4t-40.5 -6q-33 -8 -48.5 -28.5t-15.5 -63.5v-345q1 -67 3 -114t4 -74q84 18 170 18q14 0 32.5 -0.5t42.5 -1.5t41.5 -1.5t28.5 -0.5q45 0 76 15t51.5 53.5t31 104.5
t14.5 168h15v-385q-17 -13 -47 -21.5t-70 -8.5q-18 0 -33.5 1t-32 2.5t-35 4.5t-44.5 7q-41 7 -72 11t-68 4q-73 0 -133 -10t-98 -25zM410 620q0 45 17.5 67.5t46.5 22.5q25 0 40.5 -15.5t15.5 -38.5q0 -20 -7.5 -34.5t-23.5 -34.5q-14 -17 -25.5 -35t-21 -41t-16 -52.5
t-11.5 -68.5h-15v230z" />
    <glyph glyph-name="lcaron" unicode="&#x13e;" horiz-adv-x="395" 
d="M252 700v-5q-31 -54 -55.5 -124.5t-41.5 -143.5t-26 -142t-9 -120q0 -79 16 -109.5t45 -30.5q92 0 119 335h15v-350q-18 -8 -46 -14t-59 -6q-78 0 -114.5 42.5t-36.5 147.5q0 39 2 74t5.5 69.5t8.5 69.5t11 74q7 42 10.5 70t3.5 44q0 29 -5 47.5t-18 30t-35 17t-57 9.5
v15h267zM300 620q0 45 17.5 67.5t46.5 22.5q25 0 40.5 -15.5t15.5 -38.5q0 -20 -7.5 -34.5t-23.5 -34.5q-14 -17 -25.5 -35t-21 -41t-16 -52.5t-11.5 -68.5h-15v230z" />
    <glyph glyph-name="Lslash" unicode="&#x141;" horiz-adv-x="778" 
d="M5 129v115q24 16 114 43q1 12 1 30v43q0 152 -14.5 234.5t-35.5 100.5v5h405v-15q-63 -2 -107 -4t-70 -6q-54 -7 -74.5 -27t-20.5 -65v-273l65 16q56 13 94 25.5t60 23.5q42 22 62 74q18 51 36 181h15v-343h-6q-32 32 -87 32q-19 0 -41 -2.5t-50.5 -8.5t-64.5 -15
t-83 -21v-34q1 -67 3 -114t4 -74q84 18 170 18q14 0 32.5 -0.5t42.5 -1.5t41.5 -1.5t28.5 -0.5q45 0 76 15t51.5 53.5t31 104.5t14.5 168h15v-385q-17 -13 -47 -21.5t-70 -8.5q-18 0 -33.5 1t-32 2.5t-35 4.5t-44.5 7q-41 7 -72 11t-68 4q-73 0 -133 -10t-98 -25l-10 15
q36 57 47 245q-36 -16 -61.5 -43t-45.5 -73h-5z" />
    <glyph glyph-name="lslash" unicode="&#x142;" horiz-adv-x="430" 
d="M0 229v115q26 7 55.5 16t62.5 21q4 31 7.5 52t5.5 35q7 41 10.5 69t3.5 44q0 29 -5 47.5t-18 30t-35 17t-57 9.5v15h267v-5q-64 -114 -101 -282q42 18 69 33.5t43.5 37t24.5 53.5t12 83h15v-223h-6q-22 18 -48 18q-18 0 -43 -7.5t-67 -24.5l-6 -3q-13 -60 -19 -113.5
t-6 -101.5q0 -79 16 -109.5t45 -30.5q92 0 119 335h15v-350q-18 -8 -46 -14t-59 -6q-78 0 -114.5 42.5t-36.5 147.5q0 42 2.5 83.5t7.5 83.5q-38 -19 -64 -46t-45 -72h-5z" />
    <glyph glyph-name="Nacute" unicode="&#x143;" horiz-adv-x="838" 
d="M20 695v5h325v-15q-69 -6 -93 -17t-24 -31q0 -19 27 -51q14 -16 42 -46t71 -75l312 -323h5l-5 372q-1 29 -3.5 53t-11.5 43t-26.5 33t-48.5 22q-26 6 -69 11t-103 9v15h375v-5q-31 -14 -52 -107.5t-21 -274.5v-333h-5l-153 154q-135 137 -232 239t-157 172l-18 20h-5
q16 -60 16 -172v-159q0 -61 8 -102t30 -66t60.5 -36.5t98.5 -14.5v-15h-285v5q22 40 37.5 122.5t15.5 197.5q0 85 -5.5 144.5t-18.5 102t-34.5 71.5t-52.5 52zM300 770q51 54 80.5 97.5t39.5 72.5h205v-10q-35 -8 -74.5 -22.5t-80 -36t-81.5 -49.5t-79 -62z" />
    <glyph glyph-name="nacute" unicode="&#x144;" horiz-adv-x="675" 
d="M100 320q0 72 -14.5 116t-35.5 59v5h250v-15q-36 -2 -59.5 -5t-37.5 -9t-19.5 -15t-5.5 -24q0 -7 0.5 -18.5t1.5 -28.5q5 -52 3 -105h5q17 38 42 78.5t57.5 74.5t72.5 55.5t86 21.5q70 0 103.5 -41.5t35.5 -138.5l4 -190q1 -61 13 -94.5t28 -40.5v-5h-275v15q69 6 100 31
q16 12 26.5 32t17 52.5t9 79t2.5 110.5q0 45 -4.5 75t-14.5 48t-25 25.5t-36 7.5q-52 0 -111 -57q-27 -27 -52.5 -62.5t-44.5 -75t-30.5 -81t-11.5 -80.5q0 -32 5 -52.5t18 -32t35.5 -16t56.5 -4.5v-15h-245v5q50 29 50 315zM210 570q51 54 80.5 97.5t39.5 72.5h205v-10
q-35 -8 -74.5 -22.5t-80 -36t-81.5 -49.5t-79 -62z" />
    <glyph glyph-name="uni0145" unicode="&#x145;" horiz-adv-x="838" 
d="M20 695v5h325v-15q-69 -6 -93 -17t-24 -31q0 -19 27 -51q14 -16 42 -46t71 -75l312 -323h5l-5 372q-1 29 -3.5 53t-11.5 43t-26.5 33t-48.5 22q-26 6 -69 11t-103 9v15h375v-5q-31 -14 -52 -107.5t-21 -274.5v-333h-5l-153 154q-135 137 -232 239t-157 172l-18 20h-5
q16 -60 16 -172v-159q0 -61 8 -102t30 -66t60.5 -36.5t98.5 -14.5v-15h-285v5q22 40 37.5 122.5t15.5 197.5q0 85 -5.5 144.5t-18.5 102t-34.5 71.5t-52.5 52zM374 -114q0 23 15.5 38.5t40.5 15.5q28 0 46 -21t18 -59v-160h-15q-3 25 -9 43t-14 32t-19.5 25t-24.5 22
q-20 16 -29 28.5t-9 35.5z" />
    <glyph glyph-name="uni0146" unicode="&#x146;" horiz-adv-x="675" 
d="M100 320q0 72 -14.5 116t-35.5 59v5h250v-15q-36 -2 -59.5 -5t-37.5 -9t-19.5 -15t-5.5 -24q0 -7 0.5 -18.5t1.5 -28.5q5 -52 3 -105h5q17 38 42 78.5t57.5 74.5t72.5 55.5t86 21.5q70 0 103.5 -41.5t35.5 -138.5l4 -190q1 -61 13 -94.5t28 -40.5v-5h-275v15q69 6 100 31
q16 12 26.5 32t17 52.5t9 79t2.5 110.5q0 45 -4.5 75t-14.5 48t-25 25.5t-36 7.5q-52 0 -111 -57q-27 -27 -52.5 -62.5t-44.5 -75t-30.5 -81t-11.5 -80.5q0 -32 5 -52.5t18 -32t35.5 -16t56.5 -4.5v-15h-245v5q50 29 50 315zM274 -114q0 23 15.5 38.5t40.5 15.5q28 0 46 -21
t18 -59v-160h-15q-3 25 -9 43t-14 32t-19.5 25t-24.5 22q-20 16 -29 28.5t-9 35.5z" />
    <glyph glyph-name="Ncaron" unicode="&#x147;" horiz-adv-x="838" 
d="M20 695v5h325v-15q-69 -6 -93 -17t-24 -31q0 -19 27 -51q14 -16 42 -46t71 -75l312 -323h5l-5 372q-1 29 -3.5 53t-11.5 43t-26.5 33t-48.5 22q-26 6 -69 11t-103 9v15h375v-5q-31 -14 -52 -107.5t-21 -274.5v-333h-5l-153 154q-135 137 -232 239t-157 172l-18 20h-5
q16 -60 16 -172v-159q0 -61 8 -102t30 -66t60.5 -36.5t98.5 -14.5v-15h-285v5q22 40 37.5 122.5t15.5 197.5q0 85 -5.5 144.5t-18.5 102t-34.5 71.5t-52.5 52zM215 940l10 10q57 -33 108 -54.5t87 -30.5q36 9 87 30.5t108 54.5l10 -10q-51 -37 -99 -79t-96 -91h-20
q-48 49 -96 91t-99 79z" />
    <glyph glyph-name="ncaron" unicode="&#x148;" horiz-adv-x="675" 
d="M100 320q0 72 -14.5 116t-35.5 59v5h250v-15q-36 -2 -59.5 -5t-37.5 -9t-19.5 -15t-5.5 -24q0 -7 0.5 -18.5t1.5 -28.5q5 -52 3 -105h5q17 38 42 78.5t57.5 74.5t72.5 55.5t86 21.5q70 0 103.5 -41.5t35.5 -138.5l4 -190q1 -61 13 -94.5t28 -40.5v-5h-275v15q69 6 100 31
q16 12 26.5 32t17 52.5t9 79t2.5 110.5q0 45 -4.5 75t-14.5 48t-25 25.5t-36 7.5q-52 0 -111 -57q-27 -27 -52.5 -62.5t-44.5 -75t-30.5 -81t-11.5 -80.5q0 -32 5 -52.5t18 -32t35.5 -16t56.5 -4.5v-15h-245v5q50 29 50 315zM120 740l10 10q57 -33 108 -54.5t87 -30.5
q36 9 87 30.5t108 54.5l10 -10q-51 -37 -99 -79t-96 -91h-20q-48 49 -96 91t-99 79z" />
    <glyph glyph-name="Omacron" unicode="&#x14c;" horiz-adv-x="950" 
d="M475 710q95 0 170.5 -27t129 -75t82 -114t28.5 -144t-28.5 -144t-82 -114t-129 -75t-170.5 -27q-94 0 -170 27t-129.5 75t-82 114t-28.5 144t28.5 144t82 114t129.5 75t170 27zM180 299q0 -63 19 -113.5t53.5 -86t83 -55t108.5 -19.5q68 0 127.5 27t103.5 76.5
t69.5 118.5t25.5 154q0 63 -19 113.5t-53.5 86t-83 55t-108.5 19.5q-68 0 -127.5 -27t-103.5 -76.5t-69.5 -118.5t-25.5 -154zM660 837v-35h-370v35h370z" />
    <glyph glyph-name="omacron" unicode="&#x14d;" horiz-adv-x="670" 
d="M335 510q65 0 118 -20t91.5 -55.5t59.5 -83t21 -101.5t-21 -101.5t-59.5 -83t-91.5 -55.5t-118 -20q-64 0 -117.5 20t-92 55.5t-59.5 83t-21 101.5t21 101.5t59.5 83t92 55.5t117.5 20zM145 190q0 -81 44 -125.5t119 -44.5q41 0 80 20t69.5 57.5t49 91.5t18.5 121
q0 81 -44 125.5t-119 44.5q-41 0 -80 -20t-69.5 -57.5t-49 -91.5t-18.5 -121zM520 637v-35h-370v35h370z" />
    <glyph glyph-name="Ohungarumlaut" unicode="&#x150;" horiz-adv-x="950" 
d="M475 710q95 0 170.5 -27t129 -75t82 -114t28.5 -144t-28.5 -144t-82 -114t-129 -75t-170.5 -27q-94 0 -170 27t-129.5 75t-82 114t-28.5 144t28.5 144t82 114t129.5 75t170 27zM180 299q0 -63 19 -113.5t53.5 -86t83 -55t108.5 -19.5q68 0 127.5 27t103.5 76.5
t69.5 118.5t25.5 154q0 63 -19 113.5t-53.5 86t-83 55t-108.5 19.5q-68 0 -127.5 -27t-103.5 -76.5t-69.5 -118.5t-25.5 -154zM295 770q51 57 81 101t39 69h175v-10q-66 -19 -142.5 -62.5t-142.5 -107.5zM625 940h175v-10q-66 -19 -142.5 -62.5t-142.5 -107.5l-10 10
q51 57 81 101t39 69z" />
    <glyph glyph-name="ohungarumlaut" unicode="&#x151;" horiz-adv-x="670" 
d="M335 510q65 0 118 -20t91.5 -55.5t59.5 -83t21 -101.5t-21 -101.5t-59.5 -83t-91.5 -55.5t-118 -20q-64 0 -117.5 20t-92 55.5t-59.5 83t-21 101.5t21 101.5t59.5 83t92 55.5t117.5 20zM145 190q0 -81 44 -125.5t119 -44.5q41 0 80 20t69.5 57.5t49 91.5t18.5 121
q0 81 -44 125.5t-119 44.5q-41 0 -80 -20t-69.5 -57.5t-49 -91.5t-18.5 -121zM155 570q51 57 81 101t39 69h175v-10q-66 -19 -142.5 -62.5t-142.5 -107.5zM485 740h175v-10q-66 -19 -142.5 -62.5t-142.5 -107.5l-10 10q51 57 81 101t39 69z" />
    <glyph glyph-name="OE" unicode="&#x152;" horiz-adv-x="1403" 
d="M65 350q0 78 28.5 144t82 114t129.5 75t170 27q76 0 143 -20t116 -65h5q-15 59 -29 70v5h593v-295h-15q-8 58 -17.5 100.5t-20.5 69.5t-27.5 44t-40.5 27.5t-57.5 14.5t-80.5 4q-114 0 -215 -9q10 -26 14 -80t4 -142v-36h5q18 18 50 26t87 8h184l-130 -255h-15
q39 107 39 159q0 39 -19 54t-55 15q-38 0 -66 -11.5t-46 -39t-27 -75t-9 -119.5q0 -55 15 -81q7 -12 20.5 -20.5t36 -14t56 -7.5t81.5 -2q89 0 131 19q21 9 37 26t28 45.5t21 70t17 99.5h15v-295h-593v5q14 8 27 70h-5q-48 -43 -115 -64t-148 -21q-92 0 -166.5 27.5
t-127.5 75.5t-81.5 114t-28.5 143zM180 299q0 -63 19 -113.5t53 -86t81.5 -55t105.5 -19.5q77 0 136.5 32t100.5 84.5t62.5 120t21.5 139.5q0 63 -19 113.5t-53 86t-81.5 55t-105.5 19.5q-77 0 -136.5 -31.5t-100.5 -84t-62.5 -120.5t-21.5 -140z" />
    <glyph glyph-name="oe" unicode="&#x153;" horiz-adv-x="1120" 
d="M45 250q0 54 21 101.5t59.5 83t92 55.5t117.5 20q78 0 139.5 -28t98.5 -82h5q37 54 99 82t143 28q69 0 125.5 -31.5t89.5 -86.5q7 -10 9 -19l-403 -270q19 -40 56 -61.5t91 -21.5q81 0 146.5 73.5t100.5 221.5h10v-255q-27 -29 -85 -49.5t-145 -20.5q-78 0 -139.5 28
t-97.5 82h-5q-38 -54 -99 -82t-139 -28q-64 0 -117.5 20t-92 55.5t-59.5 83t-21 101.5zM145 190q0 -81 44 -125.5t119 -44.5q41 0 80 20t69.5 57.5t49 91.5t18.5 121q0 81 -44 125.5t-119 44.5q-41 0 -80 -20t-69.5 -57.5t-49 -91.5t-18.5 -121zM625 185q0 -28 6 -52l50 34
q109 72 169.5 133t60.5 115q0 30 -20.5 47.5t-58.5 17.5t-75 -20.5t-66.5 -58.5t-47.5 -92.5t-18 -123.5z" />
    <glyph glyph-name="Racute" unicode="&#x154;" horiz-adv-x="873" 
d="M186 700l12 -84h5q29 45 84 69.5t148 24.5q63 0 110 -13t78.5 -35.5t47 -52.5t15.5 -64q0 -35 -14 -68t-42.5 -60t-71.5 -46.5t-101 -27.5v-5q38 -5 64.5 -22.5t45 -43t30.5 -57.5t22 -65q8 -26 14 -44t10 -29q8 -23 23 -40t38 -17q22 0 38 36q8 18 15.5 45.5t16 68
t17 95t17.5 125.5h15v-378q-19 -9 -48 -15.5t-62 -6.5q-60 0 -89 14q-16 7 -27.5 16.5t-23 25t-23.5 38.5t-29 56l-26 52q-15 30 -36 52.5t-46 39.5t-53 30.5t-58 25.5q-38 15 -58.5 26t-31.5 26h-5q3 -52 3 -120l-1 -143q0 -47 23 -70q12 -11 29 -18t43.5 -12t65 -8
t92.5 -6v-15h-387v5q20 48 34.5 133.5t14.5 199.5q0 72 -1.5 124t-5.5 86q-3 34 -10 58t-19 40t-30 25.5t-43 13.5v15h171zM215 510q0 -64 46 -104.5t128 -40.5q42 0 76.5 12t59 34t37.5 52.5t13 66.5q0 64 -46 104.5t-128 40.5q-42 0 -76.5 -12t-59 -34t-37.5 -52.5
t-13 -66.5zM290 770q51 54 80.5 97.5t39.5 72.5h205v-10q-35 -8 -74.5 -22.5t-80 -36t-81.5 -49.5t-79 -62z" />
    <glyph glyph-name="racute" unicode="&#x155;" horiz-adv-x="520" 
d="M100 320q0 72 -14.5 116t-35.5 59v5h250v-15q-36 -2 -59.5 -5t-37.5 -9t-19.5 -15t-5.5 -24q0 -7 0.5 -18.5t1.5 -27.5q4 -55 3 -107h5q14 33 36 73t51 75t64.5 59t76.5 24q33 0 49 -10v-330h-15q-7 75 -13.5 123.5t-15.5 76.5t-21.5 39t-30.5 11q-44 0 -87 -46
q-22 -23 -41 -53t-32.5 -64t-21 -69.5t-7.5 -70.5q0 -43 14 -63q7 -9 18 -15.5t29.5 -10.5t46 -7t67.5 -6v-15h-305v5q50 29 50 315zM134 570q51 54 80.5 97.5t39.5 72.5h205v-10q-35 -8 -74.5 -22.5t-80 -36t-81.5 -49.5t-79 -62z" />
    <glyph glyph-name="uni0156" unicode="&#x156;" horiz-adv-x="873" 
d="M186 700l12 -84h5q29 45 84 69.5t148 24.5q63 0 110 -13t78.5 -35.5t47 -52.5t15.5 -64q0 -35 -14 -68t-42.5 -60t-71.5 -46.5t-101 -27.5v-5q38 -5 64.5 -22.5t45 -43t30.5 -57.5t22 -65q8 -26 14 -44t10 -29q8 -23 23 -40t38 -17q22 0 38 36q8 18 15.5 45.5t16 68
t17 95t17.5 125.5h15v-378q-19 -9 -48 -15.5t-62 -6.5q-60 0 -89 14q-16 7 -27.5 16.5t-23 25t-23.5 38.5t-29 56l-26 52q-15 30 -36 52.5t-46 39.5t-53 30.5t-58 25.5q-38 15 -58.5 26t-31.5 26h-5q3 -52 3 -120l-1 -143q0 -47 23 -70q12 -11 29 -18t43.5 -12t65 -8
t92.5 -6v-15h-387v5q20 48 34.5 133.5t14.5 199.5q0 72 -1.5 124t-5.5 86q-3 34 -10 58t-19 40t-30 25.5t-43 13.5v15h171zM215 510q0 -64 46 -104.5t128 -40.5q42 0 76.5 12t59 34t37.5 52.5t13 66.5q0 64 -46 104.5t-128 40.5q-42 0 -76.5 -12t-59 -34t-37.5 -52.5
t-13 -66.5zM389 -114q0 23 15.5 38.5t40.5 15.5q28 0 46 -21t18 -59v-160h-15q-3 25 -9 43t-14 32t-19.5 25t-24.5 22q-20 16 -29 28.5t-9 35.5z" />
    <glyph glyph-name="uni0157" unicode="&#x157;" horiz-adv-x="520" 
d="M100 320q0 72 -14.5 116t-35.5 59v5h250v-15q-36 -2 -59.5 -5t-37.5 -9t-19.5 -15t-5.5 -24q0 -7 0.5 -18.5t1.5 -27.5q4 -55 3 -107h5q14 33 36 73t51 75t64.5 59t76.5 24q33 0 49 -10v-330h-15q-7 75 -13.5 123.5t-15.5 76.5t-21.5 39t-30.5 11q-44 0 -87 -46
q-22 -23 -41 -53t-32.5 -64t-21 -69.5t-7.5 -70.5q0 -43 14 -63q7 -9 18 -15.5t29.5 -10.5t46 -7t67.5 -6v-15h-305v5q50 29 50 315zM89 -114q0 23 15.5 38.5t40.5 15.5q28 0 46 -21t18 -59v-160h-15q-3 25 -9 43t-14 32t-19.5 25t-24.5 22q-20 16 -29 28.5t-9 35.5z" />
    <glyph glyph-name="Rcaron" unicode="&#x158;" horiz-adv-x="873" 
d="M186 700l12 -84h5q29 45 84 69.5t148 24.5q63 0 110 -13t78.5 -35.5t47 -52.5t15.5 -64q0 -35 -14 -68t-42.5 -60t-71.5 -46.5t-101 -27.5v-5q38 -5 64.5 -22.5t45 -43t30.5 -57.5t22 -65q8 -26 14 -44t10 -29q8 -23 23 -40t38 -17q22 0 38 36q8 18 15.5 45.5t16 68
t17 95t17.5 125.5h15v-378q-19 -9 -48 -15.5t-62 -6.5q-60 0 -89 14q-16 7 -27.5 16.5t-23 25t-23.5 38.5t-29 56l-26 52q-15 30 -36 52.5t-46 39.5t-53 30.5t-58 25.5q-38 15 -58.5 26t-31.5 26h-5q3 -52 3 -120l-1 -143q0 -47 23 -70q12 -11 29 -18t43.5 -12t65 -8
t92.5 -6v-15h-387v5q20 48 34.5 133.5t14.5 199.5q0 72 -1.5 124t-5.5 86q-3 34 -10 58t-19 40t-30 25.5t-43 13.5v15h171zM215 510q0 -64 46 -104.5t128 -40.5q42 0 76.5 12t59 34t37.5 52.5t13 66.5q0 64 -46 104.5t-128 40.5q-42 0 -76.5 -12t-59 -34t-37.5 -52.5
t-13 -66.5zM190 940l10 10q57 -33 108 -54.5t87 -30.5q36 9 87 30.5t108 54.5l10 -10q-51 -37 -99 -79t-96 -91h-20q-48 49 -96 91t-99 79z" />
    <glyph glyph-name="rcaron" unicode="&#x159;" horiz-adv-x="520" 
d="M100 320q0 72 -14.5 116t-35.5 59v5h250v-15q-36 -2 -59.5 -5t-37.5 -9t-19.5 -15t-5.5 -24q0 -7 0.5 -18.5t1.5 -27.5q4 -55 3 -107h5q14 33 36 73t51 75t64.5 59t76.5 24q33 0 49 -10v-330h-15q-7 75 -13.5 123.5t-15.5 76.5t-21.5 39t-30.5 11q-44 0 -87 -46
q-22 -23 -41 -53t-32.5 -64t-21 -69.5t-7.5 -70.5q0 -43 14 -63q7 -9 18 -15.5t29.5 -10.5t46 -7t67.5 -6v-15h-305v5q50 29 50 315zM55 740l10 10q57 -33 108 -54.5t87 -30.5q36 9 87 30.5t108 54.5l10 -10q-51 -37 -99 -79t-96 -91h-20q-48 49 -96 91t-99 79z" />
    <glyph glyph-name="Sacute" unicode="&#x15a;" horiz-adv-x="765" 
d="M189 330h15q-29 -67 -29 -116q0 -45 19.5 -80t55.5 -59.5t86.5 -37t113.5 -12.5q99 0 142.5 30t43.5 80q0 44 -34 75q-17 16 -37.5 28.5t-46.5 24t-59.5 23.5t-77.5 27q-49 17 -88 31.5t-68 27.5t-54.5 29.5t-44.5 37.5t-30 45.5t-11 54.5q0 78 68 124.5t214 46.5
q58 0 107 -10.5t88 -27.5t69 -40t49 -48l-137 -234q79 -32 123 -74.5t44 -106.5q0 -83 -66 -131t-209 -48q-64 0 -122 7.5t-107.5 21.5t-89 33.5t-66.5 43.5zM190 566q0 -44 33 -76q16 -16 35.5 -28.5t44.5 -24t57 -22.5t72 -25q36 -12 60.5 -21t38.5 -14q27 86 27 146
q0 85 -49 132t-149 47q-88 0 -129 -31t-41 -83zM260 770q51 54 80.5 97.5t39.5 72.5h205v-10q-35 -8 -74.5 -22.5t-80 -36t-81.5 -49.5t-79 -62z" />
    <glyph glyph-name="sacute" unicode="&#x15b;" horiz-adv-x="560" 
d="M150 231h15q-20 -42 -20 -80q0 -31 14 -56.5t39 -43t60 -27t77 -9.5q73 0 104 20t31 57q0 29 -22 48q-22 20 -56.5 34t-93.5 32q-38 12 -68 23t-53 21q-46 20 -79 54t-33 85q0 54 46.5 87.5t140.5 33.5q76 0 141 -20.5t107 -62.5l-106 -155q61 -24 96 -59.5t35 -93.5
q0 -60 -47.5 -94.5t-147.5 -34.5q-180 0 -290 80zM177 365q22 -22 54.5 -36t87.5 -31l62 -21q27 50 27 91q0 54 -42.5 85.5t-115.5 31.5q-48 0 -71.5 -18t-23.5 -47q0 -33 22 -55zM165 570q51 54 80.5 97.5t39.5 72.5h205v-10q-35 -8 -74.5 -22.5t-80 -36t-81.5 -49.5
t-79 -62z" />
    <glyph glyph-name="Scedilla" unicode="&#x15e;" horiz-adv-x="765" 
d="M50 96l139 234h15q-29 -67 -29 -116q0 -45 19.5 -80t55.5 -59.5t86.5 -37t113.5 -12.5q99 0 142.5 30t43.5 80q0 44 -34 75q-17 16 -37.5 28.5t-46.5 24t-59.5 23.5t-77.5 27q-49 17 -88 31.5t-68 27.5t-54.5 29.5t-44.5 37.5t-30 45.5t-11 54.5q0 78 68 124.5t214 46.5
q58 0 107 -10.5t88 -27.5t69 -40t49 -48l-137 -234q79 -32 123 -74.5t44 -106.5q0 -83 -66 -131t-209 -48h-5l-21 -39q54 -19 77.5 -41t23.5 -54q0 -34 -26 -55t-74 -21q-37 0 -69.5 9.5t-55.5 24.5v140h10q15 -75 49 -111t83 -36q33 0 33 26q0 19 -25 35t-89 34l49 89
q-115 4 -204.5 32t-140.5 73zM223 490q16 -16 35.5 -28.5t44.5 -24t57 -22.5t72 -25q36 -12 60.5 -21t38.5 -14q27 86 27 146q0 85 -49 132t-149 47q-88 0 -129 -31t-41 -83q0 -44 33 -76z" />
    <glyph glyph-name="scedilla" unicode="&#x15f;" horiz-adv-x="560" 
d="M150 231h15q-20 -42 -20 -80q0 -31 14 -56.5t39 -43t60 -27t77 -9.5q73 0 104 20t31 57q0 29 -22 48q-22 20 -56.5 34t-93.5 32q-38 12 -68 23t-53 21q-46 20 -79 54t-33 85q0 54 46.5 87.5t140.5 33.5q76 0 141 -20.5t107 -62.5l-106 -155q61 -24 96 -59.5t35 -93.5
q0 -60 -47.5 -94.5t-147.5 -34.5h-20l-21 -39q54 -19 77.5 -41t23.5 -54q0 -34 -26 -55t-74 -21q-37 0 -69.5 9.5t-55.5 24.5v140h10q15 -75 49 -111t83 -36q33 0 33 26q0 19 -25 35t-89 34l50 90q-144 10 -236 78zM177 365q22 -22 54.5 -36t87.5 -31l62 -21q27 50 27 91
q0 54 -42.5 85.5t-115.5 31.5q-48 0 -71.5 -18t-23.5 -47q0 -33 22 -55z" />
    <glyph glyph-name="Scaron" unicode="&#x160;" horiz-adv-x="765" 
d="M189 330h15q-29 -67 -29 -116q0 -45 19.5 -80t55.5 -59.5t86.5 -37t113.5 -12.5q99 0 142.5 30t43.5 80q0 44 -34 75q-17 16 -37.5 28.5t-46.5 24t-59.5 23.5t-77.5 27q-49 17 -88 31.5t-68 27.5t-54.5 29.5t-44.5 37.5t-30 45.5t-11 54.5q0 78 68 124.5t214 46.5
q58 0 107 -10.5t88 -27.5t69 -40t49 -48l-137 -234q79 -32 123 -74.5t44 -106.5q0 -83 -66 -131t-209 -48q-64 0 -122 7.5t-107.5 21.5t-89 33.5t-66.5 43.5zM190 566q0 -44 33 -76q16 -16 35.5 -28.5t44.5 -24t57 -22.5t72 -25q36 -12 60.5 -21t38.5 -14q27 86 27 146
q0 85 -49 132t-149 47q-88 0 -129 -31t-41 -83zM165 940l10 10q57 -33 108 -54.5t87 -30.5q36 9 87 30.5t108 54.5l10 -10q-51 -37 -99 -79t-96 -91h-20q-48 49 -96 91t-99 79z" />
    <glyph glyph-name="scaron" unicode="&#x161;" horiz-adv-x="560" 
d="M150 231h15q-20 -42 -20 -80q0 -31 14 -56.5t39 -43t60 -27t77 -9.5q73 0 104 20t31 57q0 29 -22 48q-22 20 -56.5 34t-93.5 32q-38 12 -68 23t-53 21q-46 20 -79 54t-33 85q0 54 46.5 87.5t140.5 33.5q76 0 141 -20.5t107 -62.5l-106 -155q61 -24 96 -59.5t35 -93.5
q0 -60 -47.5 -94.5t-147.5 -34.5q-180 0 -290 80zM177 365q22 -22 54.5 -36t87.5 -31l62 -21q27 50 27 91q0 54 -42.5 85.5t-115.5 31.5q-48 0 -71.5 -18t-23.5 -47q0 -33 22 -55zM55 740l10 10q57 -33 108 -54.5t87 -30.5q36 9 87 30.5t108 54.5l10 -10q-51 -37 -99 -79
t-96 -91h-20q-48 49 -96 91t-99 79z" />
    <glyph glyph-name="uni0162" unicode="&#x162;" horiz-adv-x="788" 
d="M50 700h688v-415h-15q-8 87 -16 149.5t-18 102.5t-22 65t-28.5 39.5t-38.5 19.5t-51 5q-55 0 -108 -13l-1 -131q-1 -40 -1 -88.5v-108.5v-138q0 -64 15 -99q15 -34 60.5 -52t140.5 -21v-15h-230l-26 -49q54 -19 77.5 -41t23.5 -54q0 -34 -26 -55t-74 -21q-37 0 -69.5 9.5
t-55.5 24.5v140h10q15 -75 49 -111t83 -36q33 0 33 26q0 19 -25 35t-89 34l54 98h-257v15q51 2 86.5 4t57.5 6q42 7 56 24.5t14 57.5l1 165q1 23 1 58v83q0 60 -0.5 120t-5.5 120q-46 13 -104 13q-35 0 -58 -8.5t-38.5 -24.5t-25 -40t-17.5 -56q-10 -40 -18.5 -102.5
t-16.5 -149.5h-15v415z" />
    <glyph glyph-name="uni0163" unicode="&#x163;" horiz-adv-x="440" 
d="M15 500q43 8 71.5 20t46.5 33.5t28 54.5t14 82h15q2 -28 3.5 -75.5t1.5 -114.5h170v-30h-170q-1 -65 -8.5 -123.5t-19.5 -127.5q-6 -34 -10.5 -64.5t-4.5 -49.5q0 -40 17 -60t48 -20q35 0 60 22.5t42.5 65.5t28.5 105.5t17 141.5h15v-355q-46 -15 -89 -15h-24t-17 1
l-21 -40q54 -19 77.5 -41t23.5 -54q0 -34 -26 -55t-74 -21q-37 0 -69.5 9.5t-55.5 24.5v140h10q15 -75 49 -111t83 -36q33 0 33 26q0 19 -25 35t-89 34l51 93q-72 12 -101.5 55t-29.5 130q0 14 3 119q1 28 1.5 46.5t0.5 28.5q0 58 -12 84.5t-47 26.5h-17v15z" />
    <glyph glyph-name="Tcaron" unicode="&#x164;" horiz-adv-x="788" 
d="M50 700h688v-415h-15q-8 87 -16 149.5t-18 102.5t-22 65t-28.5 39.5t-38.5 19.5t-51 5q-55 0 -108 -13l-1 -131q-1 -40 -1 -88.5v-108.5v-138q0 -64 15 -99q15 -34 60.5 -52t140.5 -21v-15h-522v15q51 2 86.5 4t57.5 6q42 7 56 24.5t14 57.5l1 165q1 23 1 58v83
q0 60 -0.5 120t-5.5 120q-46 13 -104 13q-35 0 -58 -8.5t-38.5 -24.5t-25 -40t-17.5 -56q-10 -40 -18.5 -102.5t-16.5 -149.5h-15v415zM190 940l10 10q57 -33 108 -54.5t87 -30.5q36 9 87 30.5t108 54.5l10 -10q-51 -37 -99 -79t-96 -91h-20q-48 49 -96 91t-99 79z" />
    <glyph glyph-name="tcaron" unicode="&#x165;" horiz-adv-x="460" 
d="M175 690h15q2 -28 3.5 -75.5t1.5 -114.5h120v-30h-120q-1 -65 -8.5 -123.5t-19.5 -127.5q-6 -34 -10.5 -64.5t-4.5 -49.5q0 -40 17 -60t48 -20q35 0 60 22.5t42.5 65.5t28.5 105.5t17 141.5h15v-355q-46 -15 -89 -15q-58 0 -97.5 10t-63.5 32.5t-34 58.5t-10 89
q0 14 3 119q1 28 1.5 46.5t0.5 28.5q0 58 -12 84.5t-47 26.5h-17v15q43 8 71.5 20t46.5 33.5t28 54.5t14 82zM365 380v230q0 45 17.5 67.5t46.5 22.5q25 0 40.5 -15.5t15.5 -38.5q0 -20 -7.5 -34.5t-23.5 -34.5q-14 -17 -25.5 -35t-21 -41t-16 -52.5t-11.5 -68.5h-15z" />
    <glyph glyph-name="Umacron" unicode="&#x16a;" horiz-adv-x="830" 
d="M495 700v-15q-69 -2 -117 -4.5t-76 -6.5q-57 -8 -79 -32t-22 -80v-57t-1 -45l-1 -143q0 -156 59.5 -224t185.5 -68q254 0 254 340q0 100 -9 161q-10 61 -38.5 101t-85.5 58v15h220v-5q-10 -9 -16.5 -30.5t-11 -49t-7 -58.5t-3.5 -60t-1.5 -53.5t-0.5 -37.5
q0 -211 -74 -313.5t-231 -102.5q-87 0 -151 22t-106 70t-62.5 124t-20.5 184q0 138 -14.5 213.5t-35.5 91.5v5h445zM615 837v-35h-370v35h370z" />
    <glyph glyph-name="umacron" unicode="&#x16b;" horiz-adv-x="660" 
d="M40 495v5h275v-15q-69 -6 -100 -30q-16 -12 -26.5 -32.5t-17 -53t-9 -78.5t-2.5 -111q0 -45 4.5 -75t14.5 -48t25 -25.5t36 -7.5q50 0 107 57q27 27 51 62.5t42.5 75t29 81t10.5 80.5q0 32 -5 52.5t-18 32t-35 16t-57 4.5v15h245v-5q-50 -29 -50 -315q0 -72 14.5 -116
t35.5 -59v-5h-250v15q36 2 59.5 5t37.5 9t19.5 15t5.5 24q0 8 -0.5 19t-1.5 26q-4 51 -3 102h-5q-16 -37 -40 -77t-55 -73t-69.5 -54t-83.5 -21q-70 0 -103.5 41.5t-35.5 138.5l-4 190q-1 61 -13 94.5t-28 40.5zM510 637v-35h-370v35h370z" />
    <glyph glyph-name="Uring" unicode="&#x16e;" horiz-adv-x="830" 
d="M495 700v-15q-69 -2 -117 -4.5t-76 -6.5q-57 -8 -79 -32t-22 -80v-57t-1 -45l-1 -143q0 -156 59.5 -224t185.5 -68q254 0 254 340q0 100 -9 161q-10 61 -38.5 101t-85.5 58v15h220v-5q-10 -9 -16.5 -30.5t-11 -49t-7 -58.5t-3.5 -60t-1.5 -53.5t-0.5 -37.5
q0 -211 -74 -313.5t-231 -102.5q-87 0 -151 22t-106 70t-62.5 124t-20.5 184q0 138 -14.5 213.5t-35.5 91.5v5h445zM435 975q27 0 49 -8.5t37.5 -22.5t24.5 -33.5t9 -42.5q0 -22 -9 -42t-25 -34.5t-38 -23t-48 -8.5q-27 0 -49 8.5t-37.5 22.5t-24.5 34t-9 42q0 23 9 42.5
t25 34t38 23t48 8.5zM367 826q0 -19 11 -30.5t31 -11.5q18 0 34.5 11.5t30 29.5t21.5 40t8 44q0 20 -11.5 31t-30.5 11q-18 0 -34.5 -11.5t-30 -29.5t-21.5 -40t-8 -44z" />
    <glyph glyph-name="uring" unicode="&#x16f;" horiz-adv-x="660" 
d="M40 495v5h275v-15q-69 -6 -100 -30q-16 -12 -26.5 -32.5t-17 -53t-9 -78.5t-2.5 -111q0 -45 4.5 -75t14.5 -48t25 -25.5t36 -7.5q50 0 107 57q27 27 51 62.5t42.5 75t29 81t10.5 80.5q0 32 -5 52.5t-18 32t-35 16t-57 4.5v15h245v-5q-50 -29 -50 -315q0 -72 14.5 -116
t35.5 -59v-5h-250v15q36 2 59.5 5t37.5 9t19.5 15t5.5 24q0 8 -0.5 19t-1.5 26q-4 51 -3 102h-5q-16 -37 -40 -77t-55 -73t-69.5 -54t-83.5 -21q-70 0 -103.5 41.5t-35.5 138.5l-4 190q-1 61 -13 94.5t-28 40.5zM330 775q27 0 49 -8.5t37.5 -22.5t24.5 -33.5t9 -42.5
q0 -22 -9 -42t-25 -34.5t-38 -23t-48 -8.5q-27 0 -49 8.5t-37.5 22.5t-24.5 34t-9 42q0 23 9 42.5t25 34t38 23t48 8.5zM262 626q0 -19 11 -30.5t31 -11.5q18 0 34.5 11.5t30 29.5t21.5 40t8 44q0 20 -11.5 31t-30.5 11q-18 0 -34.5 -11.5t-30 -29.5t-21.5 -40t-8 -44z" />
    <glyph glyph-name="Uhungarumlaut" unicode="&#x170;" horiz-adv-x="830" 
d="M495 700v-15q-69 -2 -117 -4.5t-76 -6.5q-57 -8 -79 -32t-22 -80v-57t-1 -45l-1 -143q0 -156 59.5 -224t185.5 -68q254 0 254 340q0 100 -9 161q-10 61 -38.5 101t-85.5 58v15h220v-5q-10 -9 -16.5 -30.5t-11 -49t-7 -58.5t-3.5 -60t-1.5 -53.5t-0.5 -37.5
q0 -211 -74 -313.5t-231 -102.5q-87 0 -151 22t-106 70t-62.5 124t-20.5 184q0 138 -14.5 213.5t-35.5 91.5v5h445zM250 770q51 57 81 101t39 69h175v-10q-66 -19 -142.5 -62.5t-142.5 -107.5zM580 940h175v-10q-66 -19 -142.5 -62.5t-142.5 -107.5l-10 10q51 57 81 101
t39 69z" />
    <glyph glyph-name="uhungarumlaut" unicode="&#x171;" horiz-adv-x="660" 
d="M40 495v5h275v-15q-69 -6 -100 -30q-16 -12 -26.5 -32.5t-17 -53t-9 -78.5t-2.5 -111q0 -45 4.5 -75t14.5 -48t25 -25.5t36 -7.5q50 0 107 57q27 27 51 62.5t42.5 75t29 81t10.5 80.5q0 32 -5 52.5t-18 32t-35 16t-57 4.5v15h245v-5q-50 -29 -50 -315q0 -72 14.5 -116
t35.5 -59v-5h-250v15q36 2 59.5 5t37.5 9t19.5 15t5.5 24q0 8 -0.5 19t-1.5 26q-4 51 -3 102h-5q-16 -37 -40 -77t-55 -73t-69.5 -54t-83.5 -21q-70 0 -103.5 41.5t-35.5 138.5l-4 190q-1 61 -13 94.5t-28 40.5zM145 570q51 57 81 101t39 69h175v-10q-66 -19 -142.5 -62.5
t-142.5 -107.5zM475 740h175v-10q-66 -19 -142.5 -62.5t-142.5 -107.5l-10 10q51 57 81 101t39 69z" />
    <glyph glyph-name="Uogonek" unicode="&#x172;" horiz-adv-x="830" 
d="M50 700h445v-15q-69 -2 -117 -4.5t-76 -6.5q-57 -8 -79 -32t-22 -80v-57t-1 -45l-1 -143q0 -156 59.5 -224t185.5 -68q254 0 254 340q0 100 -9 161q-10 61 -38.5 101t-85.5 58v15h220v-5q-10 -9 -16.5 -30.5t-11 -49t-7 -58.5t-3.5 -60t-1.5 -53.5t-0.5 -37.5
q0 -185 -56 -286t-174 -123q-115 -79 -115 -143q0 -31 28 -31q26 0 53.5 34.5t47.5 117.5h10v-131q-52 -44 -120 -44q-90 0 -90 67q0 36 34.5 68t103.5 56q-5 -1 -27 -1q-87 0 -151 22t-106 70t-62.5 124t-20.5 184q0 138 -14.5 213.5t-35.5 91.5v5z" />
    <glyph glyph-name="uogonek" unicode="&#x173;" horiz-adv-x="660" 
d="M315 500v-15q-69 -6 -100 -30q-16 -12 -26.5 -32.5t-17 -53t-9 -78.5t-2.5 -111q0 -45 4.5 -75t14.5 -48t25 -25.5t36 -7.5q50 0 107 57q27 27 51 62.5t42.5 75t29 81t10.5 80.5q0 32 -5 52.5t-18 32t-35 16t-57 4.5v15h245v-5q-50 -29 -50 -315q0 -72 14.5 -116
t35.5 -59v-5q-120 -80 -120 -146q0 -31 28 -31q26 0 53.5 34.5t47.5 117.5h10v-131q-52 -44 -120 -44q-90 0 -90 67q0 38 38 71t113 57v5h-210v15q36 2 59.5 5t37.5 9t19.5 15t5.5 24q0 8 -0.5 19t-1.5 26q-4 51 -3 102h-5q-16 -37 -40 -77t-55 -73t-69.5 -54t-83.5 -21
q-70 0 -103.5 41.5t-35.5 138.5l-4 190q-1 61 -13 94.5t-28 40.5v5h275z" />
    <glyph glyph-name="Ydieresis" unicode="&#x178;" horiz-adv-x="735" 
d="M391 700v-15q-72 -4 -113.5 -7.5t-63 -9t-27 -13t-5.5 -19.5q0 -11 13.5 -31.5t41.5 -56.5q25 -33 47 -63.5t41 -61t36 -61.5t32 -66h5q7 39 32 73.5t70 85.5q28 31 47.5 54t32.5 39q25 30 34 48t9 35q0 22 -27.5 34t-100.5 20v15h270v-5q-10 -9 -23 -21t-30 -31
t-40.5 -45.5t-55.5 -64.5l-99 -115q-92 -104 -92 -202q0 -88 61 -139t175 -62v-15h-546v15q63 3 106.5 10t70.5 20t39 33t12 48q0 38 -18 89t-47.5 107t-68 112.5t-80 107t-83 91t-76.5 62.5v5h421zM205 838q0 25 16.5 42.5t38.5 17.5q16 0 26.5 -6t24.5 -18
q16 -15 31.5 -23t42.5 -8q18 0 30.5 7t27.5 21q15 13 27.5 20t29.5 7q28 0 46.5 -19.5t18.5 -50.5q0 -25 -16.5 -42.5t-38.5 -17.5q-16 0 -26.5 6t-24.5 18q-16 15 -31.5 23t-42.5 8q-18 0 -30.5 -7t-27.5 -21q-15 -13 -27.5 -20t-29.5 -7q-28 0 -46.5 19.5t-18.5 50.5z" />
    <glyph glyph-name="Zacute" unicode="&#x179;" horiz-adv-x="732" 
d="M50 7q112 128 229.5 267t244.5 293l30 36l-5 5q-37 -19 -106 -19q-21 0 -51.5 4t-70.5 12q-27 5 -53.5 9.5t-45.5 4.5q-29 0 -50.5 -10.5t-37 -40t-26.5 -81t-20 -132.5h-15v315q17 17 51.5 28.5t85.5 11.5q18 0 35 -1t35.5 -3t41.5 -5t53 -8q51 -8 91.5 -12.5t71.5 -4.5
q37 0 69.5 10t54.5 24l20 -17q-13 -15 -19 -23t-7 -9q-15 -18 -60 -72.5t-121 -146.5q-76 -93 -150.5 -181t-148.5 -175l5 -5q16 9 30 15t28 9t30.5 4.5t37.5 1.5q35 0 102 -15q28 -6 57.5 -10.5t52.5 -4.5q29 0 50.5 11t37 41t26.5 83.5t20 138.5h15v-325
q-15 -17 -45 -28.5t-72 -11.5q-43 0 -88.5 6t-105.5 18q-29 5 -51 8.5t-40.5 6t-34 4t-30.5 1.5q-40 0 -74.5 -13t-56.5 -31zM280 770q51 54 80.5 97.5t39.5 72.5h205v-10q-35 -8 -74.5 -22.5t-80 -36t-81.5 -49.5t-79 -62z" />
    <glyph glyph-name="zacute" unicode="&#x17a;" horiz-adv-x="587" 
d="M45 7q54 54 110.5 114t117.5 127q42 48 83 91t75 75l-5 5q-22 -7 -55 -7q-36 0 -90 9q-10 1 -34 4t-40 3q-25 0 -44 -11.5t-34 -38.5t-26 -72t-20 -111h-15v295q17 8 47 14t70 6t71.5 -5t74.5 -14q32 -8 54 -11.5t46 -3.5q30 0 55 8.5t41 20.5l10 -12q-38 -41 -77 -82.5
t-78 -86.5q-52 -57 -108 -117.5t-116 -120.5l5 -5q29 12 67 12q32 0 87 -12q7 -1 29 -5t38 -4q25 0 44 11.5t34 38.5t26 72t20 111h15v-295q-17 -8 -47 -14t-70 -6q-36 0 -59.5 4t-53.5 12q-16 5 -30.5 8t-29.5 5.5t-32.5 3.5t-39.5 1q-30 0 -58 -8.5t-48 -20.5zM211 570
q51 54 80.5 97.5t39.5 72.5h205v-10q-35 -8 -74.5 -22.5t-80 -36t-81.5 -49.5t-79 -62z" />
    <glyph glyph-name="Zdotaccent" unicode="&#x17b;" horiz-adv-x="732" 
d="M50 7q112 128 229.5 267t244.5 293l30 36l-5 5q-37 -19 -106 -19q-21 0 -51.5 4t-70.5 12q-27 5 -53.5 9.5t-45.5 4.5q-29 0 -50.5 -10.5t-37 -40t-26.5 -81t-20 -132.5h-15v315q17 17 51.5 28.5t85.5 11.5q18 0 35 -1t35.5 -3t41.5 -5t53 -8q51 -8 91.5 -12.5t71.5 -4.5
q37 0 69.5 10t54.5 24l20 -17q-13 -15 -19 -23t-7 -9q-15 -18 -60 -72.5t-121 -146.5q-76 -93 -150.5 -181t-148.5 -175l5 -5q16 9 30 15t28 9t30.5 4.5t37.5 1.5q35 0 102 -15q28 -6 57.5 -10.5t52.5 -4.5q29 0 50.5 11t37 41t26.5 83.5t20 138.5h15v-325
q-15 -17 -45 -28.5t-72 -11.5q-43 0 -88.5 6t-105.5 18q-29 5 -51 8.5t-40.5 6t-34 4t-30.5 1.5q-40 0 -74.5 -13t-56.5 -31zM310 838q0 28 19.5 46.5t50.5 18.5q25 0 42.5 -16.5t17.5 -38.5q0 -17 -6 -32t-15.5 -26.5t-22.5 -18t-26 -6.5q-25 0 -42.5 21t-17.5 52z" />
    <glyph glyph-name="zdotaccent" unicode="&#x17c;" horiz-adv-x="587" 
d="M45 7q54 54 110.5 114t117.5 127q42 48 83 91t75 75l-5 5q-22 -7 -55 -7q-36 0 -90 9q-10 1 -34 4t-40 3q-25 0 -44 -11.5t-34 -38.5t-26 -72t-20 -111h-15v295q17 8 47 14t70 6t71.5 -5t74.5 -14q32 -8 54 -11.5t46 -3.5q30 0 55 8.5t41 20.5l10 -12q-38 -41 -77 -82.5
t-78 -86.5q-52 -57 -108 -117.5t-116 -120.5l5 -5q29 12 67 12q32 0 87 -12q7 -1 29 -5t38 -4q25 0 44 11.5t34 38.5t26 72t20 111h15v-295q-17 -8 -47 -14t-70 -6q-36 0 -59.5 4t-53.5 12q-16 5 -30.5 8t-29.5 5.5t-32.5 3.5t-39.5 1q-30 0 -58 -8.5t-48 -20.5zM231 638
q0 28 19.5 46.5t50.5 18.5q25 0 42.5 -16.5t17.5 -38.5q0 -17 -6 -32t-15.5 -26.5t-22.5 -18t-26 -6.5q-25 0 -42.5 21t-17.5 52z" />
    <glyph glyph-name="Zcaron" unicode="&#x17d;" horiz-adv-x="732" 
d="M50 7q112 128 229.5 267t244.5 293l30 36l-5 5q-37 -19 -106 -19q-21 0 -51.5 4t-70.5 12q-27 5 -53.5 9.5t-45.5 4.5q-29 0 -50.5 -10.5t-37 -40t-26.5 -81t-20 -132.5h-15v315q17 17 51.5 28.5t85.5 11.5q18 0 35 -1t35.5 -3t41.5 -5t53 -8q51 -8 91.5 -12.5t71.5 -4.5
q37 0 69.5 10t54.5 24l20 -17q-13 -15 -19 -23t-7 -9q-15 -18 -60 -72.5t-121 -146.5q-76 -93 -150.5 -181t-148.5 -175l5 -5q16 9 30 15t28 9t30.5 4.5t37.5 1.5q35 0 102 -15q28 -6 57.5 -10.5t52.5 -4.5q29 0 50.5 11t37 41t26.5 83.5t20 138.5h15v-325
q-15 -17 -45 -28.5t-72 -11.5q-43 0 -88.5 6t-105.5 18q-29 5 -51 8.5t-40.5 6t-34 4t-30.5 1.5q-40 0 -74.5 -13t-56.5 -31zM170 940l10 10q57 -33 108 -54.5t87 -30.5q36 9 87 30.5t108 54.5l10 -10q-51 -37 -99 -79t-96 -91h-20q-48 49 -96 91t-99 79z" />
    <glyph glyph-name="zcaron" unicode="&#x17e;" horiz-adv-x="587" 
d="M45 7q54 54 110.5 114t117.5 127q42 48 83 91t75 75l-5 5q-22 -7 -55 -7q-36 0 -90 9q-10 1 -34 4t-40 3q-25 0 -44 -11.5t-34 -38.5t-26 -72t-20 -111h-15v295q17 8 47 14t70 6t71.5 -5t74.5 -14q32 -8 54 -11.5t46 -3.5q30 0 55 8.5t41 20.5l10 -12q-38 -41 -77 -82.5
t-78 -86.5q-52 -57 -108 -117.5t-116 -120.5l5 -5q29 12 67 12q32 0 87 -12q7 -1 29 -5t38 -4q25 0 44 11.5t34 38.5t26 72t20 111h15v-295q-17 -8 -47 -14t-70 -6q-36 0 -59.5 4t-53.5 12q-16 5 -30.5 8t-29.5 5.5t-32.5 3.5t-39.5 1q-30 0 -58 -8.5t-48 -20.5zM91 740
l10 10q57 -33 108 -54.5t87 -30.5q36 9 87 30.5t108 54.5l10 -10q-51 -37 -99 -79t-96 -91h-20q-48 49 -96 91t-99 79z" />
    <glyph glyph-name="florin" unicode="&#x192;" horiz-adv-x="613" 
d="M15 160q9 -105 21.5 -170t28 -102t35 -50t41.5 -13q82 0 82 212q0 103 -5.5 168.5t-18.5 107.5q-18 55 -51 77v30h1q118 0 118 60q0 11 -8 41q-4 13 -7.5 28t-3.5 30q0 61 39 96t123 35q46 0 86 -10t67 -25l-1 -335h-15q-11 99 -26.5 163.5t-37 103t-49.5 53.5t-66 15
q-35 0 -56 -21t-21 -55q0 -25 11.5 -50t31 -48.5t46.5 -44t58 -36.5v-30q-40 0 -67 -7t-42.5 -23.5t-22 -43t-6.5 -66.5q0 -85 -2.5 -149.5t-7.5 -110.5q-10 -92 -52.5 -146t-131.5 -54q-61 0 -106 15v355h15z" />
    <glyph glyph-name="uni0218" unicode="&#x218;" horiz-adv-x="765" 
d="M189 330h15q-29 -67 -29 -116q0 -45 19.5 -80t55.5 -59.5t86.5 -37t113.5 -12.5q99 0 142.5 30t43.5 80q0 44 -34 75q-17 16 -37.5 28.5t-46.5 24t-59.5 23.5t-77.5 27q-49 17 -88 31.5t-68 27.5t-54.5 29.5t-44.5 37.5t-30 45.5t-11 54.5q0 78 68 124.5t214 46.5
q58 0 107 -10.5t88 -27.5t69 -40t49 -48l-137 -234q79 -32 123 -74.5t44 -106.5q0 -83 -66 -131t-209 -48q-64 0 -122 7.5t-107.5 21.5t-89 33.5t-66.5 43.5zM190 566q0 -44 33 -76q16 -16 35.5 -28.5t44.5 -24t57 -22.5t72 -25q36 -12 60.5 -21t38.5 -14q27 86 27 146
q0 85 -49 132t-149 47q-88 0 -129 -31t-41 -83zM334 -114q0 23 15.5 38.5t40.5 15.5q28 0 46 -21t18 -59v-160h-15q-3 25 -9 43t-14 32t-19.5 25t-24.5 22q-20 16 -29 28.5t-9 35.5z" />
    <glyph glyph-name="uni0219" unicode="&#x219;" horiz-adv-x="560" 
d="M150 231h15q-20 -42 -20 -80q0 -31 14 -56.5t39 -43t60 -27t77 -9.5q73 0 104 20t31 57q0 29 -22 48q-22 20 -56.5 34t-93.5 32q-38 12 -68 23t-53 21q-46 20 -79 54t-33 85q0 54 46.5 87.5t140.5 33.5q76 0 141 -20.5t107 -62.5l-106 -155q61 -24 96 -59.5t35 -93.5
q0 -60 -47.5 -94.5t-147.5 -34.5q-180 0 -290 80zM177 365q22 -22 54.5 -36t87.5 -31l62 -21q27 50 27 91q0 54 -42.5 85.5t-115.5 31.5q-48 0 -71.5 -18t-23.5 -47q0 -33 22 -55zM209 -114q0 23 15.5 38.5t40.5 15.5q28 0 46 -21t18 -59v-160h-15q-3 25 -9 43t-14 32
t-19.5 25t-24.5 22q-20 16 -29 28.5t-9 35.5z" />
    <glyph glyph-name="uni021A" unicode="&#x21a;" horiz-adv-x="788" 
d="M50 700h688v-415h-15q-8 87 -16 149.5t-18 102.5t-22 65t-28.5 39.5t-38.5 19.5t-51 5q-55 0 -108 -13l-1 -131q-1 -40 -1 -88.5v-108.5v-138q0 -64 15 -99q15 -34 60.5 -52t140.5 -21v-15h-522v15q51 2 86.5 4t57.5 6q42 7 56 24.5t14 57.5l1 165q1 23 1 58v83
q0 60 -0.5 120t-5.5 120q-46 13 -104 13q-35 0 -58 -8.5t-38.5 -24.5t-25 -40t-17.5 -56q-10 -40 -18.5 -102.5t-16.5 -149.5h-15v415zM339 -114q0 23 15.5 38.5t40.5 15.5q28 0 46 -21t18 -59v-160h-15q-3 25 -9 43t-14 32t-19.5 25t-24.5 22q-20 16 -29 28.5t-9 35.5z" />
    <glyph glyph-name="uni021B" unicode="&#x21b;" horiz-adv-x="440" 
d="M15 500q43 8 71.5 20t46.5 33.5t28 54.5t14 82h15q2 -28 3.5 -75.5t1.5 -114.5h170v-30h-170q-1 -65 -8.5 -123.5t-19.5 -127.5q-6 -34 -10.5 -64.5t-4.5 -49.5q0 -40 17 -60t48 -20q35 0 60 22.5t42.5 65.5t28.5 105.5t17 141.5h15v-355q-46 -15 -89 -15q-58 0 -97.5 10
t-63.5 32.5t-34 58.5t-10 89q0 14 3 119q1 28 1.5 46.5t0.5 28.5q0 58 -12 84.5t-47 26.5h-17v15zM159 -114q0 23 15.5 38.5t40.5 15.5q28 0 46 -21t18 -59v-160h-15q-3 25 -9 43t-14 32t-19.5 25t-24.5 22q-20 16 -29 28.5t-9 35.5z" />
    <glyph glyph-name="uni02BC" unicode="&#x2bc;" horiz-adv-x="180" 
d="M30 390v230q0 45 17.5 67.5t46.5 22.5q25 0 40.5 -15.5t15.5 -38.5q0 -20 -7.5 -34.5t-23.5 -34.5q-14 -17 -25.5 -35t-21 -41t-16 -52.5t-11.5 -68.5h-15z" />
    <glyph glyph-name="circumflex" unicode="&#x2c6;" horiz-adv-x="470" 
d="M30 770q51 37 99 79t96 91h20q48 -49 96 -91t99 -79l-10 -10q-57 33 -108 54.5t-87 30.5q-36 -9 -87 -30.5t-108 -54.5z" />
    <glyph glyph-name="caron" unicode="&#x2c7;" horiz-adv-x="470" 
d="M30 940l10 10q57 -33 108 -54.5t87 -30.5q36 9 87 30.5t108 54.5l10 -10q-51 -37 -99 -79t-96 -91h-20q-48 49 -96 91t-99 79z" />
    <glyph glyph-name="breve" unicode="&#x2d8;" horiz-adv-x="380" 
d="M30 800v180h10q50 -185 150 -185q45 0 84 43t66 142h10v-180q-26 -15 -67.5 -25t-92.5 -10t-92.5 10t-67.5 25z" />
    <glyph glyph-name="dotaccent" unicode="&#x2d9;" horiz-adv-x="190" 
d="M30 838q0 28 19.5 46.5t50.5 18.5q25 0 42.5 -16.5t17.5 -38.5q0 -17 -6 -32t-15.5 -26.5t-22.5 -18t-26 -6.5q-25 0 -42.5 21t-17.5 52z" />
    <glyph glyph-name="ring" unicode="&#x2da;" horiz-adv-x="300" 
d="M150 975q27 0 49 -8.5t37.5 -22.5t24.5 -33.5t9 -42.5q0 -22 -9 -42t-25 -34.5t-38 -23t-48 -8.5q-27 0 -49 8.5t-37.5 22.5t-24.5 34t-9 42q0 23 9 42.5t25 34t38 23t48 8.5zM82 826q0 -19 11 -30.5t31 -11.5q18 0 34.5 11.5t30 29.5t21.5 40t8 44q0 20 -11.5 31
t-30.5 11q-18 0 -34.5 -11.5t-30 -29.5t-21.5 -40t-8 -44z" />
    <glyph glyph-name="ogonek" unicode="&#x2db;" horiz-adv-x="270" 
d="M181 -5v15l40 -10q-120 -80 -120 -146q0 -31 28 -31q26 0 53.5 34.5t47.5 117.5h10v-131q-52 -44 -120 -44q-90 0 -90 67q0 38 38 71t113 57z" />
    <glyph glyph-name="tilde" unicode="&#x2dc;" horiz-adv-x="400" 
d="M25 915q12 8 32.5 13.5t47.5 5.5q33 0 55.5 -6.5t38.5 -18t27.5 -27t21.5 -32.5q13 -22 22.5 -31.5t25.5 -9.5q11 0 19 5.5t14 20t11 40t10 64.5h15v-145q-12 -8 -32.5 -13.5t-47.5 -5.5q-33 0 -55.5 6.5t-38.5 18t-27.5 27t-21.5 32.5q-13 22 -23 31.5t-25 9.5
q-11 0 -19 -5.5t-14 -20t-11 -40t-10 -64.5h-15v145z" />
    <glyph glyph-name="hungarumlaut" unicode="&#x2dd;" horiz-adv-x="565" 
d="M30 770q51 57 81 101t39 69h175v-10q-66 -19 -142.5 -62.5t-142.5 -107.5zM360 940h175v-10q-66 -19 -142.5 -62.5t-142.5 -107.5l-10 10q51 57 81 101t39 69z" />
    <glyph glyph-name="gravecomb" unicode="&#x300;" horiz-adv-x="0" 
d="M-150 940q10 -29 39.5 -72.5t80.5 -97.5l-10 -10q-38 34 -79 62t-81.5 49.5t-80 36t-74.5 22.5v10h205z" />
    <glyph glyph-name="acutecomb" unicode="&#x301;" horiz-adv-x="0" 
d="M-355 770q51 54 80.5 97.5t39.5 72.5h205v-10q-35 -8 -74.5 -22.5t-80 -36t-81.5 -49.5t-79 -62z" />
    <glyph glyph-name="uni0302" unicode="&#x302;" horiz-adv-x="0" 
d="M-440 770q51 37 99 79t96 91h20q48 -49 96 -91t99 -79l-10 -10q-57 33 -108 54.5t-87 30.5q-36 -9 -87 -30.5t-108 -54.5z" />
    <glyph glyph-name="tildecomb" unicode="&#x303;" horiz-adv-x="0" 
d="M-370 915q12 8 32.5 13.5t47.5 5.5q33 0 55.5 -6.5t38.5 -18t27.5 -27t21.5 -32.5q13 -22 22.5 -31.5t25.5 -9.5q11 0 19 5.5t14 20t11 40t10 64.5h15v-145q-12 -8 -32.5 -13.5t-47.5 -5.5q-33 0 -55.5 6.5t-38.5 18t-27.5 27t-21.5 32.5q-13 22 -23 31.5t-25 9.5
q-11 0 -19 -5.5t-14 -20t-11 -40t-10 -64.5h-15v145z" />
    <glyph glyph-name="uni0304" unicode="&#x304;" horiz-adv-x="0" 
d="M-30 837v-35h-370v35h370z" />
    <glyph glyph-name="uni0306" unicode="&#x306;" horiz-adv-x="0" 
d="M-350 800v180h10q50 -185 150 -185q45 0 84 43t66 142h10v-180q-26 -15 -67.5 -25t-92.5 -10t-92.5 10t-67.5 25z" />
    <glyph glyph-name="uni0307" unicode="&#x307;" horiz-adv-x="0" 
d="M-160 838q0 28 19.5 46.5t50.5 18.5q25 0 42.5 -16.5t17.5 -38.5q0 -17 -6 -32t-15.5 -26.5t-22.5 -18t-26 -6.5q-25 0 -42.5 21t-17.5 52z" />
    <glyph glyph-name="uni0308" unicode="&#x308;" horiz-adv-x="0" 
d="M-390 838q0 25 16.5 42.5t38.5 17.5q16 0 26.5 -6t24.5 -18q16 -15 31.5 -23t42.5 -8q18 0 30.5 7t27.5 21q15 13 27.5 20t29.5 7q28 0 46.5 -19.5t18.5 -50.5q0 -25 -16.5 -42.5t-38.5 -17.5q-16 0 -26.5 6t-24.5 18q-16 15 -31.5 23t-42.5 8q-18 0 -30.5 -7t-27.5 -21
q-15 -13 -27.5 -20t-29.5 -7q-28 0 -46.5 19.5t-18.5 50.5z" />
    <glyph glyph-name="uni030A" unicode="&#x30a;" horiz-adv-x="0" 
d="M-150 975q27 0 49 -8.5t37.5 -22.5t24.5 -33.5t9 -42.5q0 -22 -9 -42t-25 -34.5t-38 -23t-48 -8.5q-27 0 -49 8.5t-37.5 22.5t-24.5 34t-9 42q0 23 9 42.5t25 34t38 23t48 8.5zM-218 826q0 -19 11 -30.5t31 -11.5q18 0 34.5 11.5t30 29.5t21.5 40t8 44q0 20 -11.5 31
t-30.5 11q-18 0 -34.5 -11.5t-30 -29.5t-21.5 -40t-8 -44z" />
    <glyph glyph-name="uni030B" unicode="&#x30b;" horiz-adv-x="0" 
d="M-535 770q51 57 81 101t39 69h175v-10q-66 -19 -142.5 -62.5t-142.5 -107.5zM-205 940h175v-10q-66 -19 -142.5 -62.5t-142.5 -107.5l-10 10q51 57 81 101t39 69z" />
    <glyph glyph-name="uni030C" unicode="&#x30c;" horiz-adv-x="0" 
d="M-440 940l10 10q57 -33 108 -54.5t87 -30.5q36 9 87 30.5t108 54.5l10 -10q-51 -37 -99 -79t-96 -91h-20q-48 49 -96 91t-99 79z" />
    <glyph glyph-name="uni0326" unicode="&#x326;" horiz-adv-x="0" 
d="M-150 -114q0 23 15.5 38.5t40.5 15.5q28 0 46 -21t18 -59v-160h-15q-3 25 -9 43t-14 32t-19.5 25t-24.5 22q-20 16 -29 28.5t-9 35.5z" />
    <glyph glyph-name="uni0327" unicode="&#x327;" horiz-adv-x="0" 
d="M-245 -41q15 -75 49 -111t83 -36q33 0 33 26q0 19 -25 35t-89 34l54 98v3h35v-3l-26 -49q54 -19 77.5 -41t23.5 -54q0 -34 -26 -55t-74 -21q-37 0 -69.5 9.5t-55.5 24.5v140h10z" />
    <glyph glyph-name="uni0328" unicode="&#x328;" horiz-adv-x="0" 
d="M-89 -5v15l40 -10q-120 -80 -120 -146q0 -31 28 -31q26 0 53.5 34.5t47.5 117.5h10v-131q-52 -44 -120 -44q-90 0 -90 67q0 38 38 71t113 57z" />
    <glyph glyph-name="uni0401" unicode="&#x401;" horiz-adv-x="763" 
d="M200 838q0 25 16.5 42.5t38.5 17.5q16 0 26.5 -6t24.5 -18q16 -15 31.5 -23t42.5 -8q18 0 30.5 7t27.5 21q15 13 27.5 20t29.5 7q28 0 46.5 -19.5t18.5 -50.5q0 -25 -16.5 -42.5t-38.5 -17.5q-16 0 -26.5 6t-24.5 18q-16 15 -31.5 23t-42.5 8q-18 0 -30.5 -7t-27.5 -21
q-15 -13 -27.5 -20t-29.5 -7q-28 0 -46.5 19.5t-18.5 50.5zM663 700v-295h-15q-8 58 -17.5 100.5t-20.5 69.5t-27.5 44t-40.5 27.5t-57.5 14.5t-80.5 4q-114 0 -215 -9q10 -26 14 -80t4 -142v-36h5q18 18 50 26t87 8h184l-130 -255h-15q39 107 39 159q0 39 -19 54t-55 15
q-38 0 -66 -11.5t-46 -39t-27 -75t-9 -119.5q0 -55 15 -81q7 -12 20.5 -20.5t36 -14t56 -7.5t81.5 -2q89 0 131 19q21 9 37 26t28 45.5t21 70t17 99.5h15v-295h-593v5q11 6 18.5 31t13 60.5t9 76.5t5.5 78.5t3 67t1 41.5q0 152 -14.5 234.5t-35.5 100.5v5h593z" />
    <glyph glyph-name="uni0402" unicode="&#x402;" horiz-adv-x="937" 
d="M40 700h630v-255h-15q-11 68 -24 111t-29.5 67.5t-38.5 33.5t-52 9q-45 0 -109 -13q0 -29 -0.5 -80t-1.5 -124q-3 -118 -3 -237h5q23 41 53.5 79t68 66.5t81.5 45.5t93 17q91 0 142.5 -69t51.5 -217q0 -68 -11 -115t-33.5 -75.5t-57.5 -41t-82 -12.5q-61 0 -126 21v289
h15q26 -285 139 -285q39 0 60 31t21 104q0 152 -46 221.5t-121 69.5q-70 0 -129 -42q-30 -21 -53.5 -47.5t-40.5 -54t-26 -55.5t-9 -52q0 -42 19 -58t71 -17v-15h-212v5q18 17 29 109t11 256q0 201 -6 283q-51 13 -105 13q-30 0 -52 -9t-38.5 -33.5t-29.5 -67.5t-24 -111
h-15v255z" />
    <glyph glyph-name="uni0403" unicode="&#x403;" horiz-adv-x="753" 
d="M683 700v-385h-15q-2 22 -5 52t-9 63.5t-14.5 67.5t-22 63.5t-31.5 52t-43 32.5q-47 19 -139 19q-104 0 -214 -9q9 -27 12.5 -87t3.5 -157l-1 -222q0 -71 20 -106q10 -18 28 -30t48 -20.5t74 -12.5t105 -6v-15h-410v5q11 6 18.5 31t13 60.5t9 76.5t5.5 78.5t3 67t1 41.5
q0 152 -14.5 234.5t-35.5 100.5v5h613zM270 770q51 54 80.5 97.5t39.5 72.5h205v-10q-35 -8 -74.5 -22.5t-80 -36t-81.5 -49.5t-79 -62z" />
    <glyph glyph-name="uni0404" unicode="&#x404;" horiz-adv-x="893" 
d="M495 710q109 0 187.5 -30t120.5 -81l-170 -292h-15q53 136 53 222q0 146 -152 146q-50 0 -96.5 -13.5t-87 -40t-72.5 -65.5t-53 -90h5q38 27 111 27q67 0 117 -22t77 -54l-130 -222h-15q40 93 40 159q0 51 -25.5 78.5t-79.5 27.5q-57 0 -93.5 -42t-36.5 -124
q0 -61 19.5 -111t55.5 -85t87.5 -54t116.5 -19q125 0 205 90t116 280h15v-335q-52 -29 -135 -49.5t-185 -20.5q-94 0 -170 27t-129.5 75t-82 114t-28.5 144t29 144t84.5 114t135.5 75t181 27z" />
    <glyph glyph-name="uni0405" unicode="&#x405;" horiz-adv-x="765" 
d="M189 330h15q-29 -67 -29 -116q0 -45 19.5 -80t55.5 -59.5t86.5 -37t113.5 -12.5q99 0 142.5 30t43.5 80q0 44 -34 75q-17 16 -37.5 28.5t-46.5 24t-59.5 23.5t-77.5 27q-49 17 -88 31.5t-68 27.5t-54.5 29.5t-44.5 37.5t-30 45.5t-11 54.5q0 78 68 124.5t214 46.5
q58 0 107 -10.5t88 -27.5t69 -40t49 -48l-137 -234q79 -32 123 -74.5t44 -106.5q0 -83 -66 -131t-209 -48q-64 0 -122 7.5t-107.5 21.5t-89 33.5t-66.5 43.5zM190 566q0 -44 33 -76q16 -16 35.5 -28.5t44.5 -24t57 -22.5t72 -25q36 -12 60.5 -21t38.5 -14q27 86 27 146
q0 85 -49 132t-149 47q-88 0 -129 -31t-41 -83z" />
    <glyph glyph-name="uni0406" unicode="&#x406;" horiz-adv-x="412" 
d="M15 0v15q44 2 72.5 5.5t45 13t23 27t6.5 46.5l1 165q1 23 1 58v83v62t-1 47q-1 82 -31.5 121t-109.5 42v15h375v-15q-44 -1 -72.5 -5t-45 -13.5t-23 -27t-6.5 -46.5l-1 -165q-1 -23 -1 -58v-83l1 -109q1 -82 31.5 -121t109.5 -42v-15h-375z" />
    <glyph glyph-name="uni0407" unicode="&#x407;" horiz-adv-x="412" 
d="M15 0v15q44 2 72.5 5.5t45 13t23 27t6.5 46.5l1 165q1 23 1 58v83v62t-1 47q-1 82 -31.5 121t-109.5 42v15h375v-15q-44 -1 -72.5 -5t-45 -13.5t-23 -27t-6.5 -46.5l-1 -165q-1 -23 -1 -58v-83l1 -109q1 -82 31.5 -121t109.5 -42v-15h-375zM25 838q0 25 16.5 42.5
t38.5 17.5q16 0 26.5 -6t24.5 -18q16 -15 31.5 -23t42.5 -8q18 0 30.5 7t27.5 21q15 13 27.5 20t29.5 7q28 0 46.5 -19.5t18.5 -50.5q0 -25 -16.5 -42.5t-38.5 -17.5q-16 0 -26.5 6t-24.5 18q-16 15 -31.5 23t-42.5 8q-18 0 -30.5 -7t-27.5 -21q-15 -13 -27.5 -20t-29.5 -7
q-28 0 -46.5 19.5t-18.5 50.5z" />
    <glyph glyph-name="uni0408" unicode="&#x408;" horiz-adv-x="720" 
d="M60 110l190 335h15q-76 -180 -76 -285q0 -72 35 -103.5t102 -31.5q102 0 156.5 68t54.5 215q0 256 16 348q-72 9 -147 9q-107 0 -157 -18q-51 -20 -82 -86q-16 -34 -31.5 -90t-30.5 -136h-15v365h580v-5q-18 -17 -29 -90.5t-11 -214.5q0 -110 -19 -186t-58 -123.5
t-97 -69t-136 -21.5q-40 0 -78 9.5t-71 25.5t-61.5 38t-49.5 47z" />
    <glyph glyph-name="uni0409" unicode="&#x409;" horiz-adv-x="1305" 
d="M65 430q14 -102 29 -175t31.5 -120.5t36 -69.5t41.5 -22q18 0 32 9t23 34.5t14 70.5t5 118q0 98 -9 171.5t-32 124.5t-62 79t-99 35v15h915v-15q-63 -2 -106.5 -4t-69.5 -4q-53 -6 -72 -20t-19 -45l1 -106q1 -34 1.5 -64t0.5 -56h5q80 74 239 74q69 0 121.5 -16
t87.5 -44.5t53 -68t18 -86.5q0 -53 -21.5 -99.5t-62.5 -81t-99 -54.5t-132 -20q-163 0 -250 95h-5l-50 -100h-21q8 31 13.5 79t9.5 114t6 126t2 116q0 118 -12 167q-6 24 -17 39t-31 24t-50 12t-74 3h-180q9 -39 16.5 -85t13.5 -94.5t9 -99t3 -98.5q0 -121 -13 -182
q-14 -63 -48.5 -89.5t-101.5 -26.5q-56 0 -105 20v420h15zM928 25q48 0 86 14.5t65 42t41.5 66.5t14.5 87q0 42 -14.5 77t-40.5 60t-63.5 39t-84.5 14q-48 0 -86 -14.5t-65 -42t-41.5 -66.5t-14.5 -87q0 -42 14.5 -77t40.5 -60t64 -39t84 -14z" />
    <glyph glyph-name="uni040A" unicode="&#x40a;" horiz-adv-x="1326" 
d="M450 700v-15q-57 -2 -97 -4t-65 -4q-49 -6 -67 -20t-18 -45t3 -69q3 -93 3 -105q0 -25 1 -40t4.5 -23t9.5 -10.5t16 -2.5q5 0 21 4q45 14 106 14h200q29 0 47.5 5.5t30 22t16 47t4.5 80.5q0 79 -27.5 112.5t-84.5 37.5v15h458v-15q-63 -2 -106.5 -4t-69.5 -4
q-53 -6 -72 -20t-19 -45l1 -106q1 -34 1.5 -64t0.5 -56h5q80 74 239 74q69 0 121.5 -16t87.5 -44.5t53 -68t18 -86.5q0 -53 -21.5 -99.5t-62.5 -81t-99 -54.5t-132 -20q-163 0 -250 95h-5l-50 -100h-21q6 26 11 64t9 89t6 102t4 105h-255q-60 0 -99 -8t-61.5 -29t-31 -56.5
t-8.5 -91.5q0 -65 13 -94q13 -30 39 -39t78 -12v-15h-265v5q11 6 18.5 31t13 60.5t9 76.5t5.5 78.5t3 67t1 41.5q0 152 -14.5 234.5t-35.5 100.5v5h380zM746 215q0 -42 14.5 -77t40.5 -60t64 -39t84 -14q48 0 86 14.5t65 42t41.5 66.5t14.5 87q0 42 -14.5 77t-40.5 60
t-63.5 39t-84.5 14q-48 0 -86 -14.5t-65 -42t-41.5 -66.5t-14.5 -87z" />
    <glyph glyph-name="uni040B" unicode="&#x40b;" horiz-adv-x="927" 
d="M40 700h630v-255h-15q-11 68 -24 111t-29.5 67.5t-38.5 33.5t-52 9q-45 0 -109 -13q0 -30 -0.5 -81.5t-1.5 -124.5q-3 -115 -3 -228h5q24 36 55 71.5t68.5 64.5t79.5 47t88 18q39 0 68 -9.5t48.5 -31.5t30 -58.5t12.5 -90.5l4 -90q3 -61 14.5 -94.5t26.5 -40.5v-5h-325
v15q51 4 84 7t50 6q34 5 46 20.5t12 56.5l-1 125q0 75 -25 107.5t-71 32.5q-34 0 -68.5 -16t-65 -40t-56 -53.5t-42.5 -56.5q-43 -67 -43 -114q0 -21 4.5 -35.5t16.5 -23t33.5 -12t55.5 -4.5v-15h-232v5q18 17 29 109t11 256q0 201 -6 283q-51 13 -105 13q-30 0 -52 -9
t-38.5 -33.5t-29.5 -67.5t-24 -111h-15v255z" />
    <glyph glyph-name="uni040C" unicode="&#x40c;" horiz-adv-x="855" 
d="M445 700v-15q-110 -3 -158 -9q-49 -6 -66.5 -19.5t-17.5 -43.5q0 -29 1 -54t2 -45q2 -37 3 -64.5t1 -45.5q0 -11 -0.5 -23t-1.5 -26h5q10 14 50 42t121 80l122 81q43 29 63 49t20 35q0 32 -80 43v15h280v-5q-32 -20 -88 -56.5t-138 -90.5l-238 -159v-4q90 -6 142 -46
q26 -20 44 -42t31.5 -48t24 -57t20.5 -68q16 -58 29 -83.5t39 -25.5q41 0 71 93q14 46 26.5 128.5t22.5 203.5h15v-428q-20 -9 -52 -15.5t-72 -6.5q-54 0 -90 15t-61 42t-42.5 65.5t-34.5 84.5q-17 51 -33 82q-15 29 -40 49t-64 20q-45 0 -70.5 -33t-25.5 -117
q0 -54 7.5 -89t26 -55t50 -28.5t79.5 -10.5v-15h-298v5q11 7 19 32t13.5 60t9 76t5.5 78t2.5 66.5t0.5 42.5q0 152 -14.5 234.5t-35.5 100.5v5h375zM310 770q51 54 80.5 97.5t39.5 72.5h205v-10q-35 -8 -74.5 -22.5t-80 -36t-81.5 -49.5t-79 -62z" />
    <glyph glyph-name="uni040E" unicode="&#x40e;" horiz-adv-x="770" 
d="M-10 695v5h336v-15q-71 -4 -96 -15t-25 -34q0 -6 6.5 -15t15 -18.5t17 -18t12.5 -13.5q40 -40 75 -80.5t63.5 -84t51 -92t37.5 -105.5h5l94 182q94 178 94 235q0 11 -4 20.5t-17.5 16.5t-39.5 12.5t-70 9.5v15h255v-5q-14 -13 -28.5 -33t-29.5 -46q-30 -53 -86 -166
q-42 -83 -79 -153.5t-69 -130.5q-24 -43 -46 -76t-49.5 -55t-65 -33.5t-92.5 -11.5q-39 0 -77.5 7.5t-67.5 17.5v415h15q10 -73 21 -130t22 -99q23 -85 57 -125.5t89 -40.5q95 0 95 106q0 39 -21.5 88.5t-56.5 103t-79.5 108t-91 103t-91 88t-79.5 63.5zM220 795v200h10
q18 -61 37.5 -104t41.5 -70t47 -39t55 -12q59 0 102 51t78 174h10v-200q-33 -25 -83 -42.5t-107 -17.5t-107.5 17.5t-83.5 42.5z" />
    <glyph glyph-name="uni040F" unicode="&#x40f;" horiz-adv-x="885" 
d="M70 0v5q11 6 18.5 31t13 60.5t9 76.5t5.5 78.5t3 67t1 41.5q0 152 -14.5 234.5t-35.5 100.5v5h390v-15q-57 -2 -98 -4t-66 -6q-51 -7 -72 -26.5t-21 -64.5q0 -19 0.5 -58.5t1.5 -102.5q1 -78 1.5 -136.5t0.5 -100.5q0 -64 17 -95q8 -15 23.5 -26t41 -17.5t62.5 -9.5
t88 -3q89 0 155.5 3t111.5 8q-23 48 -23 254l1 115q1 14 1 31v39q0 89 -9 128q-4 20 -12 32.5t-21.5 21t-33 12.5t-46.5 6v15h247v-5q-18 -17 -29 -98q-5 -41 -8 -107t-3 -160q0 -147 13 -227t32 -98v-5h-143q-75 0 -116 -19q-21 -9 -38.5 -28.5t-30.5 -53t-21 -81.5
t-11 -114h-15q-6 140 -26 203q-21 61 -61 77q-39 16 -130 16h-153z" />
    <glyph glyph-name="uni0410" unicode="&#x410;" horiz-adv-x="770" 
d="M-20 5q13 11 35 42.5t50 83.5l182 339q24 45 36.5 81t12.5 58q0 20 -7 33.5t-26.5 22.5t-54 13.5t-88.5 6.5v15h346v-5q-11 -8 -11 -30q0 -23 16 -66.5t41 -98t56 -114t61.5 -115t57 -101t42.5 -71.5q46 -75 81 -94v-5h-420v15q43 2 75 4.5t55 5.5q45 6 66.5 19.5
t21.5 38.5q0 19 -12 48t-37 74h-234q-95 0 -145 -16t-70 -55q-14 -31 -14 -50q0 -29 30 -46t99 -23v-15h-245v5zM186 227q5 0 39 6.5t105 6.5h120q37 0 52 8t15 28q0 11 -8 28.5t-26 52.5q-2 5 -9.5 17.5t-18.5 34.5l-17 34l-46 90t-49 89h-5q-4 -57 -23.5 -102t-45.5 -95
l-78 -147q-16 -31 -16 -42q0 -9 11 -9z" />
    <glyph glyph-name="uni0411" unicode="&#x411;" horiz-adv-x="825" 
d="M708 700v-295h-15q-4 34 -11.5 72t-22.5 73t-40 62t-63 38q-55 15 -157 15q-84 0 -209 -9q17 -76 17 -205l-1 -65h5q37 30 98.5 47t140.5 17q75 0 131.5 -16t94 -44.5t56 -67t18.5 -82.5q0 -52 -22 -97.5t-65 -79.5t-105 -53.5t-143 -19.5q-72 0 -137 22t-113 73h-5
l-50 -100h-21q8 31 13.5 79t9.5 114t6 126t2 116q0 112 -14.5 181t-35.5 94v5h638zM423 25q48 0 87.5 15t67.5 41.5t43 63t15 80.5q0 41 -15 76t-43 60.5t-68.5 39.5t-91.5 14q-48 0 -87 -15t-67 -42t-43.5 -63.5t-15.5 -79.5q0 -41 15.5 -75.5t44 -60t68.5 -40t90 -14.5z
" />
    <glyph glyph-name="uni0412" unicode="&#x412;" horiz-adv-x="825" 
d="M199 705q63 2 110.5 3.5t80.5 1.5q325 0 325 -170q0 -121 -179 -171v-5q120 1 179.5 -42t59.5 -122q0 -43 -20.5 -81t-62 -66.5t-104.5 -45.5t-148 -17q-38 0 -76.5 2.5t-74 12.5t-67 28.5t-57.5 51.5h-5l-50 -100h-20q7 29 11.5 76.5t7.5 113.5q2 66 3.5 126.5
t1.5 118.5q0 121 -13 189.5t-31 85.5v5q31 0 63 1.5t66 3.5zM198 320l3 -82q2 -52 15.5 -93t41.5 -68.5t71.5 -42t105.5 -14.5q112 0 169.5 47t57.5 123q0 70 -45.5 106t-149.5 36q-58 0 -141 -6q-78 -6 -128 -6zM198 500l1 -129q30 -11 91 -11q98 0 159.5 12t96 35t47 55.5
t12.5 73.5q0 67 -53 105.5t-167 38.5q-87 0 -126 -15q-19 -8 -31.5 -20t-19 -31.5t-8.5 -47t-2 -66.5z" />
    <glyph glyph-name="uni0413" unicode="&#x413;" horiz-adv-x="753" 
d="M683 700v-385h-15q-2 22 -5 52t-9 63.5t-14.5 67.5t-22 63.5t-31.5 52t-43 32.5q-47 19 -139 19q-104 0 -214 -9q9 -27 12.5 -87t3.5 -157l-1 -222q0 -71 20 -106q10 -18 28 -30t48 -20.5t74 -12.5t105 -6v-15h-410v5q11 6 18.5 31t13 60.5t9 76.5t5.5 78.5t3 67t1 41.5
q0 152 -14.5 234.5t-35.5 100.5v5h613z" />
    <glyph glyph-name="uni0414" unicode="&#x414;" horiz-adv-x="840" 
d="M-10 35h25q74 0 115 35t58 110t17 206q0 72 -8.5 124.5t-30.5 89t-58.5 57.5t-92.5 28v15h715v-5q-18 -17 -29 -98q-5 -41 -8 -107t-3 -160q0 -127 15 -189q8 -31 19.5 -51.5t28.5 -32.5t41 -17t56 -5v-10q-10 -9 -18 -33t-13.5 -55t-9 -66t-5.5 -67.5t-3 -59t-1 -40.5
h-15q-6 131 -32 195q-13 32 -30.5 51.5t-40.5 30.5t-53 15t-69 4h-239q-109 0 -158 -16q-26 -8 -46.5 -26.5t-36 -51.5t-26.5 -82.5t-19 -119.5h-15q0 14 -0.5 40.5t-1.5 59t-3 67.5t-5.5 66.5t-8.5 56t-11 35.5v6zM247 399q0 -43 -1.5 -78.5t-4.5 -68t-7 -63.5t-10 -64
q-4 -23 -6 -39.5t-2 -27.5q0 -12 3 -23h105q95 0 170 3t132 8q-23 48 -23 254l1 115q1 14 1 31.5v39.5q0 56 -6 91t-21.5 54.5t-43 26.5t-69.5 7h-252q14 -28 24 -95.5t10 -170.5z" />
    <glyph glyph-name="uni0415" unicode="&#x415;" horiz-adv-x="763" 
d="M663 700v-295h-15q-8 58 -17.5 100.5t-20.5 69.5t-27.5 44t-40.5 27.5t-57.5 14.5t-80.5 4q-114 0 -215 -9q10 -26 14 -80t4 -142v-36h5q18 18 50 26t87 8h184l-130 -255h-15q39 107 39 159q0 39 -19 54t-55 15q-38 0 -66 -11.5t-46 -39t-27 -75t-9 -119.5q0 -55 15 -81
q7 -12 20.5 -20.5t36 -14t56 -7.5t81.5 -2q89 0 131 19q21 9 37 26t28 45.5t21 70t17 99.5h15v-295h-593v5q11 6 18.5 31t13 60.5t9 76.5t5.5 78.5t3 67t1 41.5q0 152 -14.5 234.5t-35.5 100.5v5h593z" />
    <glyph glyph-name="uni0416" unicode="&#x416;" horiz-adv-x="1330" 
d="M65 440h15q19 -239 50 -332q29 -93 70 -93q25 0 37 24t25 81q17 74 39 126q11 26 29.5 49.5t46 43t64 32.5t84.5 16v5l-231 156q-159 107 -228 147v5h280v-15q-80 -12 -80 -39q0 -14 20 -34.5t63 -52.5l59.5 -42.5t68.5 -46.5q63 -42 94.5 -65t46.5 -41h5l-1 48
q-1 34 -1.5 56.5t-0.5 33.5q-1 54 -7.5 89t-24 55.5t-49 29t-82.5 9.5v15h458v-15q-93 -3 -133 -9q-42 -6 -58 -19.5t-16 -43.5q0 -29 1 -54t2 -45q2 -37 3 -64.5t1 -45.5q0 -11 -0.5 -23t-1.5 -26h5q8 12 19.5 24.5t29.5 26.5t43 32.5t61 42.5q31 22 58.5 41.5t51.5 36.5
q83 60 83 83q0 18 -20 27.5t-60 15.5v15h280v-5q-69 -40 -228 -147q-66 -44 -121 -82.5t-102 -73.5v-5q63 -5 105 -25.5t70.5 -54.5t46 -80.5t31.5 -103.5q14 -58 26 -83t38 -25q41 0 71 93q14 46 26.5 128.5t22.5 203.5h15v-428q-20 -9 -53.5 -15.5t-76.5 -6.5
q-51 0 -84.5 16t-57 44t-39.5 65.5t-31 79.5q-10 26 -18 47t-15 36q-14 30 -38 50t-61 20q-36 0 -58.5 -34t-22.5 -116q0 -54 8 -89t29 -55t57.5 -28.5t93.5 -10.5v-15h-485v15q95 3 135 9q41 6 56 22t15 51v40.5t-1 30.5l-1 80q0 57 -14.5 78.5t-48.5 21.5q-42 0 -68 -21
q-27 -21 -42.5 -51.5t-35.5 -85.5q-15 -40 -31 -76.5t-39.5 -64t-57.5 -43.5t-85 -16q-43 0 -76.5 6.5t-53.5 15.5v428z" />
    <glyph glyph-name="uni0417" unicode="&#x417;" horiz-adv-x="786" 
d="M220 383h15q-51 -121 -51 -201q0 -157 195 -157q54 0 96.5 14t72 38t45 56t15.5 67q0 63 -46.5 96.5t-140.5 33.5q-70 0 -111 -10v29q84 21 138.5 44t86 48.5t43.5 53.5t12 60q0 54 -42 87t-124 33q-60 0 -110.5 -19t-91 -59.5t-70 -105t-49.5 -156.5h-15v305
q66 29 157 49.5t193 20.5q136 0 199.5 -42t63.5 -108q0 -60 -50 -107t-166 -78v-5q125 0 180.5 -41.5t55.5 -118.5q0 -47 -20.5 -87t-63.5 -69.5t-110 -46.5t-159 -17q-52 0 -100 9t-88.5 24t-73.5 35.5t-56 42.5z" />
    <glyph glyph-name="uni0418" unicode="&#x418;" horiz-adv-x="885" 
d="M450 700v-15q-57 -2 -97 -4t-65 -4q-49 -6 -67 -20t-18 -45q0 -8 0.5 -25t1.5 -43q2 -40 3 -80t1 -82q0 -29 0.5 -50.5t1.5 -34.5q2 -26 6.5 -37t16.5 -11q21 0 71 35q25 17 65.5 50t98.5 81q45 37 78 65.5t56 48.5q45 40 63.5 65t18.5 44q0 25 -26 34t-86 13v15h237v-5
q-18 -17 -29 -98q-5 -41 -8 -107t-3 -160q0 -147 13 -227t32 -98v-5h-370v15q122 4 168 35q44 30 58 129q7 49 10 139.5t4 224.5h-5l-215 -181q-52 -43 -90 -75.5t-63 -55.5q-51 -46 -79 -83t-28 -68q0 -36 31 -48.5t99 -16.5v-15h-265v5q11 6 18.5 31t13 60.5t9 76.5
t5.5 78.5t3 67t1 41.5q0 152 -14.5 234.5t-35.5 100.5v5h380z" />
    <glyph glyph-name="uni0419" unicode="&#x419;" horiz-adv-x="885" 
d="M70 700h260v-15q-36 -2 -60.5 -5.5t-39.5 -11.5t-21 -21t-6 -35q0 -8 0.5 -25t1.5 -43q2 -40 3 -80t1 -82q0 -29 0.5 -50.5t1.5 -34.5q2 -26 6.5 -37t16.5 -11q21 0 71 35q25 17 65.5 50t98.5 81q45 37 78 65.5t56 48.5q45 40 63.5 65t18.5 44q0 25 -26 34t-86 13v15h237
v-5q-18 -17 -29 -98q-5 -41 -8 -107t-3 -160q0 -147 13 -227t32 -98v-5h-370v15q122 4 168 35q44 30 58 129q7 49 10 139.5t4 224.5h-5l-215 -181q-52 -43 -90 -75.5t-63 -55.5q-51 -46 -79 -83t-28 -68q0 -36 31 -48.5t99 -16.5v-15h-265v5q11 6 18.5 31t13 60.5t9 76.5
t5.5 78.5t3 67t1 41.5q0 152 -14.5 234.5t-35.5 100.5v5zM264 995q18 -61 37.5 -104t41.5 -70t47 -39t55 -12q59 0 102 51t78 174h10v-200q-33 -25 -83 -42.5t-107 -17.5t-107.5 17.5t-83.5 42.5v200h10z" />
    <glyph glyph-name="uni041A" unicode="&#x41a;" horiz-adv-x="855" 
d="M445 700v-15q-110 -3 -158 -9q-49 -6 -66.5 -19.5t-17.5 -43.5q0 -29 1 -54t2 -45q2 -37 3 -64.5t1 -45.5q0 -11 -0.5 -23t-1.5 -26h5q10 14 50 42t121 80l122 81q43 29 63 49t20 35q0 32 -80 43v15h280v-5q-32 -20 -88 -56.5t-138 -90.5l-238 -159v-4q90 -6 142 -46
q26 -20 44 -42t31.5 -48t24 -57t20.5 -68q16 -58 29 -83.5t39 -25.5q41 0 71 93q14 46 26.5 128.5t22.5 203.5h15v-428q-20 -9 -52 -15.5t-72 -6.5q-54 0 -90 15t-61 42t-42.5 65.5t-34.5 84.5q-17 51 -33 82q-15 29 -40 49t-64 20q-45 0 -70.5 -33t-25.5 -117
q0 -54 7.5 -89t26 -55t50 -28.5t79.5 -10.5v-15h-298v5q11 7 19 32t13.5 60t9 76t5.5 78t2.5 66.5t0.5 42.5q0 152 -14.5 234.5t-35.5 100.5v5h375z" />
    <glyph glyph-name="uni041B" unicode="&#x41b;" horiz-adv-x="865" 
d="M65 430q14 -102 29 -175t31.5 -120.5t36 -69.5t41.5 -22q18 0 32 9t23 34.5t14 70.5t5 118q0 98 -9 171.5t-32 124.5t-62 79t-99 35v15h715v-5q-18 -17 -29 -98q-5 -40 -8 -106t-3 -160q0 -147 13 -227.5t32 -98.5v-5h-370v15q117 4 164 35q44 28 61 130q15 101 15 355
q0 54 -16 80q-8 14 -23 23.5t-39.5 15.5t-60.5 8.5t-85 2.5h-165q9 -39 16.5 -85t13.5 -94.5t9 -99t3 -98.5q0 -121 -13 -182q-14 -63 -48.5 -89.5t-101.5 -26.5q-56 0 -105 20v420h15z" />
    <glyph glyph-name="uni041C" unicode="&#x41c;" horiz-adv-x="1080" 
d="M395 700v-15q-74 -9 -104 -25t-30 -41q0 -13 7.5 -28.5t24 -38t44 -53t67.5 -73.5q35 -36 70 -74t71 -80l143 144q40 41 69 70.5t46 48.5q35 38 46 56.5t11 35.5q0 12 -9 21.5t-34 16.5t-70 12t-117 8v15h375v-5q-18 -17 -29 -98q-5 -41 -8 -107t-3 -160q0 -147 13 -227
t32 -98v-5h-440v15q129 7 194 24q32 9 52.5 21t32.5 29t17 41t5 55q0 20 1 67.5t3 123.5q2 61 3 107t2 78h-5q-19 -23 -39 -47t-43 -47l-56 -56t-77 -76q-48 -46 -89 -87l-76 -76h-5q-11 20 -25.5 40.5t-34 44.5t-45 52.5t-58.5 64.5q-34 38 -61 68t-48 56t-38 49t-32 46h-5
q18 -88 18 -277v-76q0 -55 7.5 -95.5t27 -68t54.5 -42.5t90 -19v-15h-280v5q60 47 60 345q0 58 -1.5 103t-5.5 77t-10 56t-15.5 43t-22.5 35t-30 31v5h360z" />
    <glyph glyph-name="uni041D" unicode="&#x41d;" horiz-adv-x="885" 
d="M450 700v-15q-57 -2 -97 -4t-65 -4q-49 -6 -67 -20t-18 -45t3 -69q3 -93 3 -105q0 -25 1 -40t4.5 -23t9.5 -10.5t16 -2.5q5 0 21 4q45 14 106 14h220q29 0 47.5 5.5t30 22t16 47t4.5 80.5q0 79 -27.5 112.5t-84.5 37.5v15h237v-5q-18 -17 -29 -98q-5 -41 -8 -107t-3 -160
q0 -147 13 -227t32 -98v-5h-370v15q58 2 98.5 9.5t63.5 18.5q44 22 58 85q12 62 12 217h-272q-60 0 -99 -8t-61.5 -29t-31 -56.5t-8.5 -91.5q0 -65 13 -94q13 -30 39 -39t78 -12v-15h-265v5q11 6 18.5 31t13 60.5t9 76.5t5.5 78.5t3 67t1 41.5q0 152 -14.5 234.5
t-35.5 100.5v5h380z" />
    <glyph glyph-name="uni041E" unicode="&#x41e;" horiz-adv-x="950" 
d="M475 710q95 0 170.5 -27t129 -75t82 -114t28.5 -144t-28.5 -144t-82 -114t-129 -75t-170.5 -27q-94 0 -170 27t-129.5 75t-82 114t-28.5 144t28.5 144t82 114t129.5 75t170 27zM180 299q0 -63 19 -113.5t53.5 -86t83 -55t108.5 -19.5q68 0 127.5 27t103.5 76.5
t69.5 118.5t25.5 154q0 63 -19 113.5t-53.5 86t-83 55t-108.5 19.5q-68 0 -127.5 -27t-103.5 -76.5t-69.5 -118.5t-25.5 -154z" />
    <glyph glyph-name="uni041F" unicode="&#x41f;" horiz-adv-x="885" 
d="M70 5q11 6 18.5 31t13 60.5t9 76.5t5.5 78.5t3 67t1 41.5q0 152 -14.5 234.5t-35.5 100.5v5h740v-5q-18 -17 -29 -98q-5 -41 -8 -107t-3 -160q0 -147 13 -227t32 -98v-5h-370v15q117 4 164 35q44 28 61 130q15 101 15 355q0 39 -7.5 64t-31.5 39.5t-68.5 20.5t-117.5 6
q-72 0 -141 -3t-135 -8q13 -25 18 -92.5t5 -170.5l-1 -119q-1 -20 -1 -47.5v-64.5q0 -45 5.5 -72.5t20 -43t39.5 -21.5t65 -8v-15h-265v5z" />
    <glyph glyph-name="uni0420" unicode="&#x420;" horiz-adv-x="790" 
d="M186 700l12 -89h5q34 46 97 72.5t160 26.5q71 0 124.5 -16t89 -44.5t53.5 -67t18 -82.5q0 -52 -22 -97.5t-63.5 -79.5t-102 -53.5t-137.5 -19.5q-33 0 -64.5 4t-59 12t-49.5 19t-34 25h-5q0 -17 1 -22l1 -58l-1 -101q0 -49 27 -70q25 -22 89 -30q31 -4 82.5 -7.5
t124.5 -6.5v-15h-457v5q20 48 34.5 133.5t14.5 199.5q0 72 -1.5 124t-5.5 86q-3 34 -10 58t-19 40t-30 25.5t-43 13.5v15h171zM417 285q50 0 89 14.5t67 41.5t42.5 65t14.5 85q0 41 -14 75t-40.5 58t-64 37.5t-84.5 13.5q-49 0 -89 -14.5t-67.5 -41t-42.5 -64.5t-15 -85
q0 -84 54 -134.5t150 -50.5z" />
    <glyph glyph-name="uni0421" unicode="&#x421;" horiz-adv-x="893" 
d="M495 710q109 0 187.5 -30t120.5 -81l-170 -292h-15q53 136 53 221q0 78 -41 112.5t-111 34.5q-72 0 -134 -27t-107.5 -76.5t-71.5 -118.5t-26 -154q0 -63 19.5 -114t55.5 -86.5t87.5 -54.5t116.5 -19q60 0 110.5 20.5t91 65.5t70.5 115t49 169h15v-335
q-52 -29 -135 -49.5t-185 -20.5q-94 0 -170 27t-129.5 75t-82 114t-28.5 144t29 144t84.5 114t135.5 75t181 27z" />
    <glyph glyph-name="uni0422" unicode="&#x422;" horiz-adv-x="788" 
d="M50 700h688v-415h-15q-8 87 -16 149.5t-18 102.5t-22 65t-28.5 39.5t-38.5 19.5t-51 5q-55 0 -108 -13l-1 -131q-1 -40 -1 -88.5v-108.5v-138q0 -64 15 -99q15 -34 60.5 -52t140.5 -21v-15h-522v15q51 2 86.5 4t57.5 6q42 7 56 24.5t14 57.5l1 165q1 23 1 58v83
q0 60 -0.5 120t-5.5 120q-46 13 -104 13q-35 0 -58 -8.5t-38.5 -24.5t-25 -40t-17.5 -56q-10 -40 -18.5 -102.5t-16.5 -149.5h-15v415z" />
    <glyph glyph-name="uni0423" unicode="&#x423;" horiz-adv-x="770" 
d="M486 700v-15q-63 -1 -109 -3t-76 -5t-49 -6.5t-29.5 -8.5t-14 -11t-3.5 -15q0 -6 6.5 -15t15 -18.5t17 -18t12.5 -13.5q40 -40 75 -80.5t63.5 -84t51 -92t37.5 -105.5h5l94 182q94 178 94 235q0 11 -4 20.5t-18 16.5t-41 12.5t-73 9.5v15h260v-5q-14 -13 -28.5 -33
t-29.5 -46q-30 -53 -86 -166q-42 -83 -79 -153.5t-69 -130.5q-24 -43 -46 -76t-49.5 -55t-65 -33.5t-92.5 -11.5q-39 0 -77.5 7.5t-67.5 17.5v415h15q10 -73 21 -130t22 -99q23 -85 57 -125.5t89 -40.5q95 0 95 106q0 39 -21.5 88.5t-56.5 103t-79.5 108t-91 103t-91 88
t-79.5 63.5v5h496z" />
    <glyph glyph-name="uni0424" unicode="&#x424;" horiz-adv-x="1193" 
d="M40 360q0 53 20.5 98.5t60 79.5t96 53t128.5 19q33 0 64.5 -4t59 -12t49.5 -19t34 -25h5q0 59 -13 85t-47 35.5t-108 14.5v15h400v-15q-39 -4 -65.5 -12t-43 -24.5t-24.5 -44t-10 -70.5h5q36 35 95.5 55.5t141.5 20.5q64 0 113.5 -16t83 -44.5t51 -67t17.5 -82.5
q0 -53 -20.5 -98.5t-60 -79.5t-96 -53t-128.5 -19q-33 0 -64.5 4t-59 12t-49.5 19t-34 25h-5v-61q2 -53 20 -77q9 -13 27.5 -22.5t48.5 -16t74 -11t104 -7.5v-15h-627v15q142 5 191 18q51 14 64 53q14 40 14 147h-4q-77 -83 -243 -83q-64 0 -113.5 16.5t-83 45t-51 66.5
t-17.5 82zM835 185q46 0 83.5 14.5t64 41.5t41 65t14.5 85q0 85 -51.5 134.5t-141.5 49.5q-46 0 -83.5 -14.5t-64.5 -41.5t-41.5 -64.5t-14.5 -84.5q0 -41 14 -75t39.5 -58.5t61 -38t79.5 -13.5zM348 185q46 0 83.5 14.5t64.5 41.5t41.5 65t14.5 84q0 41 -14 75t-39.5 58.5
t-61 38t-79.5 13.5q-46 0 -83.5 -14.5t-64 -41.5t-41 -65t-14.5 -85q0 -42 13.5 -76t39 -58t61 -37t79.5 -13z" />
    <glyph glyph-name="uni0425" unicode="&#x425;" horiz-adv-x="733" 
d="M416 700v-15q-66 -1 -107 -5.5t-63 -10.5t-29.5 -14t-7.5 -17q0 -23 35 -64q17 -21 51 -58.5t86 -92.5l52 -55h5q-3 17 -3 30q0 39 14 69t42 62l29 33q35 40 48 57t13 30q0 18 -18.5 26t-58.5 10v15h220v-5q-46 -35 -102 -87.5t-108 -112.5q-18 -20 -29 -49t-11 -61
q0 -36 18.5 -75.5t51.5 -76.5q72 -81 128 -139.5t101 -88.5v-5h-446v15q59 2 99.5 5.5t66 10t37 17t11.5 26.5q0 33 -62.5 107t-176.5 195h-5q4 -12 4 -29q0 -33 -22.5 -79t-62.5 -100q-28 -37 -41 -60t-13 -40q0 -46 97 -53v-15h-250v5q20 16 46.5 41.5t54 56t54.5 65
t47.5 69t33.5 66.5t13 59q0 28 -13.5 56t-39.5 61q-29 38 -57.5 71.5t-55.5 62t-50.5 49.5t-41.5 33v5h416z" />
    <glyph glyph-name="uni0426" unicode="&#x426;" horiz-adv-x="890" 
d="M460 700v-15q-57 -2 -98 -4t-66 -6q-51 -7 -72 -26t-21 -64l4 -400q0 -62 15 -94q15 -31 57.5 -43.5t129.5 -12.5q69 0 135 3t132 8q-23 48 -23 254l1 115q1 14 1 31.5v39.5q0 88 -9 128q-4 20 -12 32.5t-21.5 20.5t-33 12t-46.5 6v15h247v-5q-18 -17 -29 -98
q-5 -41 -8 -107t-3 -160q0 -127 15 -189q8 -31 19.5 -51.5t28.5 -32.5t41 -17t56 -5v-10q-10 -9 -18 -33t-13.5 -55t-9 -66t-5.5 -67.5t-3 -59t-1 -40.5h-15q-6 131 -32 195q-13 32 -30.5 51.5t-40.5 30.5t-53 15t-69 4h-540v5q11 6 18.5 31t13 60.5t9 76.5t5.5 78.5t3 67
t1 41.5q0 152 -14.5 234.5t-35.5 100.5v5h390z" />
    <glyph glyph-name="uni0427" unicode="&#x427;" horiz-adv-x="825" 
d="M50 695v5h380v-15q-130 -7 -174 -12q-43 -6 -58 -21.5t-15 -56.5v-52t1 -40l1 -109q0 -78 23.5 -111t71.5 -33q61 0 144 62q31 24 66.5 59t65.5 75.5t49.5 84.5t19.5 86q0 35 -27.5 50.5t-84.5 17.5v15h237v-5q-18 -17 -29 -98q-5 -41 -8 -107t-3 -160q0 -147 13 -227
t32 -98v-5h-395v15q137 9 187 35q49 25 63 109q7 42 10.5 119t3.5 191h-5q-29 -43 -68.5 -90.5t-86.5 -87t-100.5 -65.5t-109.5 -26q-80 0 -118.5 43t-40.5 147l-2 96q-2 88 -14.5 140.5t-28.5 68.5z" />
    <glyph glyph-name="uni0428" unicode="&#x428;" horiz-adv-x="1200" 
d="M340 700v-15q-32 -2 -55 -4.5t-36 -5.5q-27 -7 -36.5 -25.5t-9.5 -62.5l1 -102q3 -228 3 -334q0 -32 9 -54.5t33 -36t67.5 -19.5t112.5 -6q95 0 159 6q-32 44 -32 219q0 16 0.5 35l1 38t1 35t0.5 26q1 34 1.5 57t0.5 34q0 93 -16 132q-8 21 -20.5 33.5t-31.5 19.5
t-46.5 10.5t-66.5 4.5v15h405v-15q-36 -2 -59.5 -8.5t-38.5 -20.5t-22.5 -37.5t-10.5 -59.5q-9 -78 -9 -279q0 -73 8.5 -120.5t29 -75t53.5 -38.5t82 -11q68 0 118.5 3t84.5 8q-23 48 -23 254l1 115q1 14 1 31v39q0 87 -12 127q-6 20 -17.5 33.5t-30 22t-46 12.5t-66.5 5v15
h297v-5q-18 -17 -29 -98q-5 -41 -8 -107t-3 -160q0 -147 13 -227t32 -98v-5h-1060v5q11 6 18.5 31t13 60.5t9 76.5t5.5 78.5t3 67t1 41.5q0 152 -14.5 234.5t-35.5 100.5v5h270z" />
    <glyph glyph-name="uni0429" unicode="&#x429;" horiz-adv-x="1235" 
d="M340 700v-15q-32 -2 -55 -4.5t-36 -5.5q-27 -7 -36.5 -25.5t-9.5 -62.5l1 -102q3 -228 3 -334q0 -32 9 -54.5t33 -36t67.5 -19.5t112.5 -6q95 0 159 6q-32 44 -32 219q0 16 0.5 35l1 38t1 35t0.5 26q1 34 1.5 57t0.5 34q0 93 -16 132q-8 21 -20.5 33.5t-31.5 19.5
t-46.5 10.5t-66.5 4.5v15h405v-15q-36 -2 -59.5 -8.5t-38.5 -20.5t-22.5 -37.5t-10.5 -59.5q-9 -78 -9 -279q0 -73 8.5 -120.5t29 -75t53.5 -38.5t82 -11q68 0 118.5 3t84.5 8q-23 48 -23 254l1 115q1 14 1 31v39q0 87 -12 127q-6 20 -17.5 33.5t-30 22t-46 12.5t-66.5 5v15
h297v-5q-18 -17 -29 -98q-5 -41 -8 -107t-3 -160q0 -127 15 -189q8 -31 19.5 -51.5t28.5 -32.5t41 -17t56 -5v-10q-10 -9 -18 -33t-13.5 -55t-9 -66t-5.5 -67.5t-3 -59t-1 -40.5h-15q-6 131 -32 195q-13 32 -30.5 51.5t-40.5 30.5t-53 15t-69 4h-885v5q11 6 18.5 31t13 60.5
t9 76.5t5.5 78.5t3 67t1 41.5q0 152 -14.5 234.5t-35.5 100.5v5h270z" />
    <glyph glyph-name="uni042A" unicode="&#x42a;" horiz-adv-x="900" 
d="M50 700h505v-5q-73 -27 -137 -100q-65 -74 -81 -205h5q36 32 88.5 51t134.5 19q69 0 121.5 -16t87.5 -44.5t53 -68t18 -86.5q0 -53 -21.5 -99.5t-62.5 -81t-99 -54.5t-132 -20q-163 0 -250 95h-5l-50 -100h-21q12 95 12 170q0 90 9 165.5t32 137t62.5 111t100.5 86.5v5
q-18 2 -40.5 3.5t-49.5 1.5q-81 0 -128.5 -32t-73 -84t-36 -117.5t-17.5 -131.5h-15q4 68 5.5 121.5t1.5 93.5q0 141 -17 180v5zM320 215q0 -42 14.5 -77t40.5 -60t64 -39t84 -14q48 0 86 14.5t65 42t41.5 66.5t14.5 87q0 42 -14.5 77t-40.5 60t-63.5 39t-84.5 14
q-48 0 -86 -14.5t-65 -42t-41.5 -66.5t-14.5 -87z" />
    <glyph glyph-name="uni042B" unicode="&#x42b;" horiz-adv-x="1050" 
d="M70 700h400v-15q-63 -2 -106.5 -4t-69.5 -4q-53 -6 -72 -20t-19 -45l1 -106q1 -34 1.5 -64t0.5 -56h5q80 74 239 74q69 0 121.5 -16t87.5 -44.5t53 -68t18 -86.5q0 -53 -21.5 -99.5t-62.5 -81t-99 -54.5t-132 -20q-163 0 -250 95h-5l-50 -100h-21q8 31 13.5 79t9.5 114
t6 126t2 116q0 112 -14.5 181t-35.5 94v5zM408 25q48 0 86 14.5t65 42t41.5 66.5t14.5 87q0 42 -14.5 77t-40.5 60t-63.5 39t-84.5 14q-48 0 -86 -14.5t-65 -42t-41.5 -66.5t-14.5 -87q0 -42 14.5 -77t40.5 -60t64 -39t84 -14zM975 700v-5q-18 -17 -29 -98q-5 -41 -8 -107
t-3 -160q0 -147 13 -227t32 -98v-5h-250v15q29 2 51 13t37.5 38t23.5 75t8 124q0 205 -16 284q-16 80 -63 106q-46 25 -166 30v15h370z" />
    <glyph glyph-name="uni042C" unicode="&#x42c;" horiz-adv-x="795" 
d="M470 700v-15q-63 -2 -106.5 -4t-69.5 -4q-53 -6 -72 -20t-19 -45l1 -106q1 -34 1.5 -64t0.5 -56h5q80 74 244 74q70 0 123.5 -15.5t89.5 -43.5t54 -68t18 -88q0 -53 -22 -99.5t-63.5 -81t-102 -54.5t-137.5 -20q-163 0 -250 95h-5l-50 -100h-21q8 31 13.5 79t9.5 114
t6 126t2 116q0 112 -14.5 181t-35.5 94v5h400zM413 25q100 0 156 55.5t56 154.5q0 42 -14.5 77t-41.5 60t-65.5 39t-86.5 14q-100 0 -156 -55.5t-56 -154.5q0 -42 14.5 -77t41.5 -60t65.5 -39t86.5 -14z" />
    <glyph glyph-name="uni042D" unicode="&#x42d;" horiz-adv-x="893" 
d="M90 101l170 292h15q-53 -136 -53 -221q0 -78 41 -112.5t111 -34.5q56 0 106.5 16.5t92.5 47.5t73 77t49 104q13 40 13 83q0 49 -20.5 78t-62.5 29q-28 0 -57 -14.5t-55.5 -46t-49 -82t-38.5 -122.5h-15v228q33 28 82.5 47.5t107.5 19.5q70 0 104 -25h4
q-20 103 -91.5 156.5t-182.5 53.5q-125 0 -205 -89t-116 -281h-15v335q52 29 135 49.5t185 20.5q95 0 170.5 -27t129 -75t82 -114t28.5 -144t-29 -144t-84.5 -114t-135.5 -75t-181 -27q-109 0 -187.5 30t-120.5 81z" />
    <glyph glyph-name="uni042E" unicode="&#x42e;" horiz-adv-x="1200" 
d="M455 700v-15q-58 -2 -99.5 -4t-66.5 -4q-50 -6 -68 -20t-18 -45t3 -69q3 -93 3 -105q0 -26 1 -41t4.5 -22.5t9.5 -9.5t16 -2t32 6q28 7 43 7q25 0 41 -12q5 79 34.5 143t80 109t120 69.5t154.5 24.5q91 0 163.5 -26t122.5 -73.5t77 -113.5t27 -147q0 -79 -27.5 -145
t-78.5 -114t-123 -74.5t-161 -26.5q-142 0 -231 54.5t-129 150.5q-2 5 -7 17t-13 32q-15 37 -23 55q-8 17 -20.5 25.5t-32.5 8.5q-21 0 -36.5 -7t-26 -26t-16 -53t-5.5 -87q0 -63 14 -94q7 -15 16.5 -24.5t23.5 -14.5t34 -7.5t47 -4.5v-15h-270v5q11 6 18.5 31t13 60.5
t9 76.5t5.5 78.5t3 67t1 41.5q0 152 -14.5 234.5t-35.5 100.5v5h385zM471 294q0 -130 64.5 -199.5t178.5 -69.5q66 0 122 24.5t96.5 72.5t63.5 119.5t23 164.5q0 130 -64.5 199.5t-178.5 69.5q-66 0 -122 -24.5t-96.5 -72.5t-63.5 -119.5t-23 -164.5z" />
    <glyph glyph-name="uni042F" unicode="&#x42f;" horiz-adv-x="868" 
d="M65 390q10 -72 18.5 -127t16.5 -94q15 -78 33 -113.5t42 -35.5q30 0 45.5 29.5t31.5 90.5l7 25q21 71 51.5 114t89.5 51v5q-121 8 -176.5 52t-55.5 123q0 39 19.5 75t57 63.5t91 44.5t122.5 17q79 0 139.5 -22t91.5 -68h5l61 95h20q-8 -38 -13 -80t-7 -89q-6 -93 -6 -258
q0 -109 14.5 -180.5t34.5 -102.5v-5h-387v15q123 9 171 30q49 21 62 75q13 51 13 190v102h-5q-10 -23 -33.5 -39.5t-69.5 -38.5q-31 -15 -57 -29.5t-47 -31t-37.5 -36t-30.5 -45.5l-28 -56q-16 -32 -28 -55t-22 -37q-19 -27 -48.5 -40.5t-85.5 -13.5q-35 0 -65.5 6.5
t-49.5 15.5v378h15zM278 510q0 -64 48 -104.5t138 -40.5q44 0 79.5 13t61 35.5t39.5 52.5t14 64q0 64 -48 104.5t-138 40.5q-44 0 -79.5 -13t-61 -35.5t-39.5 -52.5t-14 -64z" />
    <glyph glyph-name="uni0430" unicode="&#x430;" 
d="M65 114q0 63 52 100t148 61q51 12 88 25.5t61 29t35 35t11 44.5q0 29 -27.5 50t-78.5 21q-44 0 -88 -15t-81.5 -47.5t-66.5 -82.5t-43 -119h-10v214q61 36 127.5 58t153.5 22q100 0 151 -49.5t53 -145.5l4 -175q1 -61 13 -94.5t28 -40.5v-5h-240v15q33 2 54.5 5t34 9
t18 15.5t5.5 24.5l-1 41q-1 16 -1.5 28.5t-0.5 20.5v20t1 16h-5q-16 -43 -41.5 -80.5t-59 -65t-74 -43.5t-88.5 -16q-63 0 -97.5 33t-34.5 91zM260 60q45 0 82 27t63.5 66.5t40.5 86t14 85.5v4q-16 -19 -60.5 -44t-117.5 -52q-57 -20 -79.5 -46.5t-22.5 -58.5
q0 -31 21 -49.5t59 -18.5z" />
    <glyph glyph-name="uni0431" unicode="&#x431;" horiz-adv-x="655" 
d="M271 710q33 0 55.5 -7t38 -19t26.5 -28.5t20 -34.5q16 -27 27 -39t32 -12q73 0 110 220h15v-228q-19 -9 -45.5 -15.5t-54.5 -6.5q-26 0 -45.5 2.5t-36 7t-31.5 11.5t-31 16q-15 8 -27 13.5t-24 9t-25 5.5t-30 2q-26 0 -55 -17t-52.5 -51t-39 -85.5t-14.5 -121.5h5
q15 32 40.5 57.5t58.5 43.5t71.5 27.5t80.5 9.5q61 0 110.5 -18t85 -49.5t55 -73.5t19.5 -89q0 -51 -21 -96t-58.5 -79.5t-89 -54.5t-111.5 -20q-135 0 -207.5 82t-72.5 248q0 90 16.5 162.5t45.5 123t69.5 77.5t89.5 27zM303 20q39 0 76 19t66.5 53t47 82t17.5 106
q0 76 -40.5 118t-112.5 42q-37 0 -73.5 -19t-65 -53t-46 -82t-17.5 -106q0 -76 39.5 -118t108.5 -42z" />
    <glyph glyph-name="uni0432" unicode="&#x432;" horiz-adv-x="650" 
d="M50 495v5q20 0 39 0.5t35.5 1.5t29 2t18.5 1q54 2 92 3.5t61 1.5q122 0 173.5 -29t51.5 -81q0 -40 -24.5 -72t-84.5 -54v-5q91 -1 130 -32t39 -77q0 -37 -17.5 -68.5t-52.5 -54t-89 -35t-126 -12.5q-76 0 -118 21.5t-67 58.5h-5l-45 -85h-20q24 107 24 335q0 72 -13 116
t-31 59zM173 225v-37q0 -78 37 -123t110 -45q48 0 84 12t59.5 32t35 45t11.5 51q0 19 -3.5 33.5t-16.5 24t-37 14.5t-66 5q-7 0 -23 -1t-41 -3q-38 -4 -75.5 -6t-74.5 -2zM250 260q52 0 89.5 12t62 32t36.5 45t12 51q0 40 -30.5 60t-99.5 20q-44 0 -72 -5.5t-44.5 -18.5
t-22.5 -34t-6 -52l1 -44q0 -23 -3 -55q30 -11 77 -11z" />
    <glyph glyph-name="uni0433" unicode="&#x433;" horiz-adv-x="558" 
d="M508 499v-324h-15q-15 121 -38 186q-12 31 -27.5 52t-36.5 33.5t-48.5 18t-63.5 5.5q-33 0 -116 -6q6 -13 10 -49.5t4 -94.5q0 -15 0.5 -37t1.5 -51l1 -84q0 -21 2 -40.5t8.5 -35t20.5 -26.5t38 -16q39 -9 136 -15v-15h-335v5q50 29 50 315q0 72 -14.5 116t-35.5 59v5z
" />
    <glyph glyph-name="uni0434" unicode="&#x434;" horiz-adv-x="665" 
d="M-5 30h40q67 0 106 61t39 195q0 52 -8 87.5t-25.5 58.5t-46 35.5t-70.5 17.5v15h550v-5q-50 -29 -50 -315q0 -42 6.5 -71t21 -46.5t37 -25t55.5 -7.5h20v-5q-10 -9 -18 -33t-13.5 -55t-9 -66t-5.5 -67.5t-3 -59t-1 -40.5h-15q-6 144 -19 203q-6 30 -14.5 48.5t-21 28.5
t-30 13t-42.5 3h-182q-92 0 -134 -16q-22 -8 -40 -26.5t-33 -51.5t-27 -82.5t-22 -119.5h-15q0 144 -5.5 223t-24.5 97v6zM186 30h103q126 0 178 6q-9 13 -15 49.5t-6 94.5q0 11 1 32t3 52q2 45 3.5 72.5t1.5 39.5q0 28 -4.5 46.5t-16 29t-31.5 14.5t-52 4h-166
q13 -26 22.5 -70t9.5 -101q0 -46 -5.5 -84t-15.5 -81q0 -3 -2 -11.5t-4.5 -20.5t-4 -24.5t-1.5 -23.5q0 -14 2 -24z" />
    <glyph glyph-name="uni0435" unicode="&#x435;" horiz-adv-x="640" 
d="M340 510q66 0 121.5 -28t88.5 -82l14 -27l-403 -270q19 -40 56 -61.5t91 -21.5q81 0 146.5 73.5t100.5 221.5h10v-255q-27 -29 -85 -49.5t-145 -20.5q-64 0 -117.5 20t-92 55.5t-59.5 83t-21 101.5q0 55 21 102.5t60 82.5t93.5 55t120.5 20zM151 133l50 34
q109 72 169.5 133t60.5 115q0 30 -20.5 47.5t-58.5 17.5t-75 -20.5t-66.5 -58.5t-47.5 -92.5t-18 -123.5q0 -28 6 -52z" />
    <glyph glyph-name="uni0436" unicode="&#x436;" horiz-adv-x="1051" 
d="M55 495v5h251v-15q-84 -1 -84 -29q0 -22 62 -60q44 -27 75.5 -46.5t54.5 -35t38.5 -28.5t27.5 -25h5l2 131q0 26 -6 43t-20.5 27.5t-39 15.5t-61.5 7v15h331v-15q-38 -2 -62.5 -5.5t-39 -10t-20 -18t-5.5 -29.5v-52t1 -40l1 -69h5q11 12 27.5 25t36.5 27t53 34t79 48
q61 37 61 60q0 14 -21.5 21.5t-61.5 8.5v15h251v-5q-42 -24 -88 -52.5t-99 -61.5l-147 -92v-5q39 0 63.5 -14t39.5 -37.5t23 -53.5t15 -63q10 -53 20.5 -77t37.5 -24q21 0 39 19.5t33.5 61t27.5 107t20 157.5h15v-348q-19 -9 -45.5 -15.5t-54.5 -6.5q-45 0 -76.5 9.5
t-54.5 29t-39 49.5t-30 72q-15 48 -30.5 69.5t-47.5 21.5q-13 0 -22.5 -3.5t-15.5 -15t-9 -31.5t-3 -53q0 -35 5 -58t17.5 -37t33 -20t50.5 -8v-15h-297v15q35 2 56 6.5t32 16t14.5 32.5t3.5 54q0 66 -14.5 91.5t-42.5 25.5q-23 0 -36 -19.5t-29 -62.5q-14 -39 -30.5 -70
t-40 -53t-56 -34t-79.5 -12q-28 0 -54.5 6.5t-45.5 15.5v348h15q8 -92 20 -157.5t27.5 -107t33.5 -61t39 -19.5q27 0 38 24.5t21 76.5q6 31 14 61t23 54t39.5 38.5t63.5 14.5v5l-147 92q-59 37 -105.5 65.5t-81.5 48.5z" />
    <glyph glyph-name="uni0437" unicode="&#x437;" 
d="M205 303h15q-41 -111 -41 -169q0 -60 36.5 -87t109.5 -27q72 0 113.5 38t41.5 102q0 36 -26.5 58.5t-80.5 22.5q-44 0 -105 -11v15q91 36 134 71.5t43 83.5q0 36 -24 58t-69 22q-94 0 -162.5 -62.5t-104.5 -192.5h-10v225q39 25 104 42.5t146 17.5q117 1 173.5 -29
t56.5 -81q0 -37 -28 -65.5t-91 -50.5v-5q39 0 67 -9.5t46 -26t27 -38t9 -45.5q0 -35 -16.5 -66t-49.5 -54t-84 -36.5t-120 -13.5q-99 0 -166.5 31t-93.5 80z" />
    <glyph glyph-name="uni0438" unicode="&#x438;" horiz-adv-x="680" 
d="M50 0v5q50 29 50 315q0 72 -14.5 116t-35.5 59v5h300v-15q-38 -2 -65.5 -4t-44.5 -4q-35 -5 -48.5 -15t-13.5 -30l1 -52q1 -21 1.5 -37.5t0.5 -29.5q0 -20 -0.5 -39.5t-1.5 -39.5q-1 -7 -1 -14.5v-17.5q0 -17 3 -23.5t12 -6.5q11 0 30.5 11.5t44 29t51 39.5t51 43.5
t45 40t31.5 28.5q32 30 45.5 49.5t13.5 35.5q0 8 -3 13.5t-12.5 10t-27.5 7.5t-47 5v15h215v-5q-50 -29 -50 -315q0 -72 14.5 -116t35.5 -59v-5h-270v15q65 5 93 18q14 7 23.5 22.5t16.5 42.5t10 68.5t3 99.5q0 13 -0.5 39.5t-1.5 66.5h-5l-128 -117q-11 -10 -30 -26
t-46 -38q-60 -49 -90 -78.5t-30 -48.5q0 -22 27 -33.5t93 -15.5v-15h-245z" />
    <glyph glyph-name="uni0439" unicode="&#x439;" horiz-adv-x="680" 
d="M50 0v5q50 29 50 315q0 72 -14.5 116t-35.5 59v5h300v-15q-38 -2 -65.5 -4t-44.5 -4q-35 -5 -48.5 -15t-13.5 -30l1 -52q1 -21 1.5 -37.5t0.5 -29.5q0 -20 -0.5 -39.5t-1.5 -39.5q-1 -7 -1 -14.5v-17.5q0 -17 3 -23.5t12 -6.5q11 0 30.5 11.5t44 29t51 39.5t51 43.5
t45 40t31.5 28.5q32 30 45.5 49.5t13.5 35.5q0 8 -3 13.5t-12.5 10t-27.5 7.5t-47 5v15h215v-5q-50 -29 -50 -315q0 -72 14.5 -116t35.5 -59v-5h-270v15q65 5 93 18q14 7 23.5 22.5t16.5 42.5t10 68.5t3 99.5q0 13 -0.5 39.5t-1.5 66.5h-5l-128 -117q-11 -10 -30 -26
t-46 -38q-60 -49 -90 -78.5t-30 -48.5q0 -22 27 -33.5t93 -15.5v-15h-245zM188 595v165h10q27 -94 64.5 -134.5t85.5 -40.5t85.5 41t64.5 134h10v-165q-30 -17 -72.5 -28.5t-87.5 -11.5t-87.5 11.5t-72.5 28.5z" />
    </font>
</defs>
</svg>
